<?xml version="1.0" encoding="UTF-8" standalone="no"?>
<svg
   xmlns:dc="http://purl.org/dc/elements/1.1/"
   xmlns:cc="http://creativecommons.org/ns#"
   xmlns:rdf="http://www.w3.org/1999/02/22-rdf-syntax-ns#"
   xmlns:svg="http://www.w3.org/2000/svg"
   xmlns="http://www.w3.org/2000/svg"
   xmlns:sodipodi="http://sodipodi.sourceforge.net/DTD/sodipodi-0.dtd"
   xmlns:inkscape="http://www.inkscape.org/namespaces/inkscape"
   viewBox="0 0 100 49"
   version="1.1"
   id="svg34"
   sodipodi:docname="Teletón_Ecuador_logo.svg"
   width="100"
   height="49"
   inkscape:version="0.92.4 (5da689c313, 2019-01-14)">
  <title
     id="title874">FEF logo</title>
  <metadata
     id="metadata38">
    <rdf:RDF>
      <cc:Work
         rdf:about="">
        <dc:format>image/svg+xml</dc:format>
        <dc:type
           rdf:resource="http://purl.org/dc/dcmitype/StillImage" />
        <dc:title>FEF logo</dc:title>
        <cc:license
           rdf:resource="http://scripts.sil.org/OFL" />
        <dc:date>7 abr 2020</dc:date>
        <dc:creator>
          <cc:Agent>
            <dc:title>EEIM</dc:title>
          </cc:Agent>
        </dc:creator>
        <dc:rights>
          <cc:Agent>
            <dc:title>N/A</dc:title>
          </cc:Agent>
        </dc:rights>
      </cc:Work>
      <cc:License
         rdf:about="http://scripts.sil.org/OFL">
        <cc:permits
           rdf:resource="http://scripts.sil.org/pub/OFL/Reproduction" />
        <cc:permits
           rdf:resource="http://scripts.sil.org/pub/OFL/Distribution" />
        <cc:permits
           rdf:resource="http://scripts.sil.org/pub/OFL/Embedding" />
        <cc:permits
           rdf:resource="http://scripts.sil.org/pub/OFL/DerivativeWorks" />
        <cc:requires
           rdf:resource="http://scripts.sil.org/pub/OFL/Notice" />
        <cc:requires
           rdf:resource="http://scripts.sil.org/pub/OFL/Attribution" />
        <cc:requires
           rdf:resource="http://scripts.sil.org/pub/OFL/ShareAlike" />
        <cc:requires
           rdf:resource="http://scripts.sil.org/pub/OFL/DerivativeRenaming" />
        <cc:requires
           rdf:resource="http://scripts.sil.org/pub/OFL/BundlingWhenSelling" />
      </cc:License>
    </rdf:RDF>
  </metadata>
  <sodipodi:namedview
     pagecolor="#ffffff"
     bordercolor="#666666"
     borderopacity="1"
     objecttolerance="1"
     gridtolerance="1"
     guidetolerance="1"
     inkscape:pageopacity="0"
     inkscape:pageshadow="2"
     inkscape:window-width="1366"
     inkscape:window-height="705"
     id="namedview36"
     showgrid="false"
     inkscape:showpageshadow="false"
     inkscape:zoom="1"
     inkscape:cx="52.48447"
     inkscape:cy="32.944751"
     inkscape:window-x="-8"
     inkscape:window-y="-8"
     inkscape:window-maximized="1"
     inkscape:current-layer="#336699ff">
    <inkscape:grid
       type="xygrid"
       id="grid879" />
  </sodipodi:namedview>
  <defs
     id="defs4">
    <style
       id="style2">.cls-1{fill:#eb2227;}</style>
    <pattern
       y="0"
       x="0"
       height="6"
       width="6"
       patternUnits="userSpaceOnUse"
       id="EMFhbasepattern" />
    <clipPath
       id="clipPath18"
       clipPathUnits="userSpaceOnUse">
      <path
         inkscape:connector-curvature="0"
         id="path16"
         d="M 0,800 H 800 V 0 H 0 Z" />
    </clipPath>
    <clipPath
       id="clipPath18-2"
       clipPathUnits="userSpaceOnUse">
      <path
         inkscape:connector-curvature="0"
         id="path16-2"
         d="M 0,800 H 800 V 0 H 0 Z" />
    </clipPath>
    <clipPath
       id="clipPath18-2-9"
       clipPathUnits="userSpaceOnUse">
      <path
         inkscape:connector-curvature="0"
         id="path16-2-4"
         d="M 0,800 H 800 V 0 H 0 Z" />
    </clipPath>
  </defs>
  <g
     id="#d32727ff"
     transform="matrix(0.01656116,0,0,0.01656116,185.44458,4.260547)"
     style="fill:#00ff00">
    <g
       id="#336699ff"
       transform="matrix(5.98363,0,0,5.98363,-12942.258,-2969.5715)">
      <g
         style="fill:#00ff00"
         transform="matrix(1.3022071,0,0,-1.3022071,272.03751,1228.0496)"
         id="g10-4-3">
        <g
           id="g12-2-5">
          <g
             clip-path="url(#clipPath18-2-9)"
             id="g14-0-5">
            <g
               transform="translate(51.0005,558.2754)"
               id="g20-3-0">
              <path
                 inkscape:connector-curvature="0"
                 id="path22-3-8"
                 style="fill:#d3aa75;fill-opacity:1;fill-rule:nonzero;stroke:none"
                 d="M 0,0 V 28.607 H 226.368 V 0 h 32.337 v -184.701 c 0,0 3.213,-50.788 -36.276,-95.562 0,0 -40.423,-47.885 -110.386,-56.282 0,0 -58.768,5.908 -103.544,51.306 0,0 -39.489,35.447 -41.044,99.503 V -0.104 Z" />
            </g>
            <path
               inkscape:connector-curvature="0"
               id="path24-9-5"
               style="fill:#ffce00;fill-opacity:1;fill-rule:nonzero;stroke:none"
               d="M 164.112,560.97 H 57.634 v 19.279 h 106.478 z" />
            <path
               inkscape:connector-curvature="0"
               id="path28-8-6"
               style="fill:#e5073a;fill-opacity:1;fill-rule:nonzero;stroke:none"
               d="m 270.629,560.97 h -43.221 v 19.279 h 43.221 z" />
            <g
               transform="translate(25.2964,551.3311)"
               id="g30-2-1" />
            <g
               transform="translate(57.6338,527.3887)"
               id="g34-7-7" />
            <g
               transform="translate(270.6294,527.3887)"
               id="g38-7-5" />
            <g
               transform="translate(57.6338,473.9058)"
               id="g42-4-4" />
            <g
               transform="translate(270.6294,473.9058)"
               id="g46-7-9" />
            <g
               transform="translate(57.6338,429.7515)"
               id="g50-0-2" />
            <g
               transform="translate(370.5044,446.4224)"
               id="g54-7-1" />
            <g
               transform="translate(460.3867,313.2939)"
               id="g58-2-7" />
            <g
               transform="translate(405.0107,495.0708)"
               id="g62-2-6" />
            <g
               transform="translate(370.584,428.5791)"
               id="g66-1-0" />
            <g
               transform="translate(483.0371,495.0708)"
               id="g70-8-3" />
            <g
               transform="translate(453.5049,484.1919)"
               id="g74-1-7" />
            <g
               transform="translate(412.627,362.0215)"
               id="g78-0-4" />
            <g
               transform="translate(383.3589,351.1426)"
               id="g82-9-6" />
            <g
               transform="translate(531.5312,484.1919)"
               id="g86-8-4" />
            <g
               transform="translate(612.2109,417.6982)"
               id="g90-5-2" />
            <g
               transform="translate(574.4307,464.6069)"
               id="g94-5-6" />
            <g
               transform="translate(498.0205,398.1133)"
               id="g98-2-5" />
            <g
               transform="translate(674.9561,398.1133)"
               id="g102-1-8" />
            <g
               transform="translate(760.251,398.1133)"
               id="g106-1-6" />
            <g
               transform="translate(628.6758,482.6353)"
               id="g110-6-3" />
            <g
               transform="translate(432.7559,415.9907)"
               id="g114-6-4" />
            <g
               transform="translate(667.9229,497.4028)"
               id="g122-1-3" />
            <g
               transform="translate(506.2637,364.0684)"
               id="g126-0-8" />
            <g
               transform="translate(668.8564,462.0815)"
               id="g130-3-4" />
            <g
               transform="translate(569.1729,395.6807)"
               id="g134-7-2" />
            <g
               transform="translate(626.0479,329.0186)"
               id="g138-4-5" />
            <g
               transform="translate(699.165,495.0708)"
               id="g142-0-2" />
            <g
               transform="translate(703.2031,428.5791)"
               id="g146-5-7" />
            <g
               transform="translate(519.5635,428.5791)"
               id="g150-0-1" />
            <g
               transform="translate(534.8652,362.0215)"
               id="g154-1-4" />
            <g
               transform="translate(441.3428,428.5791)"
               id="g158-8-4" />
            <g
               transform="translate(494.6641,361.9424)"
               id="g162-8-4" />
            <g
               transform="translate(656.3359,362.0215)"
               id="g166-2-2" />
            <g
               transform="translate(586.3926,333.0332)"
               id="g170-8-2" />
          </g>
        </g>
      </g>
      <path
         style="fill:#002255;fill-opacity:1;fill-rule:nonzero;stroke:none;stroke-width:1.30220711"
         d="m 499.71339,472.04424 v 25.10509 h 55.20209 v -25.10509 z m -194.62528,37.65662 v 236.0645 c 2.83365,85.84139 64.78578,133.21608 64.78578,133.21608 58.71109,46.96945 115.91852,50.61433 115.91852,50.61433 77.8578,-9.71674 125.40862,-59.11599 125.40862,-59.11599 61.95142,-61.54757 55.06832,-129.57296 55.06832,-129.57296 V 509.70086 Z m 42.10875,31.17857 87.0579,41.29992 v 62.76348 l 28.34399,14.17106 v -76.93454 h 50.61254 v 24.29631 h -25.50748 v 64.78543 l 6.47606,2.83447 30.77592,-15.38796 v 27.13078 l -31.58468,15.31939 -5.6673,-3.17238 v 97.9901 h 25.10329 v 25.10292 H 463.0033 V 686.24276 l -28.74854,-13.36217 v 134.8376 H 409.55425 V 597.56742 l -62.35739,-29.96536 z m 277.36438,0 v 26.31818 l -61.94857,30.36981 V 806.90731 H 537.9118 V 582.17935 Z m 531.77956,17.946 -18.6709,12.14523 4.25,8.95586 20.9484,-6.98536 z m -5.1638,22.81975 c -0.5796,-0.004 -0.9079,0.0171 -0.9079,0.0171 -22.1649,0.67457 -23.6821,18.30273 -23.6821,18.30273 v 29.29587 c 3.6463,19.88737 24.0618,18.52216 24.0618,18.52216 22.8444,-0.91026 24.0614,-18.82353 24.0614,-18.82353 v -28.9945 c -3.0558,-17.1348 -19.4757,-18.29722 -23.5332,-18.31989 z m -75.8891,0.0171 c -4.7649,-0.005 -17.718,1.56668 -20.3495,18.50494 v 28.94298 c 0,0 0.7558,18.18638 20.5936,18.10434 0,0 13.8646,0.31396 21.3549,-5.75693 l -5.8733,-11.3345 c 0,0 -7.6891,4.85724 -15.4816,3.03674 0,0 -4.1511,-1.01309 -4.353,-7.89522 v -22.0606 c 0,0 0,-7.0859 5.4672,-7.49085 0,0 7.6899,-1.01177 14.167,3.44305 l 6.0737,-11.74083 c 0,0 -5.6684,-5.46414 -19.8365,-5.66727 0,0 -0.663,-0.0847 -1.7625,-0.0858 z m -320.66728,1.30093 v 63.35095 h 16.39312 v -22.46678 h 18.62154 v -13.96509 h -18.82541 v -12.75381 h 22.67098 v -14.1653 z m 44.93386,0 v 63.35095 h 39.26443 v -13.96494 h -22.86953 v -11.13047 h 18.41731 v -13.96701 h -18.41731 v -10.1213 h 22.86953 v -14.16726 z m 46.75559,0 v 63.35095 h 24.48847 c 0,0 20.84854,0.60905 22.4671,-18.61929 v -25.70592 c 0,0 0,-18.42154 -21.65622,-19.02574 z m 54.85094,0 v 63.35095 h 39.26638 v -13.96494 h -22.87135 v -11.13047 h 18.41917 v -13.96698 h -18.41917 v -10.1213 h 22.87135 v -14.16725 z m 46.55313,0 v 63.35095 h 16.39515 v -21.86028 c 0,0 3.23881,-0.19856 3.43938,2.63242 0,0 2.63248,3.84766 3.03479,7.28676 0,0 3.84635,9.31201 9.92109,11.9411 0,0 6.47523,2.02498 15.38232,0 v -12.14331 c 0,0 -5.86963,2.03024 -8.29959,-1.81786 l -4.04588,-8.91009 c 0,0 11.93968,-5.05852 11.1284,-18.82158 0,0 2.22717,-20.24267 -20.84536,-21.65811 z m 69.62886,0 -20.64544,63.35095 h 17.80884 l 2.8366,-11.53666 c 0,0 11.3326,0.8122 15.5845,-0.20217 l 3.0329,11.73883 h 18.2188 l -21.6601,-63.35095 z m 165.2606,0 v 63.35095 h 15.9412 v -33.21572 l 18.2151,33.21576 h 12.9025 v -63.35098 h -15.4835 v 33.54969 l -17.7628,-33.54969 z m -80.4559,0 v 63.34914 h 16.6987 v -63.34913 z m 48.7795,12.58399 c 1.2495,-0.0253 6.3058,0.23974 7.2334,6.08498 v 24.59381 c 0,0 0,6.98112 -7.5118,7.43559 0,0 -7.2113,0.30557 -7.512,-7.74074 v -24.28822 c 0,0 1.0621,-6.52747 7.512,-6.07175 0,0 0.1,-0.009 0.2784,-0.0131 z m -288.22401,1.58131 h 9.10833 c 5.87046,0.60819 5.2631,7.48904 5.2631,7.48904 v 19.83452 c 0,8.29889 -6.47605,7.89523 -6.47605,7.89523 h -7.89538 z m 101.60646,0 h 9.51479 c 3.03671,0.60819 4.24991,3.23903 4.24991,3.23903 2.02621,7.69081 -1.81971,9.91731 -1.81971,9.91731 -3.23866,3.23852 -11.94499,0 -11.94499,0 z m 60.72245,6.0736 4.8566,19.43015 c -2.4273,0.80861 -9.715,0 -9.715,0 z m -677.83524,7.32109 48.99718,23.88807 v 26.72445 l -48.99718,-23.48328 z m 277.36438,0 v 27.12894 l -48.99291,23.48358 v -26.72416 z m -277.36438,57.49686 24.49841,11.33645 v 60.73943 c 0,0 -3.03753,42.91822 34.62007,80.98035 0,0 28.69481,31.98888 79.53827,32.39378 0,0 37.88674,3.64276 76.35237,-29.56084 0,0 36.03761,-27.53166 37.86077,-84.21961 V 680.976 l 24.49663,-12.95591 v 72.34485 c 0,0 1.48443,52.90821 -37.38789,93.40051 0,0 -26.45393,31.85438 -74.50396,41.57255 0,0 -12.27321,0.80697 -26.78732,12.14549 0,0 -8.84537,-8.63829 -23.6918,-11.87828 0,0 -45.88991,-4.85713 -83.68129,-48.8577 0,0 -27.80458,-31.31567 -31.31426,-82.33455 z m 674.17274,0.0914 c -0.5796,-0.004 -0.9079,0.0153 -0.9079,0.0153 -22.16244,0.67323 -23.68209,18.3047 -23.68209,18.3047 v 29.29773 c 3.64759,19.88465 24.06369,18.52049 24.06369,18.52049 22.8445,-0.91159 24.0596,-18.82578 24.0596,-18.82578 v -28.99244 c -3.0548,-17.13597 -19.4758,-18.29733 -23.5333,-18.3201 z m -201.21209,0.33574 c -4.76497,-0.007 -17.71815,1.56577 -20.34933,18.50504 v 28.94487 c 0,0 0.75893,18.18248 20.59555,18.1042 0,0 13.86404,0.31311 21.35272,-5.76052 l -5.8694,-11.3307 c 0,0 -7.69113,4.85678 -15.48332,3.03469 0,0 -4.15049,-1.01085 -4.35117,-7.89323 v -22.06434 c 0,0 0,-7.08149 5.46307,-7.48904 0,0 7.6922,-1.00913 14.16932,3.44316 l 6.0715,-11.74087 c 0,0 -5.66623,-5.46545 -19.83449,-5.66733 0,0 -0.66465,-0.0845 -1.76445,-0.0858 z m -65.4337,1.10061 v 63.35298 h 39.2662 v -13.96511 h -22.87309 v -11.13214 h 18.42123 v -13.96722 h -18.42123 v -10.11927 h 22.87309 V 669.5478 Z m 92.1431,0 v 47.15236 c 0.15123,18.06292 17.30506,17.30328 17.30506,17.30328 7.2873,0.60664 13.05707,-4.09535 13.05707,-4.09535 l 0.91193,2.99269 h 15.63205 v -63.35298 h -16.39134 v 46.39307 c -2.12666,4.70484 -8.20065,4.19105 -8.20065,4.19105 -5.46664,0.0936 -5.91886,-5.10263 -5.91886,-5.10263 v -45.48149 z m 70.96963,0 -20.6435,63.35298 h 17.81066 l 2.83284,-11.5367 c 0,0 11.33602,0.80912 15.58643,-0.20422 l 3.03478,11.74092 h 8.67928 l -17.98033,11.69682 4.2499,8.95603 20.94664,-6.98521 -6.3196,-13.66764 h 8.64295 l -21.65807,-63.35298 z m 30.8886,0 v 14.16925 h 14.57544 v 49.18373 h 16.54593 v -49.18373 h 14.57534 v -14.16925 z m 104.04816,0 v 63.35298 h 16.3952 v -21.86044 c 0,0 3.2355,-0.20176 3.4413,2.63439 0,0 2.6325,3.84415 3.0348,7.28303 0,0 3.8476,9.31148 9.9211,11.94302 0,0 6.4738,2.02384 15.3823,0 v -12.14334 c 0,0 -5.8762,2.02881 -8.2997,-1.81783 l -4.0478,-8.91191 c 0,0 11.9404,-5.05852 11.1305,-18.82179 0,0 2.227,-20.24118 -20.8455,-21.65811 z m 54.6909,0 v 63.35298 h 16.7003 v -63.35298 z m 40.7791,0 -20.6452,63.35298 h 17.8105 l 2.8347,-11.5367 c 0,0 11.3346,0.80912 15.5865,-0.20422 l 3.0348,11.74092 h 18.215 l -21.6562,-63.35298 z m 39.6194,0 v 63.35298 h 15.9392 v -33.21746 l 18.217,33.21746 h 12.9044 v -63.35298 h -15.4853 v 33.54806 l -17.7629,-33.54806 z m 71.4523,0 -20.6434,63.35298 h 17.8106 l 2.8328,-11.5367 c 0,0 11.3346,0.80912 15.5864,-0.20422 l 3.0367,11.74092 h 18.215 l -21.658,-63.35298 z m -238.1933,12.46775 c 1.2488,-0.0253 6.3024,0.23896 7.2333,6.08307 v 24.59373 c 0,0 0,6.98485 -7.5117,7.43957 0,0 -7.2124,0.30173 -7.5159,-7.74486 v -24.28844 c 0,0 1.0646,-6.52548 7.5159,-6.0698 0,0 0.1,-0.009 0.2784,-0.0131 z m 48.251,1.7015 h 9.5128 c 3.0341,0.60559 4.2462,3.23903 4.2462,3.23903 2.0288,7.69078 -1.8179,9.9192 -1.8179,9.9192 -3.2399,3.23714 -11.9411,0 -11.9411,0 z m -143.84507,6.06972 4.85848,19.43397 c -2.42604,0.80732 -9.71308,0 -9.71308,0 z m 230.40687,0 4.8584,19.43397 c -2.4286,0.80732 -9.7131,0 -9.7131,0 z m 111.0716,0 4.8603,19.43397 c -2.4286,0.80732 -9.715,0 -9.715,0 z m -171.5747,65.13317 c -0.5797,0 -0.906,0.0142 -0.906,0.0142 -22.1609,0.67318 -23.6801,18.30274 -23.6801,18.30274 v 29.29789 c 3.6409,19.88856 24.0597,18.52191 24.0597,18.52191 22.8472,-0.91159 24.0614,-18.82541 24.0614,-18.82541 v -28.99439 c -3.0546,-17.13462 -19.4773,-18.29527 -23.535,-18.31805 z M 754.62062,756.219 v 63.35292 h 24.49272 c 0,0 20.84499,0.60524 22.46497,-18.6233 v -25.70211 c 0,0 0,-18.42335 -21.65835,-19.02751 z m 54.85093,0 v 63.35292 h 39.26656 V 805.60506 H 825.8668 v -11.13035 h 18.41909 V 780.50572 H 825.8668 V 770.3862 h 22.87131 v -14.16718 z m 159.17966,0 v 14.16718 h 14.57533 v 49.18574 h 16.54602 v -49.18574 h 14.57354 v -14.16716 z m 158.17999,0 v 63.35292 h 38.7114 v -13.76298 h -22.6213 v -49.58992 z m -210.53023,0.10318 v 47.15019 c 0.15097,18.06397 17.30694,17.30112 17.30694,17.30112 7.28587,0.60701 13.05326,-4.09143 13.05326,-4.09143 l 0.91186,2.99091 h 15.6359 v -63.35079 h -16.39515 v 46.39303 c -2.12524,4.70589 -8.1967,4.18855 -8.1967,4.18855 -5.46667,0.0939 -5.91904,-5.10049 -5.91904,-5.10049 v -45.48109 z m -44.6364,0 v 63.34902 h 16.39525 v -22.46674 h 18.62119 v -13.96509 h -18.82328 v -12.75 h 22.6692 v -14.16719 z m 147.73263,0 v 63.24797 h 27.1309 c 0,0 15.6369,0.50489 18.0643,-11.18374 0,0 1.9742,-8.6518 0,-14.26822 0,0 -2.5783,-5.16313 -6.6764,-7.43958 0,0 5.9191,-3.13609 5.9191,-12.24263 0,0 0.5042,-9.21221 -4.7555,-13.46126 0,0 -3.3403,-4.44938 -13.6655,-4.65254 z m 75.7882,12.49809 c 1.2493,-0.0249 6.3043,0.24302 7.2353,6.08716 v 24.59377 c 0,0 0,6.9827 -7.5157,7.43743 0,0 -7.2078,0.30172 -7.5138,-7.74485 v -24.28635 c 0,0 1.0639,-6.52835 7.5138,-6.07363 0,0 0.1018,-0.0106 0.2804,-0.0142 z m -59.435,1.46486 h 7.3899 c 4.6567,0.75788 4.3014,5.69043 4.3014,5.69043 -0.3046,4.47962 -3.342,5.69186 -3.3419,5.69186 h -8.3494 z m -264.39118,0.0993 h 9.10654 c 5.87154,0.60844 5.26454,7.48904 5.26454,7.48904 v 19.83626 c 0,8.2992 -6.47784,7.89358 -6.47784,7.89358 h -7.89324 z m 264.39118,23.58292 h 10.173 c 4.249,1.06138 3.4909,6.07364 3.4909,6.07364 -0.1525,5.16062 -4.708,6.06971 -4.708,6.06971 h -8.9559 z"
         id="path26-8-4"
         inkscape:connector-curvature="0" />
    </g>
  </g>
</svg>
