<?xml version="1.0" encoding="UTF-8"?>
<svg width="198.363" height="253.752" version="1.1" viewBox="0 0 132.24 362.61" xmlns="http://www.w3.org/2000/svg">
 <defs>
  <linearGradient id="id1" x1="298.23" x2="543.66" y1="414.04" y2="193.06" gradientTransform="translate(-354.82 -93.39)" gradientUnits="userSpaceOnUse">
   <stop stop-color="#ab803a" offset="0"/>
   <stop stop-color="#ac823d" offset=".12"/>
   <stop stop-color="#b18946" offset=".2"/>
   <stop stop-color="#b89455" offset=".27"/>
   <stop stop-color="#c3a46b" offset=".33"/>
   <stop stop-color="#d1b887" offset=".39"/>
   <stop stop-color="#decca3" offset=".44"/>
   <stop stop-color="#d8c394" offset=".52"/>
   <stop stop-color="#ccae73" offset=".72"/>
   <stop stop-color="#c4a15e" offset=".89"/>
   <stop stop-color="#c19c57" offset="1"/>
  </linearGradient>
  <radialGradient id="id2" cx="3517.6" cy="579.82" r="88.87" gradientTransform="matrix(2 0 0 1.31 -6974 -387.58)" gradientUnits="userSpaceOnUse">
   <stop stop-color="red" offset=".27"/>
   <stop stop-color="red" stop-opacity=".98" offset=".35"/>
   <stop stop-color="red" stop-opacity=".93" offset=".44"/>
   <stop stop-color="red" stop-opacity=".84" offset=".53"/>
   <stop stop-color="red" stop-opacity=".71" offset=".63"/>
   <stop stop-color="red" stop-opacity=".54" offset=".74"/>
   <stop stop-color="red" stop-opacity=".34" offset=".85"/>
   <stop stop-color="red" stop-opacity=".11" offset=".95"/>
   <stop stop-color="red" stop-opacity="0" offset="1"/>
  </radialGradient>
  <linearGradient id="id3" x1="509.17" x2="332.72" y1="187.53" y2="421.68" gradientTransform="translate(-354.82 -93.39)" gradientUnits="userSpaceOnUse">
   <stop stop-color="#0860a8" offset="0"/>
   <stop stop-color="#08569d" offset=".1"/>
   <stop stop-color="#093c81" offset=".26"/>
   <stop stop-color="#0a1659" offset=".45"/>
   <stop stop-color="#091553" offset=".62"/>
   <stop stop-color="#081143" offset=".85"/>
   <stop stop-color="#060d34" offset="1"/>
  </linearGradient>
 </defs>
 <path d="m-75.609 299.53 141.73 63.08 141.73-63.1v-178.72l-141.73-63.1-141.73 63.1z" fill="url(#id1)"/>
 <path d="m-75.609 299.53 141.73 63.08 141.73-63.1v-178.72l-141.73-63.1-141.73 63.1z" fill="url(#id2)"/>
 <path d="m1.1808 320.96c11.12 4.39 22.14 9 33.21 13.5l31.78 13.3 31.78-13.31c11.07-4.5 22.09-9.12 33.21-13.5s22.22-8.81 33.37-13.13 22.35-8.52 33.63-12.51v-168.19l-132-58.77-131.98 58.77v168.19c11.28 4 22.45 8.26 33.63 12.52s22.24 8.66 33.37 13.13z" fill="url(#id3)"/>
 <g fill="#ffffff">
  <path d="m164.48 307.82c-11.15 4.32-22.29 8.66-33.37 13.13s-22.14 9-33.21 13.5l-31.78 13.31-31.78-13.3c-11.07-4.5-22.1-9.11-33.21-13.5-11.11-4.39-22.22-8.81-33.37-13.13s-22.34-8.52-33.58-12.52c10.71 5.34 21.54 10.4 32.37 15.49s21.71 10 32.62 14.89c10.91 4.89 21.85 9.68 32.78 14.52l32.93 14.18 1.29 0.55 1.29-0.55 32.93-14.17c10.93-4.84 21.9-9.56 32.78-14.51s21.77-9.87 32.62-14.89 21.65-10.16 32.36-15.5c-11.32 3.99-22.49 8.29-33.67 12.5z"/>
  <polygon transform="translate(-165.16 -43.64)" points="247.72 332.39 247.72 325.49 224.08 325.49 224.08 317.03 251.32 317.03 251.32 309.95 215.36 309.95 215.36 344.46 224.08 344.46 224.08 332.39"/>
  <polygon transform="translate(-165.16 -43.64)" points="268.9 344.46 277.61 344.46 277.61 332.39 301.25 332.39 301.25 325.49 277.61 325.49 277.61 317.03 304.86 317.03 304.86 309.95 268.9 309.95"/>
  <polygon transform="translate(-165.16 -43.64)" points="161.83 344.46 170.54 344.46 170.54 332.39 194.18 332.39 194.18 325.49 170.54 325.49 170.54 317.03 197.79 317.03 197.79 309.95 161.83 309.95"/>
 </g>
 <path d="m111.99 109.26c-5.11-4.3-12.91-2.42-15.32-7.53-2.29 2.55-3.36 5.65-1.75 8.33a7.43 7.43 0 0 1-6.32 0.4 7.46 7.46 0 0 0-0.67 8.07 7.73 7.73 0 0 1-6.18 1.48 5.7 5.7 0 0 0 5.24 4.17 3.65 3.65 0 0 1-2.55 3.09c1.88 3.63 8.07 4.57 12.23 3.09a5.84 5.84 0 0 1-1.21-3.9c0-5.8 4.89-9.62 11.65-9.62a30.69 30.69 0 0 1 5.55 0.54c0.42 0.06 0.74 0.12 1-0.54a6.22 6.22 0 0 0-1.67-7.58zm13.31 24.6c-2.69-0.54-7.8-0.81-8.6-4.3-2.29 6.86 1.88 14 8.06 14 3.5 0 5.24-2.29 5.24-5 0-2.28-1.75-4.17-4.7-4.7z" fill="#ff0000"/>
 <path d="m60.531 148.95a64.53 64.53 0 0 1 24.39 9c-2.54-19-17.12-34.31-40.19-34.31-9.88 0-20.15 2.38-28.73 8.38 21.07-6.28 37.93 1.59 44.53 16.93zm-9.17-7.7c-14.92-12.91-41.81-5.78-52.43 7.8-14.52 18.42-7.39 42.21 0.67 50.68-5.64-33.21 15.06-60.63 51.76-58.48zm58.21-15.86a2.12 2.12 0 0 0 2.15-2.15 2.1 2.1 0 0 0-2.15-2 2.07 2.07 0 0 0-2 2 2.1 2.1 0 0 0 2 2.15zm15.46 2.82c-8.47-1.88-10.08-5.78-5.65-13.71-2.42 2.69-6.45 7.12-4.84 10.89s9.28 2.95 10.49 2.82zm-2.69 52.4c6.66-1.06 11.77-6.7 11.77-13.24 0-4.26-1.93-11.78-7.06-15.93 3.35 9.98 1.47 22.06-4.71 29.17zm-19.89-39.25c2.72 6 5 15.17 5 21.79 0 27.05-22.34 36.16-35.05 56.34 14.66-11.22 36.25-21.06 44.18-39.61 5.19-12.21 1.13-30.03-14.14-38.5zm-79 51.89c-8.33 15.73-1.21 29.71 13.58 27.69-9.46-3.2-15.92-16.51-13.63-27.67zm57.19-6.9c-5.78-4.1-11.71-8.07-18.07-10.37-2.41 15-8.21 28.44-8.22 44.56 0 11 2.7 20.28 11 31.71a42.82 42.82 0 0 1-3-15.72c-0.04-19.29 11.5-32.7 18.23-50.15zm39.82-3a12.11 12.11 0 0 1-2.42-0.26 52.92 52.92 0 0 1-11.47 14.85 23.32 23.32 0 0 0 5.25 0.62c13.32 0 21.7-11.18 22.4-22.8-3.67 4.85-8.32 7.63-13.81 7.63zm-17.28-8.82c-12.26-9.57-27.74-23.47-50.83-23.47-28.17 0-44.17 20.17-44.17 43.55 0 13.58 6.62 24.23 9.68 27.29-7.78-24.15 8.49-50.63 33.67-50.63 16.11 0 28.81 12.36 41.44 20.45 4.51-5.11 8.21-10.53 10.21-17.19z" fill="#ffffff"/>
 <polygon transform="translate(-165.16 -43.64)" points="188.76 43.64 194.75 61.5 213.89 61.5 198.33 72.51 204.75 89.5 188.76 82.38 172.77 89.5 179.19 72.51 163.63 61.5 182.77 61.5" fill="#c19c57"/>
 <polygon transform="translate(-165.16 -43.64)" points="273.82 43.65 279.81 61.5 298.95 61.5 283.39 72.51 289.81 89.5 273.82 82.38 257.82 89.5 264.25 72.51 248.68 61.5 267.83 61.5" fill="#c19c57"/>
</svg>
