<svg xmlns="http://www.w3.org/2000/svg" xml:space="preserve" width="316" height="316" fill="none" viewBox="0 0 316 316"><g transform="translate(2 2.293)scale(.99363)"><circle cx="156.98" cy="156.98" r="156.98" fill="#a6caba"/><path fill="#004941" d="m248.71 242.22 9.458 8.743c-14.685 15.893-33.048 28.337-53.738 35.98l-4.459-12.085c18.765-6.935 35.42-18.222 48.738-32.638zm-92.279 40.39a125.7 125.7 0 0 1-34.065-4.674l-3.497 12.398c11.944 3.36 24.543 5.155 37.562 5.155 13.052 0 25.682-1.806 37.655-5.18l-3.497-12.4c-10.86 3.063-22.318 4.7-34.158 4.7zm-92.224-40.33-9.458 8.743c14.697 15.887 33.071 28.323 53.771 35.955l4.46-12.086c-18.775-6.922-35.441-18.201-48.772-32.611zm201.02.414c18.594-23.575 29.691-53.34 29.691-85.697 0-76.487-62.004-138.49-138.49-138.49s-138.49 62.004-138.49 138.49c0 32.385 11.115 62.173 29.739 85.758l10.114-7.975c-16.892-21.392-26.974-48.41-26.974-77.782 0-69.374 56.238-125.61 125.61-125.61 69.374 0 125.61 56.238 125.61 125.61 0 29.345-10.063 56.34-26.926 77.722zm-21.992-70.674v19.55l-83.318 48.104v-19.548l66.391-38.33-26.026-15.027-57.294 33.08v49.6l-16.928-9.774v-30.053l-26.026 15.026-16.935-9.778V99.12l16.934-9.777 26.027 15.026V74.316l16.928-9.774 33.857 19.547v19.548L142.988 84.09v30.053l33.857 19.548v19.547l-33.857-19.547v46.61l83.321-48.106-32.535-18.784V93.863l49.461 28.556v19.55l-26.024 15.025zm-117.18-48.104-26.033-15.03v96.217l26.033-15.029z"/></g></svg>