<?xml version="1.0" encoding="UTF-8" standalone="no"?>
<svg
   xmlns:dc="http://purl.org/dc/elements/1.1/"
   xmlns:cc="http://creativecommons.org/ns#"
   xmlns:rdf="http://www.w3.org/1999/02/22-rdf-syntax-ns#"
   xmlns:svg="http://www.w3.org/2000/svg"
   xmlns="http://www.w3.org/2000/svg"
   xmlns:sodipodi="http://sodipodi.sourceforge.net/DTD/sodipodi-0.dtd"
   xmlns:inkscape="http://www.inkscape.org/namespaces/inkscape"
   width="102.39375mm"
   height="68.257858mm"
   viewBox="0 0 102.39375 68.257858"
   version="1.1"
   id="svg58115"
   inkscape:version="1.0.1 (3bc2e813f5, 2020-09-07)"
   sodipodi:docname="Japanese FA logo.svg">
  <defs
     id="defs58109" />
  <sodipodi:namedview
     id="base"
     pagecolor="#ffffff"
     bordercolor="#666666"
     borderopacity="1.0"
     inkscape:pageopacity="0.0"
     inkscape:pageshadow="2"
     inkscape:zoom="0.35"
     inkscape:cx="605.92151"
     inkscape:cy="115.3754"
     inkscape:document-units="mm"
     inkscape:current-layer="layer1"
     inkscape:document-rotation="0"
     showgrid="false"
     inkscape:window-width="1267"
     inkscape:window-height="728"
     inkscape:window-x="52"
     inkscape:window-y="0"
     inkscape:window-maximized="0" />
  <metadata
     id="metadata58112">
    <rdf:RDF>
      <cc:Work
         rdf:about="">
        <dc:format>image/svg+xml</dc:format>
        <dc:type
           rdf:resource="http://purl.org/dc/dcmitype/StillImage" />
        <dc:title></dc:title>
      </cc:Work>
    </rdf:RDF>
  </metadata>
  <g
     inkscape:label="Layer 1"
     inkscape:groupmode="layer"
     id="layer1"
     transform="translate(-91.037435,-117.64026)">
    <path
       style="fill:#fabd00;fill-opacity:1;fill-rule:nonzero;stroke:none;stroke-width:3.6351"
       d="m 95.467729,122.07057 h 93.518921 v 59.38302 H 95.467729 Z"
       id="path23262"
       sodipodi:nodetypes="ccccc" />
    <path
       style="fill:#022366;fill-opacity:1;fill-rule:nonzero;stroke:none;stroke-width:3.6351"
       d="M 188.98665,181.45359 H 95.467729 v -59.38302 h 93.518921 z m -97.949215,4.44453 H 193.43118 V 117.64026 H 91.037435 Z m 0,0"
       id="path23264" />
    <path
       style="fill:#022366;fill-opacity:1;fill-rule:nonzero;stroke:none;stroke-width:3.6351"
       d="m 119.30894,129.44028 c 0.3692,0 0.69585,-0.24112 0.82362,-0.58219 l 0.93717,-2.61275 c 0.0289,-0.0824 -0.0289,-0.17002 -0.12797,-0.17002 H 111.144 c -0.36921,0 -0.68163,0.2978 -0.68163,0.66772 v 13.50383 c 0,0.18445 0.15631,0.34107 0.35519,0.34107 h 3.10973 c 0.18465,0 0.34066,-0.15662 0.34066,-0.34107 v -4.60064 c 0,-0.0721 0.0711,-0.12778 0.14209,-0.12778 h 2.71212 c 0.38343,0 0.70997,-0.24112 0.83784,-0.58219 l 0.8804,-2.45653 c 0.0288,-0.0824 -0.0422,-0.18445 -0.12798,-0.18445 h -4.30249 c -0.0711,0 -0.1421,-0.0515 -0.1421,-0.12777 v -2.59853 c 0,-0.0721 0.0711,-0.12777 0.1421,-0.12777 z m 0,0"
       id="path23266" />
    <path
       style="fill:#022366;fill-opacity:1;fill-rule:nonzero;stroke:none;stroke-width:3.6351"
       d="m 126.39458,131.32885 c 0.0288,-0.0515 0.11345,-0.0515 0.12798,0 l 1.30634,4.06101 c 0.0289,0.0515 -0.0144,0.12777 -0.0855,0.12777 h -2.55553 c -0.0711,0 -0.11345,-0.0721 -0.0855,-0.12777 z m 3.01035,8.95996 c 0.0711,0.17002 0.24133,0.29779 0.42598,0.29779 h 3.32271 c 0.17043,0 0.31222,-0.17002 0.25554,-0.3555 l -4.37347,-12.18334 c -0.0289,-0.0515 -0.0289,-0.12777 0,-0.19887 l 0.56797,-1.59036 c 0.0289,-0.10304 -0.0288,-0.18444 -0.12798,-0.18444 h -4.1747 c -0.3692,0 -0.69574,0.24112 -0.82362,0.56776 l -4.8563,13.58915 c -0.0711,0.18445 0.0567,0.3555 0.24132,0.3555 h 3.23751 c 0.18465,0 0.35519,-0.12777 0.41176,-0.29779 l 0.53963,-1.67558 c 0.0288,-0.0721 0.0999,-0.12777 0.17043,-0.12777 h 4.47291 c 0.0855,0 0.15631,0.0515 0.18465,0.12777 z m 0,0"
       id="path23268" />
    <path
       style="fill:#022366;fill-opacity:1;fill-rule:nonzero;stroke:none;stroke-width:3.6351"
       d="m 102.55337,126.07491 c -0.32644,0 -0.61063,0.19887 -0.72418,0.49667 l -0.9514,2.68374 c -0.0422,0.0824 0.0289,0.18445 0.11345,0.18445 h 2.11574 c 0.0711,0 0.12798,0.0515 0.12798,0.12777 v 5.83602 c 0,2.25777 -2.68373,1.90278 -4.345084,1.1076 -0.156316,-0.0721 -0.340556,0 -0.383422,0.15663 l -1.008168,2.81152 c -0.0711,0.15662 0,0.35549 0.156315,0.43999 1.107584,0.56776 2.541749,0.93665 3.990119,0.93665 1.50516,0 5.41007,-0.69553 5.41007,-5.28227 v -8.83219 c 0,-0.36889 -0.31222,-0.66771 -0.68162,-0.66771 z m 0,0"
       id="path23270" />
    <path
       style="fill:#d70a17;fill-opacity:1;fill-rule:nonzero;stroke:none;stroke-width:3.6351"
       d="m 136.20654,172.23798 c 0,4.38765 -3.56412,7.93767 -7.9518,7.93767 -4.37348,0 -7.9376,-3.55002 -7.9376,-7.93767 0,-4.38766 3.56412,-7.93758 7.9376,-7.93758 4.38768,0 7.9518,3.54992 7.9518,7.93758"
       id="path23272" />
    <path
       style="fill:#000000;fill-opacity:1;fill-rule:nonzero;stroke:none;stroke-width:3.6351"
       d="m 154.93592,126.67132 h -5.19709 c -0.11345,0 -0.21299,-0.0412 -0.2981,-0.0824 l -1.83177,-1.12172 c -0.0989,-0.0515 -0.22721,-0.0309 -0.26976,0.0721 l -0.34066,0.68214 c -0.0288,0.0721 -0.12757,0.11334 -0.21299,0.0721 l -2.28616,-1.33471 c -0.25555,-0.1422 -0.55375,-0.2133 -0.83784,-0.2133 -0.2981,0 -0.58219,0.0721 -0.83784,0.2133 l -6.12004,3.4647 c -0.51119,0.29779 -0.83784,0.83774 -0.83784,1.43415 v 14.59721 c 0,0.10304 0,0.2133 -0.0422,0.32665 l -1.53391,5.55234 c -0.0567,0.2133 -0.0422,0.45442 0.0711,0.66772 l 4.98407,9.96813 c 0.0422,0.0721 -0.0144,0.1422 -0.0855,0.1422 h -10.03913 c -0.11345,0 -0.2272,-0.0103 -0.32685,-0.0721 l -1.46236,-0.70997 c -0.15631,-0.0721 -0.32643,0.0412 -0.32643,0.2133 v 0.93769 c 0,0.10304 -0.0711,0.17002 -0.17044,0.17002 h -1.63296 c -0.5112,0 -0.97973,0.2844 -1.19275,0.75221 l -0.99395,2.059 c -0.0422,0.0721 -0.0144,0.15662 0.0567,0.19887 0.0711,0.0618 0.17043,0.0412 0.25555,-0.0103 1.39156,-0.8944 3.05291,-1.4058 4.82786,-1.4058 4.37351,0 8.00862,3.10972 8.8322,7.24183 0.0144,0.0824 0.0855,0.15662 0.17043,0.15662 0.1,0 0.17044,-0.0515 0.21299,-0.1422 l 0.83774,-1.66135 c 0.32644,-0.63887 0.21309,-1.42003 -0.26966,-1.95967 l -2.69795,-3.0245 c -0.0422,-0.0618 -0.0144,-0.12777 0.0567,-0.12777 h 1.57615 c 0.0989,0 0.19887,0.0412 0.26966,0.12777 l 2.04475,2.2862 c 0.11345,0.12778 0.32644,0.10305 0.41176,-0.0515 l 1.02239,-2.07311 c 0.0422,-0.0618 0.12798,-0.0618 0.15632,0 l 3.83393,7.6677 c 0.0567,0.10305 0.0567,0.19888 0,0.2978 l -2.34297,4.58653 c -0.0422,0.0824 -0.1421,0.15662 -0.24133,0.15662 h -1.61875 c -0.11345,0 -0.21299,-0.0309 -0.31222,-0.0824 L 138.72,175.93345 c -0.14209,-0.0721 -0.32674,0.0412 -0.32674,0.2133 v 0.93769 c 0,0.10304 -0.0711,0.17002 -0.15632,0.17002 h -1.40577 c -1.02239,0 -1.43417,0.1422 -1.70396,0.66771 l -0.96561,2.00222 c -0.0422,0.0721 -0.0144,0.15663 0.0567,0.19888 0.0711,0.0412 0.15632,0.0412 0.22721,0.0103 l 1.50541,-0.72439 c 0.0989,-0.0515 0.19887,-0.0721 0.31222,-0.0721 h 6.09165 c 0.21299,0 0.42598,-0.12777 0.51119,-0.32664 l 0.0288,-0.0515 c 0.0422,-0.0824 0.1421,-0.1422 0.24133,-0.1422 h 4.89896 c 0.0989,0 0.21299,0.0309 0.2981,0.0721 l 1.51938,0.72439 c 0.0711,0.0412 0.15631,0.0309 0.22721,-0.0309 0.0567,-0.0412 0.0711,-0.12777 0.0422,-0.19887 l -0.95139,-1.95966 c -0.26966,-0.52552 -0.72418,-0.69554 -1.59036,-0.69554 h -2.22934 c -0.0711,0 -0.11345,-0.0824 -0.0855,-0.15662 l 1.80329,-3.52148 c 0.0422,-0.10305 0.11345,-0.17002 0.21299,-0.2267 l 3.67772,-2.24354 c 0.12757,-0.0721 0.11345,-0.26998 -0.0289,-0.34107 l -2.91097,-1.40581 c -0.0711,-0.0309 -0.0711,-0.11335 -0.0144,-0.1422 l 2.22931,-1.12183 c 0.1421,-0.0721 0.1421,-0.25554 0.0144,-0.32664 l -1.98791,-1.07917 c -0.0422,-0.0309 -0.0289,-0.0824 0.0144,-0.0824 h 2.18678 c 0.0989,0 0.18465,0.0515 0.22721,0.1422 l 5.28225,10.35155 c 0.0422,0.0721 -0.0144,0.15663 -0.0855,0.15663 h -2.22937 c -0.85195,0 -1.30635,0.17002 -1.59036,0.69553 l -0.93718,1.95946 c -0.0422,0.0721 -0.0288,0.15662 0.0422,0.19887 0.0567,0.0515 0.1421,0.0721 0.21299,0.0309 l 1.51937,-0.72438 c 0.1,-0.0412 0.19887,-0.0721 0.31222,-0.0721 h 4.89889 c 0.0989,0 0.18465,0.0515 0.22721,0.14219 l 0.0289,0.0515 c 0.0989,0.19887 0.2981,0.32664 0.52542,0.32664 h 6.09165 c 0.0989,0 0.21298,0.0103 0.31221,0.0721 l 1.49095,0.72439 c 0.0711,0.0309 0.17043,0.0309 0.24132,-0.0103 0.0567,-0.0412 0.0845,-0.12778 0.0422,-0.19888 l -0.96561,-2.00211 c -0.25555,-0.52552 -0.68163,-0.66772 -1.70396,-0.66772 h -1.39155 c -0.0989,0 -0.17043,-0.0721 -0.17043,-0.17002 v -0.93666 c 0,-0.17105 -0.17044,-0.28439 -0.32686,-0.21329 l -1.46255,0.70996 c -0.0989,0.0618 -0.21299,0.0824 -0.31222,0.0824 h -1.63297 c -0.0989,0 -0.18465,-0.0515 -0.24132,-0.15662 l -2.0168,-3.96147 c -0.0422,-0.0824 -0.0289,-0.18445 0.0567,-0.24112 l 2.93935,-1.78913 c 0.1421,-0.0721 0.12757,-0.26997 -0.0144,-0.34107 l -2.92513,-1.40581 c -0.0567,-0.0309 -0.0567,-0.11335 0,-0.1422 l 2.22938,-1.12172 c 0.1421,-0.0721 0.1421,-0.25555 0.0144,-0.32665 l -2.00213,-1.07916 c -0.0289,-0.0309 -0.0289,-0.0824 0.0289,-0.0824 h 1.83177 c 0.0989,0 0.19887,0.0412 0.26966,0.12778 l 6.17687,6.91529 c 0.32644,0.34004 0.78096,0.55334 1.24956,0.55334 h 2.07314 c 0.11345,0 0.17043,-0.1422 0.0989,-0.2267 l -9.38592,-10.49344 c -0.0422,-0.0515 -0.0144,-0.12777 0.0422,-0.12777 h 1.80333 c 0.0999,0 0.19888,0.0412 0.26977,0.12777 l 9.08779,10.1669 c 0.32674,0.34107 0.78096,0.55334 1.24956,0.55334 h 2.07319 c 0.12756,0 0.18465,-0.1422 0.0989,-0.2267 l -12.28274,-13.74525 c -0.0422,-0.0412 0,-0.11335 0.0567,-0.11335 h 1.78917 c 0.11345,0 0.21298,0.0412 0.28388,0.11335 l 11.98453,13.41861 c 0.31222,0.34107 0.76674,0.55334 1.24956,0.55334 h 2.79733 c 0.11345,0 0.17043,-0.1422 0.0989,-0.2267 L 165.70934,157.378 c -0.0289,-0.0515 0,-0.12777 0.0567,-0.12777 h 6.50347 c 0.11345,0 0.17043,-0.1422 0.0989,-0.22772 l -3.70567,-4.14664 c -0.32644,-0.3555 -0.78096,-0.55334 -1.24956,-0.55334 h -5.76508 c -0.28388,0 -0.56797,-0.11335 -0.75262,-0.34107 l -0.99395,-1.12172 c -0.0567,-0.0412 -0.0144,-0.11335 0.0567,-0.11335 h 7.45482 c 0.46864,0 0.90873,-0.22772 1.19275,-0.61104 l 2.95357,-4.07533 c 0.0711,-0.11335 0,-0.24112 -0.11345,-0.24112 h -14.18545 c -0.0711,0 -0.12797,-0.0824 -0.0845,-0.1422 l 0.69574,-1.06495 c 0.1421,-0.24112 0.39754,-0.38332 0.68163,-0.38332 h 13.58907 c 0.46863,0 0.90873,-0.22669 1.19279,-0.61001 l 2.9677,-4.07533 c 0.0567,-0.10304 0,-0.24112 -0.12756,-0.24112 H 161.436 c -0.0711,0 -0.11345,-0.0721 -0.0711,-0.12777 l 0.68162,-1.06505 c 0.1421,-0.24112 0.41176,-0.38332 0.68163,-0.38332 H 176.871 c 0.46864,0 0.92295,-0.22669 1.19278,-0.61104 l 2.96771,-4.07533 c 0.0711,-0.10305 0,-0.24112 -0.12757,-0.24112 h -15.29303 c -0.0711,0 -0.11345,-0.0824 -0.0711,-0.1422 l 0.68163,-1.06505 c 0.15631,-0.22773 0.41186,-0.36889 0.69584,-0.36889 h 14.68244 c 0.46864,0 0.92296,-0.22773 1.19279,-0.61105 l 4.08951,-5.60891 c 0.0721,-0.11335 0,-0.24112 -0.12778,-0.24112 h -20.04985 c -2.61274,0 -5.04089,1.32059 -6.46087,3.52148 l -8.0086,12.48154 c -0.2981,0.45442 -0.95139,0.51109 -1.30638,0.11335 l -3.60668,-4.03267 c -0.8093,-0.90884 -0.53943,-2.32887 0.53973,-2.8685 l 10.57875,-5.23961 c 0.0855,-0.0412 0.11345,-0.12778 0.0855,-0.19888 -0.46864,-0.87998 -1.9312,-1.8459 -3.59256,-1.8459"
       id="path23274" />
    <path
       style="fill:#ffffff;fill-opacity:1;fill-rule:nonzero;stroke:none;stroke-width:3.6351"
       d="m 151.0168,128.29002 c -0.0144,-0.0412 -0.0567,-0.0721 -0.11345,-0.0721 l -3.30853,0.51109 c -0.0422,0.0103 -0.0711,0.0515 -0.0567,0.11335 0.0711,0.22669 0.0989,0.45441 0.0989,0.70996 0,0.0515 0,0.10304 0,0.15662 0,0.0412 0.0289,0.0824 0.0711,0.0721 l 3.25172,-1.36315 c 0.0422,-0.0309 0.0711,-0.0721 0.0567,-0.12777"
       id="path23276" />
    <path
       style="fill:#ffffff;fill-opacity:1;fill-rule:nonzero;stroke:none;stroke-width:3.6351"
       d="m 146.37352,129.55383 c 0,0.72439 -0.59641,1.3206 -1.32056,1.3206 -0.72418,0 -1.3206,-0.59662 -1.3206,-1.3206 0,-0.72438 0.59641,-1.32059 1.3206,-1.32059 0.72418,0 1.32056,0.59662 1.32056,1.32059"
       id="path23278" />
    <path
       style="fill:#000000;fill-opacity:1;fill-rule:nonzero;stroke:none;stroke-width:3.6351"
       d="m 145.72033,129.55383 c 0,0.3689 -0.2981,0.66772 -0.66741,0.66772 -0.3692,0 -0.66741,-0.29779 -0.66741,-0.66772 0,-0.36889 0.29811,-0.66771 0.66741,-0.66771 0.3692,0 0.66741,0.29779 0.66741,0.66771"
       id="path23280" />
  </g>
</svg>
