<?xml version="1.0" encoding="UTF-8" standalone="no"?>
<svg
   clip-rule="evenodd"
   fill-rule="evenodd"
   height="211.52298"
   image-rendering="optimizeQuality"
   shape-rendering="geometricPrecision"
   text-rendering="geometricPrecision"
   viewBox="0 0 905.68137 1204.0099"
   width="159.112"
   version="1.1"
   id="svg217"
   sodipodi:docname="Fepafut_logo_2024.svg"
   inkscape:version="1.3.2 (091e20e, 2023-11-25, custom)"
   xmlns:inkscape="http://www.inkscape.org/namespaces/inkscape"
   xmlns:sodipodi="http://sodipodi.sourceforge.net/DTD/sodipodi-0.dtd"
   xmlns="http://www.w3.org/2000/svg"
   xmlns:svg="http://www.w3.org/2000/svg">
  <defs
     id="defs217" />
  <sodipodi:namedview
     id="namedview217"
     pagecolor="#ffffff"
     bordercolor="#666666"
     borderopacity="1.0"
     inkscape:showpageshadow="2"
     inkscape:pageopacity="0.0"
     inkscape:pagecheckerboard="0"
     inkscape:deskcolor="#d1d1d1"
     inkscape:zoom="2.5922771"
     inkscape:cx="79.659694"
     inkscape:cy="105.89146"
     inkscape:window-width="1920"
     inkscape:window-height="1017"
     inkscape:window-x="-8"
     inkscape:window-y="-8"
     inkscape:window-maximized="1"
     inkscape:current-layer="svg217" />
  <g
     id="g217"
     transform="translate(-746.5,-72.49009)">
    <path
       d="m 1630.5,977.5 c -10.14,23.95 -22.14,46.95 -36,69 -0.82,0.89 -1.82,1.22 -3,1 0.14,1.76 -0.19,3.43 -1,5 -25.42,35.76 -56.09,66.09 -92,91 -19.71,12.85 -39.71,25.18 -60,37 -61.13,33.22 -124.8,61.06 -191,83.5 -15.12,5.85 -30.79,9.35 -47,10.5 -13.31,-1 -26.31,-3.5 -39,-7.5 -36.71,-12.62 -73.04,-26.12 -109,-40.5 -9.19,-4.98 -18.53,-9.98 -28,-15 -7.63,-3.21 -15.3,-6.21 -23,-9 -20.661,-12.23 -41.661,-23.89 -63,-35 -3.086,-2.72 -6.42,-5.22 -10,-7.5 -9.224,-5.78 -18.557,-11.28 -28,-16.5 -79.246,-55.8 -128.079,-131.47 -146.5,-227 -2.125,-12.582 -3.458,-25.248 -4,-38 -0.167,-107.501 -0.667,-214.834 -1.5,-322 1.289,-137.436 1.289,-274.769 0,-412 0.318,-13.004 0.818,-26.004 1.5,-39 2.212,-12.4778 8.379,-22.1445 18.5,-29 1.982,-0.4954 3.982,-0.9954 6,-1.5 284,-0.6667 568,-0.6667 852,0 12.53,5.5389 20.36,15.0389 23.5,28.5 0.67,260 0.67,520 0,780 -1.24,14.437 -3.24,28.77 -6,43 -4.11,17.469 -8.61,34.469 -13.5,51 z"
       fill="#cf9d70"
       id="path1" />
    <path
       d="m 787.5,97.5 c 275,-1.3333 550,-1.3333 825,0 -4.94,0.2601 -9.94,0.5934 -15,1 -269.83,-0.9998 -539.83,-1.3331 -810,-1 z"
       fill="#c8b198"
       id="path2" />
    <path
       d="m 787.5,97.5 c 270.17,-0.3331 540.17,2e-4 810,1 -2.59,1.4698 -5.43,2.136 -8.5,2 -18.25,-0.491 -36.25,-0.8239 -54,-1 -2,0.667 -4,1.333 -6,2 -11.84,-0.554 -24.18,-1.221 -37,-2 -12,0 -24,0 -36,0 -5.59,1.921 -11.25,1.921 -17,0 -9.55,1.199 -18.88,1.199 -28,0 -4.51,1.948 -9.18,1.948 -14,0 -7,1.333 -14,1.333 -21,0 -2,0.667 -4,1.333 -6,2 -2,-0.667 -4,-1.333 -6,-2 -9.57,1.122 -19.57,1.122 -30,0 -2,0.667 -4,1.333 -6,2 -2.85,-0.241 -5.85,-0.907 -9,-2 -7,1.333 -14,1.333 -21,0 -4.23,2.203 -8.56,2.203 -13,0 -11.57,0.523 -23.57,1.19 -36,2 -3.33,-0.667 -6.67,-1.333 -10,-2 -13,1.333 -26,1.333 -39,0 -9.67,0.667 -19.33,1.333 -29,2 -1.78,-0.979 -3.45,-0.646 -5,1 -1.33,-2.6667 -2.67,-2.6667 -4,0 -0.85,-1.625 -1.85,-1.958 -3,-1 -3,-0.667 -6,-1.333 -9,-2 -11.77,0.4601 -23.44,0.4601 -35,0 -7.33,0.667 -14.67,1.333 -22,2 -1.15,-0.958 -2.15,-0.625 -3,1 -0.67,-0.667 -1.33,-1.333 -2,-2 -1.57,-0.5606 -2.9,0.106 -4,2 -0.67,-0.667 -1.33,-1.333 -2,-2 -1.27,0.116 -2.6,0.449 -4,1 -3,-0.667 -6,-1.333 -9,-2 -18.78,1.022 -38.11,1.022 -58,0 -2.33,0.667 -4.67,1.333 -7,2 -3.74,-0.505 -7.739,-1.172 -12,-2 -19.771,0.4585 -40.104,0.4585 -61,0 -2,0.667 -4,1.333 -6,2 -5.234,0.325 -10.568,-0.341 -16,-2 -18.63,1.037 -37.297,1.037 -56,0 -2,0.667 -4,1.333 -6,2 -1.147,-0.958 -2.147,-0.625 -3,1 -1.333,-2.6667 -2.667,-2.6667 -4,0 -0.667,-0.667 -1.333,-1.333 -2,-2 -3.061,0.962 -6.394,0.629 -10,-1 -13.101,0.768 -25.934,0.768 -38.5,0 -0.667,0.667 -1.333,1.333 -2,2 -2.487,-0.282 -5.153,-0.282 -8,0 1.815,-2.9074 4.481,-4.2407 8,-4 z"
       fill="#f8f2ed"
       id="path3" />
    <path
       d="m 1612.5,97.5 c 1.76,-0.1427 3.43,0.1906 5,1 3.06,2.449 5.39,5.449 7,9 0.33,69.571 0,139.071 -1,208.5 -282.67,0.5 -565.33,0.667 -848,0.5 -0.327,-70.708 0.007,-141.375 1,-212 1.228,-0.806 2.228,-1.806 3,-3 2.847,-0.282 5.513,-0.282 8,0 0.667,-0.667 1.333,-1.333 2,-2 12.566,0.768 25.399,0.768 38.5,0 3.606,1.629 6.939,1.962 10,1 0.667,0.667 1.333,1.333 2,2 1.333,-2.6667 2.667,-2.6667 4,0 0.853,-1.625 1.853,-1.958 3,-1 2,-0.667 4,-1.333 6,-2 18.703,1.037 37.37,1.037 56,0 5.432,1.659 10.766,2.325 16,2 2,-0.667 4,-1.333 6,-2 20.896,0.4585 41.229,0.4585 61,0 4.261,0.828 8.26,1.495 12,2 2.33,-0.667 4.67,-1.333 7,-2 19.89,1.022 39.22,1.022 58,0 3,0.667 6,1.333 9,2 1.4,-0.551 2.73,-0.884 4,-1 0.67,0.667 1.33,1.333 2,2 1.1,-1.894 2.43,-2.5606 4,-2 0.67,0.667 1.33,1.333 2,2 0.85,-1.625 1.85,-1.958 3,-1 7.33,-0.667 14.67,-1.333 22,-2 11.56,0.4601 23.23,0.4601 35,0 3,0.667 6,1.333 9,2 1.15,-0.958 2.15,-0.625 3,1 1.33,-2.6667 2.67,-2.6667 4,0 1.55,-1.646 3.22,-1.979 5,-1 9.67,-0.667 19.33,-1.333 29,-2 13,1.333 26,1.333 39,0 3.33,0.667 6.67,1.333 10,2 12.43,-0.81 24.43,-1.477 36,-2 4.44,2.203 8.77,2.203 13,0 7,1.333 14,1.333 21,0 3.15,1.093 6.15,1.759 9,2 2,-0.667 4,-1.333 6,-2 10.43,1.122 20.43,1.122 30,0 2,0.667 4,1.333 6,2 2,-0.667 4,-1.333 6,-2 7,1.333 14,1.333 21,0 4.82,1.948 9.49,1.948 14,0 9.12,1.199 18.45,1.199 28,0 5.75,1.921 11.41,1.921 17,0 h 36 c 12.82,0.779 25.16,1.446 37,2 2,-0.667 4,-1.333 6,-2 17.75,0.1761 35.75,0.509 54,1 3.07,0.136 5.91,-0.5302 8.5,-2 5.06,-0.4066 10.06,-0.7399 15,-1 z"
       fill="#f9f9f8"
       id="path4" />
    <path
       d="m 774.5,117.5 v 199 c -1.052,0.149 -2.052,-0.017 -3,-0.5 0.88,-1.833 1.547,-4.166 2,-7 -0.777,-63.221 -1.111,-126.221 -1,-189 0.566,-0.995 1.233,-1.828 2,-2.5 z"
       fill="#c79f7b"
       opacity="0.996"
       id="path5" />
    <path
       d="m 769.5,74.5 c -0.333,0.6667 -0.667,1.3333 -1,2 -10.121,6.8555 -16.288,16.5222 -18.5,29 -0.682,12.996 -1.182,25.996 -1.5,39 v 206 c -0.67,-68.873 -1.337,-137.873 -2,-207 0.676,-10.798 1.176,-22.132 1.5,-34 0.597,-15.8881 7.764,-27.5548 21.5,-35 z"
       fill="#dfc5b4"
       opacity="0.212"
       id="path6" />
    <path
       d="m 776.5,104.5 c -0.993,70.625 -1.327,141.292 -1,212 282.67,0.167 565.33,0 848,-0.5 1,-69.429 1.33,-138.929 1,-208.5 1,69.831 1.33,139.831 1,210 -283.83,0.333 -567.5,0 -851,-1 0,-66.333 0,-132.667 0,-199 -0.166,-4.014 10e-4,-8.014 0.5,-12 0.383,-0.556 0.883,-0.889 1.5,-1 z"
       fill="#dcc3b0"
       id="path7" />
    <path
       d="m 1527.5,259.5 c 10.08,1.938 20.41,2.605 31,2 -10.15,0.994 -20.49,1.328 -31,1 0,-1 0,-2 0,-3 z"
       fill="#adb4bf"
       id="path8" />
    <path
       d="m 1447.5,259.5 c 9.28,1.973 18.94,2.64 29,2 -9.82,0.994 -19.82,1.327 -30,1 -0.24,-1.291 0.1,-2.291 1,-3 z"
       fill="#a9afbb"
       id="path9" />
    <path
       d="m 1408.5,254.5 c 0.97,2.107 1.3,4.441 1,7 h 27 c 0,-1.667 0,-3.333 0,-5 0.81,1.497 1.47,3.164 2,5 -9.36,0.691 -18.7,1.358 -28,2 -0.59,-0.209 -1.09,-0.543 -1.5,-1 -0.5,-2.646 -0.66,-5.313 -0.5,-8 z"
       fill="#aab0bb"
       id="path10" />
    <path
       d="m 1356.5,259.5 c 7.06,1.91 14.39,2.576 22,2 -7.07,0.682 -14.23,1.349 -21.5,2 -0.49,-1.293 -0.66,-2.627 -0.5,-4 z"
       fill="#afb5c0"
       id="path11" />
    <path
       d="m 1255.5,257.5 c 0.89,0.761 1.56,1.761 2,3 9.98,0.999 19.98,1.332 30,1 -10.16,1.159 -20.49,1.325 -31,0.5 -0.88,-1.356 -1.21,-2.856 -1,-4.5 z"
       fill="#adb3be"
       id="path12" />
    <path
       d="m 1177.5,256.5 c -0.54,1.617 -0.87,3.284 -1,5 9.69,0.332 19.36,-0.002 29,-1 0.49,-1.526 1.16,-2.859 2,-4 0.14,1.762 -0.19,3.429 -1,5 -10.31,0.999 -20.65,1.332 -31,1 -0.45,-2.51 0.22,-4.51 2,-6 z"
       fill="#aab1bc"
       id="path13" />
    <path
       d="m 1034.5,259.5 c 0.9,0.709 1.24,1.709 1,3 -10.18,0.327 -20.18,-0.006 -30,-1 10.06,0.64 19.72,-0.027 29,-2 z"
       fill="#a9b0bb"
       id="path14" />
    <path
       d="m 923.5,259.5 c 4.619,1.328 9.619,1.994 15,2 5.579,-0.051 10.912,-0.718 16,-2 v 3 c -10.667,0 -21.333,0 -32,0 -0.237,-1.291 0.096,-2.291 1,-3 z"
       fill="#abb1bd"
       id="path15" />
    <path
       d="m 1452.5,245.5 c -0.63,2.897 -1.63,5.564 -3,8 -0.15,-3.216 0.85,-5.883 3,-8 z"
       fill="#969daa"
       id="path16" />
    <path
       d="m 1305.5,220.5 c 0.05,8.036 -1.28,15.702 -4,23 0.81,-7.885 2.15,-15.551 4,-23 z"
       fill="#5c6475"
       id="path17" />
    <path
       d="m 1020.5,221.5 c 2.15,2.117 3.15,4.784 3,8 -1.37,-2.436 -2.37,-5.103 -3,-8 z"
       fill="#9198a5"
       id="path18" />
    <path
       d="m 1190.5,220.5 c -0.63,2.897 -1.63,5.564 -3,8 -0.15,-3.216 0.85,-5.883 3,-8 z"
       fill="#9399a6"
       id="path19" />
    <path
       d="m 1428.5,211.5 c 1.16,2.773 1.82,5.773 2,9 -1.62,-2.671 -2.28,-5.671 -2,-9 z"
       fill="#7b8290"
       id="path20" />
    <path
       d="m 1307.5,209.5 c 0.08,3.281 -0.59,6.281 -2,9 -0.08,-3.281 0.59,-6.281 2,-9 z"
       fill="#9097a4"
       id="path21" />
    <path
       d="m 1422.5,179.5 c 1.54,2.338 2.21,5.005 2,8 -1.27,-2.405 -1.93,-5.072 -2,-8 z"
       fill="#767d8c"
       id="path22" />
    <path
       d="m 924.5,175.5 c 0.768,0.763 1.268,1.763 1.5,3 0.82,6.514 0.653,12.847 -0.5,19 0.183,-7.368 -0.15,-14.701 -1,-22 z"
       fill="#a3a9b5"
       id="path23" />
    <path
       d="m 1316.5,159.5 c -0.07,2.928 -0.73,5.595 -2,8 -0.21,-2.995 0.46,-5.662 2,-8 z"
       fill="#8e94a2"
       id="path24" />
    <path
       d="m 962.5,152.5 c 11.414,-0.311 22.748,0.023 34,1 2.177,7.036 4.51,14.036 7,21 -1,0.086 -1.83,-0.248 -2.5,-1 -2.72,-6.006 -4.887,-11.84 -6.5,-17.5 -2.179,-1.987 -4.012,-1.82 -5.5,0.5 -0.5,-1.167 -1.333,-2 -2.5,-2.5 -3,-0.167 -6,-0.333 -9,-0.5 -3.439,0.054 -6.606,0.72 -9.5,2 -2.33,-0.656 -3.997,0.344 -5,3 -2.692,6.53 -5.192,13.03 -7.5,19.5 0.333,0.333 0.667,0.667 1,1 -0.948,0.483 -1.948,0.649 -3,0.5 2.842,-9.029 5.842,-18.029 9,-27 z"
       fill="#232b42"
       id="path25" />
    <path
       d="m 1558.5,261.5 c -10.59,0.605 -20.92,-0.062 -31,-2 -0.57,-4.037 -1.9,-7.703 -4,-11 -6.63,-1.33 -13.63,-1.997 -21,-2 -7.37,0.003 -14.37,0.67 -21,2 -1.21,4.5 -2.88,8.833 -5,13 -10.06,0.64 -19.72,-0.027 -29,-2 0.67,-2 1.33,-4 2,-6 1.37,-2.436 2.37,-5.103 3,-8 10.59,-30.899 21.92,-61.565 34,-92 11,-1.333 22,-1.333 33,0 12.7,36.139 25.7,72.139 39,108 z"
       fill="#172444"
       id="path26" />
    <path
       d="m 1523.5,248.5 c -14,-1.333 -28,-1.333 -42,0 6.63,-1.33 13.63,-1.997 21,-2 7.37,0.003 14.37,0.67 21,2 z"
       fill="#c1c6d1"
       id="path27" />
    <path
       d="m 1501.5,191.5 c 1.79,2.292 3.29,4.959 4.5,8 3.12,8.267 5.95,16.601 8.5,25 -8,0 -16,0 -24,0 3.5,-10.984 7.17,-21.984 11,-33 z"
       fill="#ecedef"
       id="path28" />
    <path
       d="m 1349.5,164.5 c 0.77,3.649 2.1,6.982 4,10 4.2,11.274 8.2,22.607 12,34 0,2.342 0.84,4.342 2.5,6 1.04,-0.744 1.54,-1.744 1.5,-3 -0.1,-2.053 0.57,-3.72 2,-5 0.88,0.131 1.54,-0.202 2,-1 5.55,-16.108 11.39,-32.108 17.5,-48 0.49,-1.634 0.66,-3.301 0.5,-5 8.67,-0.166 17.34,0 26,0.5 0.6,1.622 1.27,3.122 2,4.5 0.87,7.344 1.87,14.678 3,22 0.07,2.928 0.73,5.595 2,8 1.71,7.901 3.05,15.901 4,24 -0.28,3.329 0.38,6.329 2,9 1.68,12.146 3.68,24.146 6,36 v 5 c -9,0 -18,0 -27,0 0.3,-2.559 -0.03,-4.893 -1,-7 -1.68,-11.752 -3.68,-23.419 -6,-35 -0.19,-5.526 -1.19,-10.859 -3,-16 -1.06,1.522 -1.73,3.188 -2,5 -5.74,17.902 -12.08,35.569 -19,53 -7.61,0.576 -14.94,-0.09 -22,-2 -0.57,-4.037 -1.9,-7.703 -4,-11 0.48,-3.331 -0.52,-5.997 -3,-8 -3.65,-12.365 -8.15,-24.365 -13.5,-36 -1.25,4.593 -2.08,9.259 -2.5,14 -1.54,2.338 -2.21,5.005 -2,8 v 6 c -2.46,6.312 -3.8,12.979 -4,20 -0.82,2.961 -1.49,5.961 -2,9 -9.02,0.332 -18.02,-0.002 -27,-1 1.16,-5.637 2.16,-11.304 3,-17 2.72,-7.298 4.05,-14.964 4,-23 0,-0.667 0,-1.333 0,-2 1.41,-2.719 2.08,-5.719 2,-9 2.88,-13.844 5.22,-27.844 7,-42 1.27,-2.405 1.93,-5.072 2,-8 0.72,-2.264 1.05,-4.597 1,-7 9.34,-0.166 18.67,0 28,0.5 1.64,3.739 2.97,7.573 4,11.5 z"
       fill="#162344"
       id="path29" />
    <path
       d="m 1349.5,240.5 c 2.48,2.003 3.48,4.669 3,8 -1.37,-2.436 -2.37,-5.103 -3,-8 z"
       fill="#7a818f"
       id="path30" />
    <path
       d="m 1331.5,232.5 c -0.88,6.88 -2.21,13.547 -4,20 0.2,-7.021 1.54,-13.688 4,-20 z"
       fill="#979eab"
       id="path31" />
    <path
       d="m 1333.5,218.5 c -0.07,2.928 -0.73,5.595 -2,8 -0.21,-2.995 0.46,-5.662 2,-8 z"
       fill="#636b7b"
       id="path32" />
    <path
       d="m 1365.5,208.5 c 1.06,1.1 1.89,2.434 2.5,4 0.38,-0.556 0.88,-0.889 1.5,-1 0.04,1.256 -0.46,2.256 -1.5,3 -1.66,-1.658 -2.5,-3.658 -2.5,-6 z"
       fill="#78808e"
       id="path33" />
    <path
       d="m 1402.5,219.5 c -1.84,-3.667 -3.01,-7.667 -3.5,-12 -0.38,0.556 -0.88,0.889 -1.5,1 0.27,-1.812 0.94,-3.478 2,-5 1.81,5.141 2.81,10.474 3,16 z"
       fill="#b3b9c4"
       id="path34" />
    <path
       d="m 1391.5,152.5 c 0.16,1.699 -0.01,3.366 -0.5,5 -6.11,15.892 -11.95,31.892 -17.5,48 -0.46,0.798 -1.12,1.131 -2,1 5.37,-16.187 11.04,-32.187 17,-48 z"
       fill="#232c43"
       id="path35" />
    <path
       d="m 1349.5,164.5 c 2.4,2.809 3.73,6.142 4,10 -1.9,-3.018 -3.23,-6.351 -4,-10 z"
       fill="#979daa"
       id="path36" />
    <path
       d="m 1287.5,261.5 c -10.02,0.332 -20.02,-10e-4 -30,-1 -0.44,-1.239 -1.11,-2.239 -2,-3 0,-0.333 0,-0.667 0,-1 -0.1,-3.136 -1.1,-5.802 -3,-8 0,-0.333 0,-0.667 0,-1 -6.63,-1.33 -13.63,-1.997 -21,-2 -7.17,0 -14.17,0.334 -21,1 v 2 c -0.46,2.906 -1.46,5.572 -3,8 -0.84,1.141 -1.51,2.474 -2,4 -9.64,0.998 -19.31,1.332 -29,1 0.13,-1.716 0.46,-3.383 1,-5 2.74,-9.494 6.07,-18.828 10,-28 1.37,-2.436 2.37,-5.103 3,-8 8.32,-22.621 16.32,-45.288 24,-68 11.35,-0.332 22.69,0.001 34,1 12.61,36.176 25.61,72.176 39,108 z"
       fill="#162344"
       id="path37" />
    <path
       d="m 1252.5,248.5 c 1.9,2.198 2.9,4.864 3,8 -1.6,-2.348 -2.6,-5.014 -3,-8 z"
       fill="#757c8b"
       id="path38" />
    <path
       d="m 1210.5,246.5 c 13.84,-0.329 27.51,0.004 41,1 -13.75,-0.315 -27.41,0.019 -41,1 0,-0.667 0,-1.333 0,-2 z"
       fill="#c3c8d2"
       id="path39" />
    <path
       d="m 1210.5,246.5 c 6.83,-0.666 13.83,-1 21,-1 7.37,0.003 14.37,0.67 21,2 -0.33,0 -0.67,0 -1,0 -13.49,-0.996 -27.16,-1.329 -41,-1 z"
       fill="#474f60"
       id="path40" />
    <path
       d="m 1230.5,191.5 c 1.78,1.074 2.95,2.74 3.5,5 3.49,9.29 6.65,18.623 9.5,28 -8,0 -16,0 -24,0 3.86,-10.908 7.53,-21.908 11,-33 z"
       fill="#edeff0"
       id="path41" />
    <path
       d="m 1132.5,152.5 h 1 c 7.82,0.992 15.82,1.326 24,1 -0.33,35.837 0,71.504 1,107 -9.16,1.158 -18.49,1.324 -28,0.5 -16.86,-21.687 -33.86,-43.187 -51,-64.5 -0.06,-0.543 -0.39,-0.876 -1,-1 -1,21.99 -1.33,43.99 -1,66 -8.67,0 -17.33,0 -26,0 0,-36 0,-72 0,-108 h 28 c 0.79,4.553 3.29,7.887 7.5,10 1.31,4.802 4.15,8.135 8.5,10 11.71,13.71 23.05,27.71 34,42 v 1 c 0.71,0.904 1.71,1.237 3,1 0,-21.667 0,-43.333 0,-65 z"
       fill="#152344"
       id="path42" />
    <path
       d="m 1079.5,196.5 c -0.67,21.667 -1.33,43.333 -2,65 -0.33,-22.01 0,-44.01 1,-66 0.61,0.124 0.94,0.457 1,1 z"
       fill="#9aa1ad"
       id="path43" />
    <path
       d="m 1079.5,152.5 c -9.67,0 -19.33,0 -29,0 v 109 c -1,-36.163 -1.33,-72.496 -1,-109 10,-1.333 20,-1.333 30,0 z"
       fill="#9ba2ae"
       id="path44" />
    <path
       d="m 1003.5,174.5 c 5.86,15.577 11.53,31.244 17,47 0.63,2.897 1.63,5.564 3,8 4.05,9.808 7.72,19.808 11,30 -9.28,1.973 -18.94,2.64 -29,2 -2.03,-4.429 -3.7,-9.096 -5,-14 -6.633,-1.33 -13.633,-1.997 -21,-2 -7.175,0 -14.175,0.334 -21,1 -1.734,4.201 -3.067,8.535 -4,13 -5.088,1.282 -10.421,1.949 -16,2 -5.381,-0.006 -10.381,-0.672 -15,-2 10.147,-26.421 20.147,-53.087 30,-80 1.052,0.149 2.052,-0.017 3,-0.5 -0.333,-0.333 -0.667,-0.667 -1,-1 2.308,-6.47 4.808,-12.97 7.5,-19.5 1.003,-2.656 2.67,-3.656 5,-3 2.894,-1.28 6.061,-1.946 9.5,-2 3,0.167 6,0.333 9,0.5 1.167,0.5 2,1.333 2.5,2.5 1.488,-2.32 3.321,-2.487 5.5,-0.5 1.613,5.66 3.78,11.494 6.5,17.5 0.67,0.752 1.5,1.086 2.5,1 z"
       fill="#162344"
       id="path45" />
    <path
       d="m 958.5,246.5 c 6.825,-0.666 13.825,-1 21,-1 7.367,0.003 14.367,0.67 21,2 -13.921,-0.982 -27.921,-1.315 -42,-1 z"
       fill="#474f60"
       id="path46" />
    <path
       d="m 978.5,192.5 c 1.636,1.249 2.803,2.916 3.5,5 3.181,9.022 6.348,18.022 9.5,27 -8.028,0.331 -16.028,-0.002 -24,-1 3.393,-10.448 7.06,-20.781 11,-31 z"
       fill="#edeef1"
       id="path47" />
    <path
       d="m 899.5,153.5 c 5.039,0.187 9.372,2.02 13,5.5 2.833,2.833 5.667,5.667 8.5,8.5 0.875,2.901 2.042,5.568 3.5,8 0.85,7.299 1.183,14.632 1,22 -3,15.33 -12,24.664 -27,28 -9.916,0.319 -19.75,-0.014 -29.5,-1 -0.273,1.601 -0.773,3.101 -1.5,4.5 0.694,10.572 0.861,21.072 0.5,31.5 -7.296,-1.261 -14.796,-1.261 -22.5,0 -0.333,-35.006 0,-70.006 1,-105 0.808,-0.308 1.475,-0.808 2,-1.5 16.997,-0.5 33.997,-0.667 51,-0.5 z"
       fill="#152344"
       id="path48" />
    <path
       d="m 891.5,201.5 c -0.622,1.127 -1.455,2.127 -2.5,3 -5.933,-0.648 -11.766,-1.314 -17.5,-2 6.724,0.256 13.391,-0.077 20,-1 z"
       fill="#5b6374"
       id="path49" />
    <path
       d="m 891.5,201.5 c -6.609,0.923 -13.276,1.256 -20,1 -0.993,-8.818 -1.327,-17.818 -1,-27 6.342,-0.166 12.675,0 19,0.5 8.974,4.298 11.474,11.132 7.5,20.5 -1.704,1.873 -3.537,3.54 -5.5,5 z"
       fill="#f1f2f3"
       id="path50" />
    <path
       d="m 896.5,152.5 c -17.667,0 -35.333,0 -53,0 v 109 c -0.998,-36.496 -1.332,-73.163 -1,-110 18.174,-0.33 36.174,0.003 54,1 z"
       fill="#b2b8c3"
       id="path51" />
    <path
       d="m 1133.5,152.5 h 25 v 108 c -1,-35.496 -1.33,-71.163 -1,-107 -8.18,0.326 -16.18,-0.008 -24,-1 z"
       fill="#2d374a"
       id="path52" />
    <path
       d="m 1132.5,152.5 v 65 c -1.29,0.237 -2.29,-0.096 -3,-1 1.66,-21.147 2.66,-42.48 3,-64 z"
       fill="#2e384b"
       id="path53" />
    <path
       d="m 1158.5,152.5 c -8.33,0 -16.67,0 -25,0 -0.33,0 -0.67,0 -1,0 -0.34,21.52 -1.34,42.853 -3,64 0,-0.333 0,-0.667 0,-1 1,-21.16 1.33,-42.493 1,-64 9.51,-0.327 18.85,0.006 28,1 z"
       fill="#afb5c0"
       id="path54" />
    <path
       d="m 1079.5,152.5 c 6.06,6.452 11.39,13.452 16,21 -4.35,-1.865 -7.19,-5.198 -8.5,-10 -4.21,-2.113 -6.71,-5.447 -7.5,-10 -9.33,0 -18.67,0 -28,0 v 108 c -0.33,0 -0.67,0 -1,0 0,-36.333 0,-72.667 0,-109 z"
       fill="#2b3549"
       id="path55" />
    <path
       d="m 1049.5,152.5 c -0.33,36.504 0,72.837 1,109 h 1 26 c -9.49,0.994 -19.15,1.327 -29,1 -0.33,-36.837 0,-73.504 1,-110 z"
       fill="#e0e5eb"
       id="path56" />
    <path
       d="m 896.5,152.5 c 1.291,-0.237 2.291,0.096 3,1 -17.003,-0.167 -34.003,0 -51,0.5 -0.525,0.692 -1.192,1.192 -2,1.5 -1,34.994 -1.333,69.994 -1,105 7.704,-1.261 15.204,-1.261 22.5,0 0.361,-10.428 0.194,-20.928 -0.5,-31.5 0.727,-1.399 1.227,-2.899 1.5,-4.5 9.75,0.986 19.584,1.319 29.5,1 -8.818,0.993 -17.818,1.327 -27,1 v 35 c -9.333,0 -18.667,0 -28,0 0,-36.333 0,-72.667 0,-109 z"
       fill="#2b3349"
       id="path57" />
    <path
       d="m 1419.5,157.5 c -0.73,-1.378 -1.4,-2.878 -2,-4.5 -8.66,-0.5 -17.33,-0.666 -26,-0.5 -1,2 -2,4 -3,6 0.17,-2.361 0.51,-4.694 1,-7 9.67,-0.166 19.34,0 29,0.5 0.91,1.699 1.24,3.533 1,5.5 z"
       fill="#9aa0ad"
       id="path58" />
    <path
       d="m 962.5,152.5 c 5.49,-0.666 11.157,-0.999 17,-1 6.042,0.004 11.708,0.671 17,2 -11.252,-0.977 -22.586,-1.311 -34,-1 z"
       fill="#9da4b0"
       id="path59" />
    <path
       d="m 1511.5,121.5 c 4.66,2.993 8.66,6.659 12,11 -3.14,4.311 -6.48,8.478 -10,12.5 -7.02,0.831 -14.02,0.664 -21,-0.5 6.1,-7.882 12.44,-15.548 19,-23 z"
       fill="#1a2544"
       id="path60" />
    <path
       d="m 774.5,343.5 c -0.006,172.501 -0.006,345.168 0,518 -0.789,-0.283 -1.456,-0.783 -2,-1.5 -0.103,-169.448 0.231,-339.615 1,-510.5 -2.761,-2.487 -2.427,-4.487 1,-6 z"
       fill="#c89e7b"
       opacity="0.996"
       id="path61" />
    <path
       d="m 774.5,343.5 c 283.5,-0.333 566.83,0 850,1 -283.17,-0.333 -566.17,0 -849,1 v 2 531 c -0.989,-5.475 -1.322,-11.142 -1,-17 -0.006,-172.832 -0.006,-345.499 0,-518 z"
       fill="#dcc3b0"
       id="path62" />
    <path
       d="m 775.5,345.5 c 282.83,-1 565.83,-1.333 849,-1 v 6 c -0.73,-1.378 -1.4,-2.878 -2,-4.5 -282.33,-0.5 -564.67,-0.667 -847,-0.5 z"
       fill="#f6e8db"
       id="path63" />
    <path
       d="m 1624.5,344.5 c 1.17,178.833 1.33,357.833 0.5,537 -0.18,6.234 -1.01,12.234 -2.5,18 0.39,-6.67 0.89,-13.336 1.5,-20 0.5,-176.333 0.67,-352.666 0.5,-529 0,-2 0,-4 0,-6 z"
       fill="#dcc3b0"
       id="path64" />
    <path
       d="m 775.5,345.5 c 282.33,-0.167 564.67,0 847,0.5 0.6,1.622 1.27,3.122 2,4.5 0.17,176.334 0,352.667 -0.5,529 -0.61,6.664 -1.11,13.33 -1.5,20 -2.45,13.917 -5.12,27.584 -8,41 -7.99,27.109 -18.82,53.109 -32.5,78 -8.03,12.18 -16.2,24.18 -24.5,36 -0.33,1 -1,1.67 -2,2 -15.08,18.41 -31.75,35.08 -50,50 -21.12,15.07 -42.79,29.4 -65,43 -13.36,7.35 -26.69,14.68 -40,22 -17.89,8.45 -35.56,17.11 -53,26 -7.41,2.21 -14.41,5.21 -21,9 -27.98,10.88 -55.98,21.55 -84,32 -10,2.72 -20,5.55 -30,8.5 -6.1,1.04 -11.77,1.54 -17,1.5 -7.64,-1.33 -15.31,-3.16 -23,-5.5 -14.65,-4.94 -29.32,-9.77 -44,-14.5 -1.9,-0.3 -3.57,-0.96 -5,-2 -16.73,-7.03 -33.73,-13.7 -51,-20 -4.5,-3.28 -9.5,-5.62 -15,-7 -8.16,-4.75 -16.83,-8.41 -26,-11 -4.79,-4.4 -10.46,-7.23 -17,-8.5 -4.51,-1.75 -8.51,-4.25 -12,-7.5 -6.414,-1.78 -12.081,-4.78 -17,-9 -4.18,-1.37 -8.18,-3.04 -12,-5 -0.79,-1.29 -1.79,-2.46 -3,-3.5 -14.164,-8.02 -28.164,-16.19 -42,-24.5 -15.85,-11.37 -31.517,-22.87 -47,-34.5 -11.194,-11.19 -22.36,-22.36 -33.5,-33.5 -0.862,-1.59 -1.529,-3.25 -2,-5 -3.333,-3.67 -6.667,-7.33 -10,-11 -18.74,-27.81 -34.073,-57.477 -46,-89 -1.274,-5.652 -2.441,-11.319 -3.5,-17 0,-3.333 0,-6.667 0,-10 -1,0 -2,0 -3,0 -1.373,-9.482 -2.706,-18.982 -4,-28.5 0.294,-3.591 0.627,-6.924 1,-10 -3.104,-4.604 -3.771,-9.438 -2,-14.5 -0.643,-5.198 -1.31,-10.365 -2,-15.5 1.172,-0.419 2.172,-1.085 3,-2 -1.333,-162 -1.333,-324 0,-486 -0.626,-0.75 -1.126,-1.584 -1.5,-2.5 -0.667,-6.333 -0.667,-12.667 0,-19 0.374,-0.916 0.874,-1.75 1.5,-2.5 276.42,0.16 553.08,0.66 830,1.5 0.51,3.1 0.51,5.933 0,8.5 l 1.5,1.5 c 0.7,-4.884 1.2,-9.551 1.5,-14 -279.51,0.011 -558.51,0.011 -837,0 0,-0.667 0,-1.333 0,-2 z"
       fill="#f9f9f9"
       id="path65" />
    <path
       d="m 775.5,347.5 c 278.49,0.011 557.49,0.011 837,0 -0.3,4.449 -0.8,9.116 -1.5,14 -0.5,-0.5 -1,-1 -1.5,-1.5 0.51,-2.567 0.51,-5.4 0,-8.5 -276.92,-0.84 -553.58,-1.34 -830,-1.5 -0.626,0.75 -1.126,1.584 -1.5,2.5 -0.667,6.333 -0.667,12.667 0,19 0.374,0.916 0.874,1.75 1.5,2.5 -1.333,162 -1.333,324 0,486 -0.828,0.915 -1.828,1.581 -3,2 0.69,5.135 1.357,10.302 2,15.5 -1.771,5.062 -1.104,9.896 2,14.5 -0.373,3.076 -0.706,6.409 -1,10 1.294,9.518 2.627,19.018 4,28.5 h 3 v 10 c -1.084,-2.009 -2.084,-4.176 -3,-6.5 -1.954,-8.825 -3.621,-17.658 -5,-26.5 -0.65,-9.181 -1.65,-18.181 -3,-27 0,-0.667 0,-1.333 0,-2 0,-177 0,-354 0,-531 z"
       fill="#f9f8f5"
       id="path66" />
    <path
       d="m 748.5,144.5 c 1.289,137.231 1.289,274.564 0,412 -0.333,0 -0.667,0 -1,0 0.318,-26.72 -0.015,-53.554 -1,-80.5 1.084,-43.905 1.751,-85.739 2,-125.5 0,-68.667 0,-137.333 0,-206 z"
       fill="#d7b8a0"
       opacity="0.761"
       id="path67" />
    <path
       d="m 1630.5,977.5 c 4.89,-16.531 9.39,-33.531 13.5,-51 2.76,-14.23 4.76,-28.563 6,-43 0.67,-260 0.67,-520 0,-780 -3.14,-13.4611 -10.97,-22.9611 -23.5,-28.5 -284,-0.6667 -568,-0.6667 -852,0 -2.018,0.5046 -4.018,1.0046 -6,1.5 0.333,-0.6667 0.667,-1.3333 1,-2 1.914,-0.6847 3.914,-1.1847 6,-1.5 31.333,-0.1667 62.667,-0.3333 94,-0.5 250.94,-0.054 502.94,0.1127 756,0.5 15.87,5.5762 24.71,16.7429 26.5,33.5 0.24,257.33 0.24,514.664 0,772 -1.83,34.348 -8.99,67.348 -21.5,99 z"
       fill="#dec2ab"
       opacity="0.761"
       id="path68" />
    <path
       d="m 1182.5,447.5 c 0.25,2.467 1.25,4.467 3,6 3.14,5.807 7.81,9.807 14,12 0.76,0.768 1.76,1.268 3,1.5 8.66,0.5 17.33,0.666 26,0.5 6.16,2.803 9.5,7.47 10,14 11.06,-0.406 22.06,0.094 33,1.5 8.79,3.788 14.29,10.288 16.5,19.5 0.67,7.667 0.67,15.333 0,23 -4.57,3.096 -8.4,2.263 -11.5,-2.5 -8,-0.667 -16,-0.667 -24,0 -7.37,4.026 -10.04,10.192 -8,18.5 -0.31,5.266 0.36,10.266 2,15 0.07,2.928 0.73,5.595 2,8 3.33,6.634 7.66,12.634 13,18 -0.42,0.722 -1.08,1.222 -2,1.5 2.67,1.667 5.33,3.333 8,5 -44.67,0.667 -89.33,0.667 -134,0 -0.33,-0.333 -0.67,-0.667 -1,-1 3.65,-0.813 5.98,-2.98 7,-6.5 3,-3.167 5.83,-6.5 8.5,-10 5.64,-12.983 8.14,-26.649 7.5,-41 -1.05,-0.149 -2.05,0.017 -3,0.5 -3.39,3.018 -7.05,5.518 -11,7.5 -4.95,0.829 -9.95,1.163 -15,1 -5.33,-1.142 -9.83,-3.808 -13.5,-8 -0.67,-1 -0.67,-2 0,-3 10.7,-7.529 21.53,-14.862 32.5,-22 -9.04,-0.617 -18.04,-1.45 -27,-2.5 -6.78,-4.263 -11.44,-10.096 -14,-17.5 0,-1.667 0,-3.333 0,-5 14.02,0.333 28.02,-10e-4 42,-1 -0.12,-0.607 -0.46,-0.94 -1,-1 -4.85,-3.338 -9.85,-6.504 -15,-9.5 -7.98,-7.084 -10.82,-15.918 -8.5,-26.5 0.64,-2.612 1.81,-4.946 3.5,-7 11.33,7.667 22.67,15.333 34,23 0.33,-0.333 0.67,-0.667 1,-1 -2.78,-6.17 -5.28,-12.503 -7.5,-19 -1.01,-11.981 3.66,-20.981 14,-27 0.95,0.405 1.61,1.072 2,2 4.06,11.285 8.56,22.285 13.5,33 z"
       fill="#162344"
       id="path69" />
    <path
       d="m 919.5,454.5 c 2.289,1.887 4.955,3.221 8,4 5.915,2.641 11.915,4.975 18,7 1.533,1.745 3.533,2.745 6,3 34.827,14.575 69.83,28.908 105,43 1.53,1.745 3.53,2.745 6,3 13.28,6.585 22.94,16.585 29,30 0.96,3.895 2.3,7.561 4,11 0.64,4.086 0.97,8.252 1,12.5 0.22,5.432 -0.45,10.599 -2,15.5 -0.62,-0.111 -1.12,-0.444 -1.5,-1 -0.12,2.508 -1.12,4.508 -3,6 -1.55,-1.184 -3.05,-1.017 -4.5,0.5 -14.66,0.5 -29.33,0.667 -44,0.5 -2.88,-4.952 -6.88,-8.785 -12,-11.5 -10.84,-4.588 -21.5,-9.421 -32,-14.5 -1.533,-1.745 -3.533,-2.745 -6,-3 -13.69,-6.376 -27.357,-12.709 -41,-19 -1.533,-1.745 -3.533,-2.745 -6,-3 -11.106,-5.207 -22.106,-10.707 -33,-16.5 -18.802,-5.311 -33.469,-16.144 -44,-32.5 -0.255,-2.467 -1.255,-4.467 -3,-6 -3.175,-7.015 -5.175,-14.349 -6,-22 -0.191,-7.701 0.142,-15.368 1,-23 1.577,-4.122 4.577,-5.622 9,-4.5 16.894,7.052 33.894,13.885 51,20.5 z"
       fill="#152344"
       id="path70" />
    <path
       d="m 1476.5,528.5 c -2.85,0.052 -5.18,1.052 -7,3 -22.75,10.474 -45.42,21.14 -68,32 -6.45,2.726 -12.79,5.726 -19,9 -6.01,3.057 -12.01,6.224 -18,9.5 -1.83,2.663 -3.83,5.163 -6,7.5 -15.67,0.167 -31.34,0 -47,-0.5 -3.14,-0.631 -4.14,-2.298 -3,-5 -6.79,-24.966 -0.29,-45.8 19.5,-62.5 0.33,0.333 0.67,0.667 1,1 0.83,-1.5 2,-2.667 3.5,-3.5 3.03,-0.551 6.03,-1.884 9,-4 0.81,-1.113 1.47,-2.279 2,-3.5 4.74,-1.802 9.4,-3.802 14,-6 2.29,-0.256 4.46,0.077 6.5,1 4.65,-2.576 9.48,-5.076 14.5,-7.5 1.28,-0.684 2.45,-0.517 3.5,0.5 0.83,-1 1.67,-2 2.5,-3 0.67,0.667 1.33,1.333 2,2 -0.44,-1.453 0.23,-2.619 2,-3.5 6.87,-2.065 13.37,-4.898 19.5,-8.5 0.33,0.333 0.67,0.667 1,1 0.48,-0.948 0.65,-1.948 0.5,-3 10.99,-5.227 22.33,-9.894 34,-14 3.04,-0.779 5.71,-2.113 8,-4 7.41,-3.044 14.74,-6.044 22,-9 3.76,0.429 7.26,-0.237 10.5,-2 0.33,0.333 0.67,0.667 1,1 3.43,-2.892 7.1,-4.559 11,-5 2.92,-2.106 6.92,-4.106 12,-6 0.33,0.333 0.67,0.667 1,1 4.29,-2.895 8.79,-5.395 13.5,-7.5 -0.59,-0.464 -1.26,-0.631 -2,-0.5 2.07,-0.875 4.07,-2.041 6,-3.5 4.07,-1.626 8.07,-1.626 12,0 1.39,1.171 2.23,2.671 2.5,4.5 4.64,33.013 -7.2,58.179 -35.5,75.5 -9.96,4.058 -19.63,8.558 -29,13.5 z"
       fill="#152344"
       id="path71" />
    <path
       d="m 1520.5,438.5 c 0.74,-0.131 1.41,0.036 2,0.5 -4.71,2.105 -9.21,4.605 -13.5,7.5 -0.33,-0.333 -0.67,-0.667 -1,-1 -5.08,1.894 -9.08,3.894 -12,6 -3.9,0.441 -7.57,2.108 -11,5 -0.33,-0.333 -0.67,-0.667 -1,-1 -3.24,1.763 -6.74,2.429 -10.5,2 15.63,-6.106 31.29,-12.439 47,-19 z"
       fill="#283047"
       id="path72" />
    <path
       d="m 859.5,438.5 c -0.858,7.632 -1.191,15.299 -1,23 -1.155,-6.821 -1.321,-13.821 -0.5,-21 0.278,-0.916 0.778,-1.582 1.5,-2 z"
       fill="#5f6777"
       id="path73" />
    <path
       d="m 1182.5,447.5 c 1.75,1.533 2.75,3.533 3,6 -1.75,-1.533 -2.75,-3.533 -3,-6 z"
       fill="#8b929f"
       id="path74" />
    <path
       d="m 919.5,454.5 c 3.221,0.396 5.888,1.729 8,4 -3.045,-0.779 -5.711,-2.113 -8,-4 z"
       fill="#8a919f"
       id="path75" />
    <path
       d="m 1199.5,465.5 c 9.82,0.562 19.48,1.229 29,2 -8.67,0.166 -17.34,0 -26,-0.5 -1.24,-0.232 -2.24,-0.732 -3,-1.5 z"
       fill="#b0b7c2"
       id="path76" />
    <path
       d="m 945.5,465.5 c 2.467,0.255 4.467,1.255 6,3 -2.467,-0.255 -4.467,-1.255 -6,-3 z"
       fill="#707887"
       id="path77" />
    <path
       d="m 1451.5,466.5 c -2.29,1.887 -4.96,3.221 -8,4 2.11,-2.271 4.78,-3.604 8,-4 z"
       fill="#808796"
       id="path78" />
    <path
       d="m 1145.5,479.5 c 0.54,0.06 0.88,0.393 1,1 -13.98,0.999 -27.98,1.333 -42,1 v 5 c -0.96,-1.765 -1.29,-3.765 -1,-6 14.18,0.329 28.18,-0.004 42,-1 z"
       fill="#6d7584"
       id="path79" />
    <path
       d="m 1212.5,485.5 c 0,-1.333 0,-2.667 0,-4 -8.33,0 -16.67,0 -25,0 v 5 c -1.24,-1.714 -1.91,-3.714 -2,-6 h 28 c 0.28,1.915 -0.05,3.581 -1,5 z"
       fill="#959ca9"
       id="path80" />
    <path
       d="m 1212.5,485.5 c -4.25,8.502 -10.92,11.002 -20,7.5 -2.05,-1.965 -3.72,-4.132 -5,-6.5 0,-1.667 0,-3.333 0,-5 h 25 z"
       fill="#f0f1f3"
       id="path81" />
    <path
       d="m 1409.5,484.5 c 0.15,1.052 -0.02,2.052 -0.5,3 -0.33,-0.333 -0.67,-0.667 -1,-1 -6.13,3.602 -12.63,6.435 -19.5,8.5 -1.77,0.881 -2.44,2.047 -2,3.5 -0.67,-0.667 -1.33,-1.333 -2,-2 -0.83,1 -1.67,2 -2.5,3 -1.05,-1.017 -2.22,-1.184 -3.5,-0.5 -5.02,2.424 -9.85,4.924 -14.5,7.5 -2.04,-0.923 -4.21,-1.256 -6.5,-1 17.23,-6.935 34.56,-13.935 52,-21 z"
       fill="#283047"
       id="path82" />
    <path
       d="m 864.5,483.5 c 1.745,1.533 2.745,3.533 3,6 -1.745,-1.533 -2.745,-3.533 -3,-6 z"
       fill="#6d7584"
       id="path83" />
    <path
       d="m 1056.5,511.5 c 2.59,-0.039 4.59,0.961 6,3 -2.47,-0.255 -4.47,-1.255 -6,-3 z"
       fill="#727988"
       id="path84" />
    <path
       d="m 1476.5,528.5 c -2.01,1.565 -4.34,2.565 -7,3 1.82,-1.948 4.15,-2.948 7,-3 z"
       fill="#6f7786"
       id="path85" />
    <path
       d="m 1141.5,538.5 c -0.42,0.722 -1.08,1.222 -2,1.5 -4.52,0.814 -8.85,0.647 -13,-0.5 5.05,0.163 10.05,-0.171 15,-1 z"
       fill="#7d8493"
       id="path86" />
    <path
       d="m 944.5,538.5 c 2.467,0.255 4.467,1.255 6,3 -2.467,-0.255 -4.467,-1.255 -6,-3 z"
       fill="#8d94a1"
       id="path87" />
    <path
       d="m 1091.5,544.5 c 2.49,3.126 3.82,6.792 4,11 -1.7,-3.439 -3.04,-7.105 -4,-11 z"
       fill="#939aa7"
       id="path88" />
    <path
       d="m 1343.5,511.5 c -0.53,1.221 -1.19,2.387 -2,3.5 -2.97,2.116 -5.97,3.449 -9,4 -1.5,0.833 -2.67,2 -3.5,3.5 -0.33,-0.333 -0.67,-0.667 -1,-1 -19.79,16.7 -26.29,37.534 -19.5,62.5 -1.14,2.702 -0.14,4.369 3,5 15.66,0.5 31.33,0.667 47,0.5 v 1 c -17.57,0.631 -34.9,-0.036 -52,-2 -1.14,-3.571 -1.81,-7.238 -2,-11 -0.17,-8.362 0.17,-16.695 1,-25 5.78,-20.11 18.45,-33.777 38,-41 z"
       fill="#222b42"
       id="path89" />
    <path
       d="m 1244.5,541.5 c 1.64,4.734 2.31,9.734 2,15 -1.64,-4.734 -2.31,-9.734 -2,-15 z"
       fill="#6b7382"
       id="path90" />
    <path
       d="m 1246.5,556.5 c 1.54,2.338 2.21,5.005 2,8 -1.27,-2.405 -1.93,-5.072 -2,-8 z"
       fill="#838a98"
       id="path91" />
    <path
       d="m 1007.5,591.5 v 67 c -1,0 -2,0 -3,0 -26.994,-6.666 -53.994,-13.332 -81,-20 -1.602,-1.574 -3.602,-2.241 -6,-2 -35.413,-7.244 -58.247,-28.244 -68.5,-63 -0.667,-3.333 -0.667,-6.667 0,-10 2.21,-2.79 5.044,-3.623 8.5,-2.5 50.148,10.129 100.148,20.296 150,30.5 z"
       fill="#162344"
       id="path92" />
    <path
       d="m 991.5,560.5 c 2.467,0.255 4.467,1.255 6,3 -2.467,-0.255 -4.467,-1.255 -6,-3 z"
       fill="#8b929f"
       id="path93" />
    <path
       d="m 1549.5,576.5 c -0.62,-0.417 -0.96,-1.084 -1,-2 0.83,-3.133 1.5,-5.966 2,-8.5 -1.2,-0.903 -2.03,-2.069 -2.5,-3.5 -8.02,0.759 -15.68,2.426 -23,5 -1.27,-0.116 -2.6,-0.449 -4,-1 -4.68,2.22 -9.52,2.886 -14.5,2 10.94,-2.274 21.94,-4.774 33,-7.5 9.89,-2.111 13.72,1.722 11.5,11.5 -0.21,1.558 -0.71,2.891 -1.5,4 z"
       fill="#232c42"
       id="path94" />
    <path
       d="m 1549.5,576.5 c -8.84,29.674 -28.17,48.841 -58,57.5 -16.28,3.645 -32.28,7.811 -48,12.5 -5.59,0.732 -10.93,2.065 -16,4 -10.87,2.301 -21.53,4.968 -32,8 -1,0 -2,0 -3,0 0,-22.333 0,-44.667 0,-67 0.71,-0.904 1.71,-1.237 3,-1 5.32,-0.829 10.65,-1.662 16,-2.5 0.92,-0.278 1.58,-0.778 2,-1.5 7.13,-1.746 14.47,-3.08 22,-4 4.06,0.015 8.06,-0.485 12,-1.5 0.56,-0.383 0.89,-0.883 1,-1.5 h 1 c 5.58,1.145 10.91,1.145 16,0 11.32,-3.469 22.32,-5.969 33,-7.5 0.56,-0.383 0.89,-0.883 1,-1.5 2.05,0.098 3.72,-0.569 5,-2 h 2 c 4.98,0.886 9.82,0.22 14.5,-2 1.4,0.551 2.73,0.884 4,1 7.32,-2.574 14.98,-4.241 23,-5 0.47,1.431 1.3,2.597 2.5,3.5 -0.5,2.534 -1.17,5.367 -2,8.5 0.04,0.916 0.38,1.583 1,2 z"
       fill="#152344"
       id="path95" />
    <path
       d="m 1305.5,552.5 c -0.83,8.305 -1.17,16.638 -1,25 -1.16,-7.489 -1.32,-15.155 -0.5,-23 0.28,-0.916 0.78,-1.582 1.5,-2 z"
       fill="#505869"
       id="path96" />
    <path
       d="m 1401.5,563.5 c -1.25,2.149 -2.75,4.149 -4.5,6 -1.4,-0.551 -2.73,-0.884 -4,-1 -3.08,2.283 -6.58,3.616 -10.5,4 6.21,-3.274 12.55,-6.274 19,-9 z"
       fill="#c1c6cf"
       id="path97" />
    <path
       d="m 1504.5,568.5 c -1.28,1.431 -2.95,2.098 -5,2 -3.02,0.204 -6.02,0.537 -9,1 0.42,-0.722 1.08,-1.222 2,-1.5 3.99,-0.642 7.99,-1.142 12,-1.5 z"
       fill="#68707f"
       id="path98" />
    <path
       d="m 1499.5,570.5 c -0.11,0.617 -0.44,1.117 -1,1.5 -10.68,1.531 -21.68,4.031 -33,7.5 -5.09,1.145 -10.42,1.145 -16,0 13.38,-3.4 27.04,-6.067 41,-8 2.98,-0.463 5.98,-0.796 9,-1 z"
       fill="#2b3349"
       id="path99" />
    <path
       d="m 1448.5,579.5 c -0.11,0.617 -0.44,1.117 -1,1.5 -3.94,1.015 -7.94,1.515 -12,1.5 4.05,-1.76 8.38,-2.76 13,-3 z"
       fill="#4f5869"
       id="path100" />
    <path
       d="m 1139.5,581.5 c -1.02,3.52 -3.35,5.687 -7,6.5 0.33,0.333 0.67,0.667 1,1 44.67,0.667 89.33,0.667 134,0 -2.67,-1.667 -5.33,-3.333 -8,-5 0.92,-0.278 1.58,-0.778 2,-1.5 2.6,0.968 4.93,2.301 7,4 3,1.762 6.34,2.928 10,3.5 -52.17,0.832 -104.17,0.665 -156,-0.5 6.08,-1.872 11.74,-4.539 17,-8 z"
       fill="#2b3549"
       id="path101" />
    <path
       d="m 1413.5,586.5 c -0.42,0.722 -1.08,1.222 -2,1.5 -5.35,0.838 -10.68,1.671 -16,2.5 0,-0.333 0,-0.667 0,-1 5.96,-1.258 11.96,-2.258 18,-3 z"
       fill="#6d7484"
       id="path102" />
    <path
       d="m 1094.5,583.5 c -0.16,2.327 -0.83,4.493 -2,6.5 -17.17,0.828 -34.17,0.662 -51,-0.5 14.67,0.167 29.34,0 44,-0.5 1.45,-1.517 2.95,-1.684 4.5,-0.5 1.88,-1.492 2.88,-3.492 3,-6 0.38,0.556 0.88,0.889 1.5,1 z"
       fill="#2a3347"
       id="path103" />
    <path
       d="m 1268.5,586.5 c 5.01,0.2 9.67,1.533 14,4 -55,1.333 -110,1.333 -165,0 1.55,-0.952 3.21,-1.285 5,-1 51.83,1.165 103.83,1.332 156,0.5 -3.66,-0.572 -7,-1.738 -10,-3.5 z"
       fill="#b5bbc5"
       id="path104" />
    <path
       d="m 1306.5,588.5 c 17.1,1.964 34.43,2.631 52,2 -17.16,0.997 -34.49,1.33 -52,1 0,-1 0,-2 0,-3 z"
       fill="#b3b9c4"
       id="path105" />
    <path
       d="m 1395.5,589.5 v 1 c -1.29,-0.237 -2.29,0.096 -3,1 -1,22.494 -1.33,45.161 -1,68 -1,-23.161 -1.33,-46.494 -1,-70 z"
       fill="#d2d7e0"
       id="path106" />
    <path
       d="m 1007.5,591.5 c 1,22.494 1.33,45.161 1,68 -1.6,0.268 -2.93,-0.066 -4,-1 h 3 c 0,-22.333 0,-44.667 0,-67 z"
       fill="#818896"
       id="path107" />
    <path
       d="m 1392.5,591.5 v 67 h 3 c -1.07,0.934 -2.4,1.268 -4,1 -0.33,-22.839 0,-45.506 1,-68 z"
       fill="#656d7d"
       id="path108" />
    <path
       d="m 1354.5,618.5 c -100.67,0 -201.33,0 -302,0 -3.92,-0.475 -7.25,0.525 -10,3 -0.67,0 -1.33,0 -2,0 0.84,-1.673 2.18,-2.84 4,-3.5 103.5,-0.833 206.83,-0.666 310,0.5 z"
       fill="#99a0ac"
       id="path109" />
    <path
       d="m 1052.5,618.5 h 302 c 1.93,0.61 3.6,1.61 5,3 -0.33,0 -0.67,0 -1,0 -1.32,-0.17 -2.49,0.163 -3.5,1 -0.46,-0.594 -0.63,-1.261 -0.5,-2 -100.1,-0.669 -200.76,-1.336 -302,-2 z"
       fill="#2d374a"
       id="path110" />
    <path
       d="m 1052.5,618.5 c 101.24,0.664 201.9,1.331 302,2 -98.36,0.028 -198.03,0.028 -299,0 -3.6,-0.244 -6.94,0.422 -10,2 -0.92,-0.627 -1.92,-0.961 -3,-1 2.75,-2.475 6.08,-3.475 10,-3 z"
       fill="#111b33"
       id="path111" />
    <path
       d="m 1354.5,620.5 c -0.13,0.739 0.04,1.406 0.5,2 1.01,-0.837 2.18,-1.17 3.5,-1 -0.25,1.752 0.58,3.419 2.5,5 0.25,1.933 0.75,3.766 1.5,5.5 -1.22,74.056 -1.22,148.722 0,224 -0.67,3 -1.33,6 -2,9 0.59,0.464 1.26,0.631 2,0.5 -1.95,13.485 -6.79,25.818 -14.5,37 -19.9,28.233 -45.06,50.4 -75.5,66.5 -16.1,9.717 -32.77,18.384 -50,26 -7.53,2.511 -15.03,5.01 -22.5,7.5 -6.21,-1.4 -12.38,-3.234 -18.5,-5.5 -31.22,-12.587 -60.22,-28.921 -87,-49 -18.72,-14.968 -34.55,-32.468 -47.5,-52.5 -2.59,-6.273 -5.09,-12.606 -7.5,-19 1,0.03 1.66,-0.47 2,-1.5 -1.42,-4.431 -2.59,-8.931 -3.5,-13.5 -0.67,-78 -0.67,-156 0,-234 1.33,-2.16 2.83,-4.16 4.5,-6 1.08,0.039 2.08,0.373 3,1 3.06,-1.578 6.4,-2.244 10,-2 100.97,0.028 200.64,0.028 299,0 z"
       fill="#152344"
       id="path112" />
    <path
       d="m 1040.5,621.5 h 2 c -1.67,1.84 -3.17,3.84 -4.5,6 -0.67,78 -0.67,156 0,234 0.91,4.569 2.08,9.069 3.5,13.5 -0.34,1.03 -1,1.53 -2,1.5 -1.35,-6.114 -2.68,-12.114 -4,-18 -0.17,-76.334 0,-152.667 0.5,-229 0.61,-1.654 1.11,-3.321 1.5,-5 0.67,-1.333 1.67,-2.333 3,-3 z"
       fill="#1b253b"
       id="path113" />
    <path
       d="m 1358.5,621.5 h 1 c 1.72,1.753 3.22,3.753 4.5,6 0.17,39 0.33,78 0.5,117 -0.02,40.417 -0.69,80.751 -2,121 -0.74,0.131 -1.41,-0.036 -2,-0.5 0.67,-3 1.33,-6 2,-9 -1.22,-75.278 -1.22,-149.944 0,-224 -0.75,-1.734 -1.25,-3.567 -1.5,-5.5 -1.92,-1.581 -2.75,-3.248 -2.5,-5 z"
       fill="#283047"
       id="path114" />
    <path
       d="m 1037.5,624.5 c -0.39,1.679 -0.89,3.346 -1.5,5 -0.5,76.333 -0.67,152.666 -0.5,229 -1.17,-76.499 -1.33,-153.166 -0.5,-230 0.2,-1.82 1.03,-3.153 2.5,-4 z"
       fill="#b4bac5"
       id="path115" />
    <path
       d="m 917.5,636.5 c 2.398,-0.241 4.398,0.426 6,2 -2.398,0.241 -4.398,-0.426 -6,-2 z"
       fill="#999fac"
       id="path116" />
    <path
       d="m 1336.5,645.5 c -45.64,0.009 -90.97,0.009 -136,0 45.33,-1.333 90.67,-1.333 136,0 z"
       fill="#571436"
       id="path117" />
    <path
       d="m 1199.5,645.5 h 1 c 45.03,0.009 90.36,0.009 136,0 v 2 c -45,0 -90,0 -135,0 v 139 c 1.29,-0.237 2.29,0.096 3,1 -1.33,0 -2.67,0 -4,0 -0.33,0 -0.67,0 -1,0 0,-47 0,-94 0,-141 0,-0.333 0,-0.667 0,-1 z"
       fill="#c22e4b"
       id="path118" />
    <path
       d="m 1336.5,645.5 c 1.33,23.657 2,47.657 2,72 0,24.169 -0.33,48.169 -1,72 0.17,-0.992 -0.16,-1.658 -1,-2 0,-0.333 0,-0.667 0,-1 1.24,-46.092 1.24,-92.426 0,-139 0,-0.667 0,-1.333 0,-2 z"
       fill="#571436"
       id="path119" />
    <path
       d="m 1199.5,646.5 v 141 c -45.33,0 -90.67,0 -136,0 0,-47 0,-94 0,-141 z"
       fill="#f8f8f8"
       id="path120" />
    <path
       d="m 1336.5,647.5 c 1.24,46.574 1.24,92.908 0,139 -44.29,-0.316 -88.29,0.018 -132,1 -0.71,-0.904 -1.71,-1.237 -3,-1 0,-46.333 0,-92.667 0,-139 z"
       fill="#f70034"
       id="path121" />
    <path
       d="m 1199.5,645.5 v 1 c -45.33,0 -90.67,0 -136,0 v 141 c -0.33,0 -0.67,0 -1,0 0,-47.333 0,-94.667 0,-142 z"
       fill="#abb1bc"
       id="path122" />
    <path
       d="m 1443.5,646.5 c -5,2.249 -10.33,3.583 -16,4 5.07,-1.935 10.41,-3.268 16,-4 z"
       fill="#b0b6c1"
       id="path123" />
    <path
       d="m 965.5,672.5 c -39.709,-0.322 -79.376,0.012 -119,1 0.111,-0.617 0.444,-1.117 1,-1.5 39.502,-0.831 78.835,-0.665 118,0.5 z"
       fill="#dfe4eb"
       id="path124" />
    <path
       d="m 1424.5,672.5 c 42.5,-1.165 85.16,-1.331 128,-0.5 0.88,0.708 1.55,1.542 2,2.5 -1.11,-0.057 -2.11,-0.39 -3,-1 -42.16,-0.999 -84.5,-1.332 -127,-1 z"
       fill="#dee3ea"
       id="path125" />
    <path
       d="m 1424.5,672.5 c 42.5,-0.332 84.84,10e-4 127,1 -53,0 -106,0 -159,0 v 62 c -1,-20.493 -1.33,-41.16 -1,-62 10.82,-0.995 21.82,-1.328 33,-1 z"
       fill="#636b7b"
       id="path126" />
    <path
       d="m 965.5,672.5 c 14.177,-0.329 28.177,0.004 42,1 v 62 c -6,0 -12,0 -18,0 -2.107,-0.968 -4.441,-1.302 -7,-1 7.827,-0.696 15.827,-0.696 24,0 -0.04,-19.86 -0.04,-39.527 0,-59 -1.67,-0.333 -3.33,-0.667 -5,-1 -50.223,0.889 -100.056,0.889 -149.5,0 -1.399,0.727 -2.899,1.227 -4.5,1.5 -0.667,1.333 -1.333,2.667 -2,4 1.633,10.763 5.633,19.763 12,27 -0.556,0.383 -0.889,0.883 -1,1.5 -8.241,-9.477 -12.241,-20.477 -12,-33 1.022,-0.355 1.689,-1.022 2,-2 39.624,-0.988 79.291,-1.322 119,-1 z"
       fill="#252d44"
       id="path127" />
    <path
       d="m 1007.5,673.5 c 1,20.827 1.33,41.827 1,63 -7.52,0.325 -14.852,-0.008 -22,-1 h 3 18 c 0,-20.667 0,-41.333 0,-62 z"
       fill="#838a97"
       id="path128" />
    <path
       d="m 1391.5,673.5 c -0.33,20.84 0,41.507 1,62 8.49,0.693 17.16,0.693 26,0 -9.03,1.951 -18.19,2.284 -27.5,1 -0.83,-21.171 -0.66,-42.171 0.5,-63 z"
       fill="#d5dae2"
       id="path129" />
    <path
       d="m 1551.5,673.5 c 0.89,0.61 1.89,0.943 3,1 2.42,4.536 2.42,9.203 0,14 -0.33,0 -0.67,0 -1,0 -0.91,-2.889 -0.58,-5.723 1,-8.5 -0.91,-2.333 -2.41,-4.166 -4.5,-5.5 -51.67,1.333 -103.33,1.333 -155,0 -1.41,19.109 -1.91,37.942 -1.5,56.5 0.17,1.167 0.33,2.333 0.5,3.5 0.33,-0.333 0.67,-0.667 1,-1 2.94,0.628 5.77,1.295 8.5,2 -3.67,0 -7.33,0 -11,0 0,-20.667 0,-41.333 0,-62 z"
       fill="#131d35"
       id="path130" />
    <path
       d="m 982.5,734.5 c -14.325,-0.844 -28.658,-1.511 -43,-2 -11.64,-0.888 -23.307,-1.221 -35,-1 -4.806,-1.093 -9.806,-1.759 -15,-2 -13.886,-2.568 -24.886,-9.568 -33,-21 0.111,-0.617 0.444,-1.117 1,-1.5 -6.367,-7.237 -10.367,-16.237 -12,-27 0.667,-1.333 1.333,-2.667 2,-4 1.601,-0.273 3.101,-0.773 4.5,-1.5 49.444,0.889 99.277,0.889 149.5,0 1.67,0.333 3.33,0.667 5,1 -0.04,19.473 -0.04,39.14 0,59 -8.173,-0.696 -16.173,-0.696 -24,0 z"
       fill="#152344"
       id="path131" />
    <path
       d="m 1553.5,688.5 c -1.13,4.062 -2.47,8.062 -4,12 -14.37,21.685 -34.7,32.019 -61,31 -8.67,-0.166 -17.34,0 -26,0.5 -2.21,0.191 -4.21,0.691 -6,1.5 -0.67,0 -1.33,0 -2,0 -11.67,0.167 -23.34,0.5 -35,1 -5.43,-0.282 -10.76,0.051 -16,1 -2.73,-0.705 -5.56,-1.372 -8.5,-2 -0.33,0.333 -0.67,0.667 -1,1 -0.17,-1.167 -0.33,-2.333 -0.5,-3.5 -0.41,-18.558 0.09,-37.391 1.5,-56.5 51.67,1.333 103.33,1.333 155,0 2.09,1.334 3.59,3.167 4.5,5.5 -1.58,2.777 -1.91,5.611 -1,8.5 z"
       fill="#152344"
       id="path132" />
    <path
       d="m 1135.5,688.5 c 1.9,5.644 3.9,11.31 6,17 9.32,0.832 18.65,1.332 28,1.5 0.46,0.414 0.79,0.914 1,1.5 -7,5.494 -14.17,10.828 -21.5,16 0.06,6.421 1.56,12.421 4.5,18 0.67,3.667 1.33,7.333 2,11 -2.72,-0.852 -5.39,-2.019 -8,-3.5 -5.2,-4.091 -10.53,-7.925 -16,-11.5 -7.8,4.737 -15.47,9.737 -23,15 -0.13,-9.19 1.87,-18.023 6,-26.5 -1.24,-2.272 -2.91,-4.106 -5,-5.5 1.1,-0.897 1.1,-1.73 0,-2.5 -4,-2.667 -8,-5.333 -12,-8 0.67,-1.333 1.67,-2.333 3,-3 7.33,-0.333 14.67,-0.667 22,-1 3.52,-7.567 6.35,-15.401 8.5,-23.5 2.02,1.302 3.52,2.968 4.5,5 z"
       fill="#172343"
       id="path133" />
    <path
       d="m 1135.5,688.5 c -0.98,-2.032 -2.48,-3.698 -4.5,-5 -2.15,8.099 -4.98,15.933 -8.5,23.5 -7.33,0.333 -14.67,0.667 -22,1 -1.33,0.667 -2.33,1.667 -3,3 4,2.667 8,5.333 12,8 1.1,0.77 1.1,1.603 0,2.5 -5.64,-3.811 -11.14,-7.811 -16.5,-12 -0.67,-0.667 -0.67,-1.333 0,-2 9.42,-0.985 18.92,-1.318 28.5,-1 2.07,-8.871 4.74,-17.538 8,-26 1.22,-1.211 2.39,-1.211 3.5,0 1.71,2.409 2.54,5.075 2.5,8 z"
       fill="#283047"
       id="path134" />
    <path
       d="m 1553.5,688.5 h 1 c -0.54,3.6 -1.54,7.1 -3,10.5 -0.34,1.03 -1,1.53 -2,1.5 1.53,-3.938 2.87,-7.938 4,-12 z"
       fill="#a7adb9"
       id="path135" />
    <path
       d="m 747.5,556.5 h 1 v 306 c -0.668,-101.736 -1.334,-203.569 -2,-305.5 0.228,-0.399 0.562,-0.565 1,-0.5 z"
       fill="#e0c7b9"
       opacity="0.212"
       id="path136" />
    <path
       d="m 889.5,729.5 c 5.194,0.241 10.194,0.907 15,2 -5.266,0.311 -10.266,-0.355 -15,-2 z"
       fill="#586070"
       id="path137" />
    <path
       d="m 1488.5,731.5 c -10.5,0.965 -21.16,1.631 -32,2 1.79,-0.809 3.79,-1.309 6,-1.5 8.66,-0.5 17.33,-0.666 26,-0.5 z"
       fill="#50596a"
       id="path138" />
    <path
       d="m 904.5,731.5 c 11.693,-0.221 23.36,0.112 35,1 v 1 c -11.859,0.027 -23.526,-0.64 -35,-2 z"
       fill="#808795"
       id="path139" />
    <path
       d="m 939.5,733.5 c 0,-0.333 0,-0.667 0,-1 14.342,0.489 28.675,1.156 43,2 2.559,-0.302 4.893,0.032 7,1 -1,0 -2,0 -3,0 -15.683,-0.312 -31.35,-0.979 -47,-2 z"
       fill="#646b7b"
       id="path140" />
    <path
       d="m 1419.5,734.5 v 1 c -0.33,0 -0.67,0 -1,0 -8.84,0.693 -17.51,0.693 -26,0 h 11 c 5.24,-0.949 10.57,-1.282 16,-1 z"
       fill="#596172"
       id="path141" />
    <path
       d="m 1454.5,733.5 c -11.47,1.491 -23.13,2.158 -35,2 0,-0.333 0,-0.667 0,-1 11.66,-0.5 23.33,-0.833 35,-1 z"
       fill="#afb5c0"
       id="path142" />
    <path
       d="m 1153.5,742.5 c 2.39,3.463 3.06,7.129 2,11 -0.67,-3.667 -1.33,-7.333 -2,-11 z"
       fill="#6f7786"
       id="path143" />
    <path
       d="m 1007.5,750.5 c 1,20.16 1.33,40.493 1,61 -1.33,0 -2.67,0 -4,0 0.71,-0.904 1.71,-1.237 3,-1 0,-20 0,-40 0,-60 z"
       fill="#808795"
       id="path144" />
    <path
       d="m 1396.5,751.5 c -1.33,0 -2.67,0 -4,0 v 59 c 5.95,0.207 11.61,1.207 17,3 -6.01,-0.573 -12.01,-1.24 -18,-2 0,-20.333 0,-40.667 0,-61 1.91,-0.284 3.58,0.049 5,1 z"
       fill="#646c7c"
       id="path145" />
    <path
       d="m 1007.5,750.5 v 60 c -1.29,-0.237 -2.29,0.096 -3,1 -1.33,0 -2.67,0 -4,0 -0.11,-0.617 -0.44,-1.117 -1,-1.5 2.31,-0.662 4.65,-1.162 7,-1.5 0.17,-18.67 0,-37.336 -0.5,-56 -8.059,2.608 -16.559,3.608 -25.5,3 3.089,-1.285 6.422,-1.951 10,-2 3.622,0.178 6.956,-0.489 10,-2 2.11,-0.968 4.44,-1.302 7,-1 z"
       fill="#202840"
       id="path146" />
    <path
       d="m 1000.5,751.5 c -3.044,1.511 -6.378,2.178 -10,2 3.089,-1.285 6.422,-1.951 10,-2 z"
       fill="#828997"
       id="path147" />
    <path
       d="m 1000.5,811.5 c -5.947,0.207 -11.613,1.207 -17,3 -12.488,1.26 -24.822,3.26 -37,6 -7.338,-0.37 -14.338,0.63 -21,3 -2.333,0 -4.667,0 -7,0 -8.436,0.347 -16.769,-0.319 -25,-2 -17.023,-5.513 -29.023,-16.513 -36,-33 -0.213,-2.951 0.454,-5.618 2,-8 4.681,-1.55 9.348,-2.883 14,-4 7.019,-0.838 14.019,-1.838 21,-3 7.726,-0.636 15.392,-1.636 23,-3 1.829,0.782 3.329,0.116 4.5,-2 l 1,1 c 1.441,-0.76 2.941,-1.426 4.5,-2 2.534,0.066 5.034,0.066 7.5,0 1.417,-0.578 2.25,-1.578 2.5,-3 1.109,-0.057 2.109,-0.39 3,-1 1.624,-0.14 2.79,0.527 3.5,2 10.742,-1.903 21.575,-4.903 32.5,-9 1.459,0.067 2.792,-0.266 4,-1 8.941,0.608 17.441,-0.392 25.5,-3 0.5,18.664 0.67,37.33 0.5,56 -2.35,0.338 -4.69,0.838 -7,1.5 0.56,0.383 0.89,0.883 1,1.5 z"
       fill="#152344"
       id="path148" />
    <path
       d="m 1396.5,751.5 c 4.29,0.925 8.62,1.591 13,2 2.01,1.424 4.35,2.09 7,2 h 4 c 3.44,2.054 6.94,4.054 10.5,6 0.89,-0.581 1.89,-0.915 3,-1 10.36,2.284 20.36,4.617 30,7 2.03,-0.486 4.19,-0.486 6.5,0 0.1,3.811 0.76,3.811 2,0 3.37,2.246 6.54,2.913 9.5,2 1.33,0.667 2.33,1.667 3,3 0.69,-2.391 1.69,-2.391 3,0 2.38,-0.935 4.88,-1.268 7.5,-1 15.21,2.209 30.21,5.376 45,9.5 1.39,0.956 2.06,2.289 2,4 -6.55,19.049 -19.55,31.549 -39,37.5 -10.99,1.149 -21.99,1.149 -33,0 -0.67,0 -1.33,0 -2,0 -2.72,-1.413 -5.72,-2.08 -9,-2 -16.7,-2.34 -33.37,-4.673 -50,-7 -5.39,-1.793 -11.05,-2.793 -17,-3 0,-19.667 0,-39.333 0,-59 z"
       fill="#152344"
       id="path149" />
    <path
       d="m 1409.5,753.5 c 2.73,-0.329 5.06,0.337 7,2 -2.65,0.09 -4.99,-0.576 -7,-2 z"
       fill="#6d7584"
       id="path150" />
    <path
       d="m 976.5,756.5 c -10.925,4.097 -21.758,7.097 -32.5,9 -0.71,-1.473 -1.876,-2.14 -3.5,-2 11.799,-2.748 23.799,-5.081 36,-7 z"
       fill="#30384e"
       id="path151" />
    <path
       d="m 1420.5,755.5 c 25.12,5.342 50.12,10.675 75,16 -2.62,-0.268 -5.12,0.065 -7.5,1 -1.31,-2.391 -2.31,-2.391 -3,0 -0.67,-1.333 -1.67,-2.333 -3,-3 -2.96,0.913 -6.13,0.246 -9.5,-2 -1.24,3.811 -1.9,3.811 -2,0 -2.31,-0.486 -4.47,-0.486 -6.5,0 -9.64,-2.383 -19.64,-4.716 -30,-7 -1.11,0.085 -2.11,0.419 -3,1 -3.56,-1.946 -7.06,-3.946 -10.5,-6 z"
       fill="#1e273e"
       id="path152" />
    <path
       d="m 937.5,764.5 c -0.25,1.422 -1.083,2.422 -2.5,3 -2.466,0.066 -4.966,0.066 -7.5,0 -1.559,0.574 -3.059,1.24 -4.5,2 -0.333,-0.333 -0.667,-0.667 -1,-1 -1.171,2.116 -2.671,2.782 -4.5,2 -7.608,1.364 -15.274,2.364 -23,3 0,-0.333 0,-0.667 0,-1 14.272,-2.921 28.606,-5.588 43,-8 z"
       fill="#2d354c"
       id="path153" />
    <path
       d="m 894.5,772.5 v 1 c -6.981,1.162 -13.981,2.162 -21,3 6.735,-2.063 13.735,-3.397 21,-4 z"
       fill="#888f9c"
       id="path154" />
    <path
       d="m 859.5,780.5 c -1.546,2.382 -2.213,5.049 -2,8 -1.684,-3.218 -1.017,-5.885 2,-8 z"
       fill="#949ba8"
       id="path155" />
    <path
       d="m 1336.5,786.5 v 1 c -45.16,0.999 -90.5,1.332 -136,1 0,-0.333 0,-0.667 0,-1 h 4 c 43.71,-0.982 87.71,-1.316 132,-1 z"
       fill="#cc4a64"
       id="path156" />
    <path
       d="m 1062.5,788.5 c 45.84,-0.332 91.5,10e-4 137,1 -0.83,6.487 -1.33,13.154 -1.5,20 -0.5,-6.325 -0.67,-12.658 -0.5,-19 -42.98,0.29 -85.48,-0.043 -127.5,-1 -2,0.667 -4,1.333 -6,2 -0.83,-0.833 -1.67,-1.667 -2.5,-2.5 0.23,-0.399 0.56,-0.565 1,-0.5 z"
       fill="#111b33"
       id="path157" />
    <path
       d="m 1062.5,788.5 c 0,-0.333 0,-0.667 0,-1 h 1 136 1 v 1 c -0.66,62.009 0,123.676 2,185 -0.71,0.904 -1.71,1.237 -3,1 0,-61.667 0,-123.333 0,-185 -45.5,-0.999 -91.16,-1.332 -137,-1 z"
       fill="#9aa1ad"
       id="path158" />
    <path
       d="m 1336.5,787.5 c 0.84,0.342 1.17,1.008 1,2 0.43,24.034 -0.07,48.034 -1.5,72 -6.73,21.941 -18.9,40.441 -36.5,55.5 -17.16,14.079 -35.49,26.413 -55,37 -13.97,6.812 -27.97,13.312 -42,19.5 -2,-61.324 -2.66,-122.991 -2,-185 45.5,0.332 90.84,-10e-4 136,-1 z"
       fill="#f8f8f8"
       id="path159" />
    <path
       d="m 1000.5,811.5 c -5.421,1.648 -11.088,2.648 -17,3 5.387,-1.793 11.053,-2.793 17,-3 z"
       fill="#787f8e"
       id="path160" />
    <path
       d="m 946.5,820.5 c -6.776,1.635 -13.776,2.635 -21,3 6.662,-2.37 13.662,-3.37 21,-3 z"
       fill="#adb3bf"
       id="path161" />
    <path
       d="m 1459.5,820.5 c 3.28,-0.08 6.28,0.587 9,2 -3.28,0.08 -6.28,-0.587 -9,-2 z"
       fill="#7c8391"
       id="path162" />
    <path
       d="m 1470.5,822.5 c 11.01,1.149 22.01,1.149 33,0 -4.73,1.546 -9.73,2.213 -15,2 -6.23,0.12 -12.23,-0.547 -18,-2 z"
       fill="#616879"
       id="path163" />
    <path
       d="m 893.5,821.5 c 8.231,1.681 16.564,2.347 25,2 -5.819,1.153 -11.819,1.319 -18,0.5 -2.604,-0.39 -4.938,-1.224 -7,-2.5 z"
       fill="#545b6c"
       id="path164" />
    <path
       d="m 1272.5,830.5 c -0.38,2.198 0.29,3.865 2,5 1.49,4.283 2.82,8.616 4,13 0.11,0.617 0.44,1.117 1,1.5 9.06,-0.142 17.72,0.691 26,2.5 -0.83,1.764 -2.16,3.098 -4,4 -3.49,0.164 -5.82,1.831 -7,5 -2.93,2.807 -6.26,5.14 -10,7 2.76,5.375 4.76,11.042 6,17 -0.28,0.716 -0.62,1.549 -1,2.5 0.87,1.045 1.87,1.878 3,2.5 v 1 c 0.44,1.38 -0.4,2.38 -2.5,3 -3.33,-2.667 -6.67,-5.333 -10,-8 -0.4,0.228 -0.57,0.562 -0.5,1 -3.93,-2.081 -7.76,-4.414 -11.5,-7 -5.71,4.551 -11.54,8.884 -17.5,13 -1.64,-0.214 -3.14,0.12 -4.5,1 -0.17,-0.5 -0.33,-1 -0.5,-1.5 2.2,-5.294 3.53,-10.794 4,-16.5 0.22,-2.287 0.89,-4.453 2,-6.5 -0.24,-0.902 -0.58,-1.735 -1,-2.5 0.11,-0.617 0.44,-1.117 1,-1.5 -1.72,-1.559 -3.72,-2.392 -6,-2.5 0.09,-0.996 -0.25,-1.829 -1,-2.5 -1.72,-1.559 -3.72,-2.392 -6,-2.5 -2.27,-0.941 -4.27,-2.274 -6,-4 1.27,-1.287 0.93,-2.287 -1,-3 9.37,-0.35 18.37,-1.35 27,-3 1.09,-0.12 1.75,-0.787 2,-2 1.51,-5.702 3.51,-11.202 6,-16.5 -0.38,-0.951 -0.72,-1.784 -1,-2.5 -0.24,-4.027 1.43,-5.361 5,-4 1.08,2.229 1.74,4.563 2,7 z"
       fill="#f40d36"
       id="path165" />
    <path
       d="m 1394.5,825.5 c -1.66,12.133 -2.66,24.466 -3,37 0,-12.667 0,-25.333 0,-38 1.29,-0.237 2.29,0.096 3,1 z"
       fill="#5d6575"
       id="path166" />
    <path
       d="m 992.5,890.5 c -5.415,0.694 -10.415,2.36 -15,5 -14.907,4.469 -29.574,9.636 -44,15.5 -11.114,3.488 -22.114,3.321 -33,-0.5 0.149,-1.052 -0.017,-2.052 -0.5,-3 -1.657,-0.671 -3.657,-0.671 -6,0 -0.374,-0.916 -0.874,-1.75 -1.5,-2.5 -5.899,-2.986 -10.566,-6.653 -14,-11 l 1,-1 c -2.804,-1.636 -5.137,-3.803 -7,-6.5 0.881,-1.471 2.214,-2.304 4,-2.5 -0.457,-0.414 -0.791,-0.914 -1,-1.5 8.597,-4.912 17.93,-9.078 28,-12.5 l 6,-3 c -0.556,-0.383 -0.889,-0.883 -1,-1.5 24.447,-10.17 48.78,-20.17 73,-30 4.401,-0.906 8.401,-2.572 12,-5 4.484,-2.17 9.15,-4.17 14,-6 0.07,19.839 1.73,39.506 5,59 -6.96,1.733 -13.631,4.067 -20,7 z"
       fill="#162445"
       id="path167" />
    <path
       d="m 1395.5,826.5 c 9.03,2.619 17.69,6.119 26,10.5 10.57,3.885 20.9,8.218 31,13 8.6,3.474 17.27,6.641 26,9.5 2.98,2.159 6.32,3.825 10,5 5.8,2.713 11.8,5.046 18,7 1.53,1.745 3.53,2.745 6,3 5.45,1.594 10.45,3.928 15,7 0.72,2.264 1.05,4.597 1,7 -17.03,22.428 -39.03,29.428 -66,21 -3.58,-2.306 -7.58,-3.639 -12,-4 -16.91,-5.645 -33.58,-11.645 -50,-18 -0.36,-1.37 -1.19,-2.37 -2.5,-3 -3.17,-0.667 -6,-2 -8.5,-4 1.87,-5.169 3.03,-10.502 3.5,-16 0.19,-12.046 0.69,-24.046 1.5,-36 -1.48,-1.444 -1.15,-2.111 1,-2 z"
       fill="#162344"
       id="path168" />
    <path
       d="m 1394.5,825.5 c 0.67,0 1,0.333 1,1 -2.15,-0.111 -2.48,0.556 -1,2 -0.81,11.954 -1.31,23.954 -1.5,36 -0.47,5.498 -1.63,10.831 -3.5,16 2.5,2 5.33,3.333 8.5,4 1.31,0.63 2.14,1.63 2.5,3 -4.41,-1.14 -8.57,-2.806 -12.5,-5 0.26,-6.914 1.43,-13.581 3.5,-20 0.34,-12.534 1.34,-24.867 3,-37 z"
       fill="#232b42"
       id="path169" />
    <path
       d="m 993.5,830.5 c -3.599,2.428 -7.599,4.094 -12,5 3.452,-2.719 7.452,-4.385 12,-5 z"
       fill="#555d6e"
       id="path170" />
    <path
       d="m 1272.5,830.5 c 1.04,1.43 1.7,3.097 2,5 -1.71,-1.135 -2.38,-2.802 -2,-5 z"
       fill="#d45d77"
       id="path171" />
    <path
       d="m 1265.5,827.5 c 0.28,0.716 0.62,1.549 1,2.5 -2.49,5.298 -4.49,10.798 -6,16.5 -0.25,1.213 -0.91,1.88 -2,2 2.1,-7.17 4.43,-14.17 7,-21 z"
       fill="#c63954"
       id="path172" />
    <path
       d="m 1258.5,848.5 c -8.63,1.65 -17.63,2.65 -27,3 1.93,0.713 2.27,1.713 1,3 -3.23,-1.494 -3.57,-3.327 -1,-5.5 8.99,-0.5 17.99,-0.666 27,-0.5 z"
       fill="#c73c56"
       id="path173" />
    <path
       d="m 1278.5,848.5 c 9.36,-0.332 18.69,0.002 28,1 1.59,1.725 1.26,2.725 -1,3 -8.28,-1.809 -16.94,-2.642 -26,-2.5 -0.56,-0.383 -0.89,-0.883 -1,-1.5 z"
       fill="#c73b56"
       id="path174" />
    <path
       d="m 1301.5,856.5 c -2.12,1.9 -4.45,3.566 -7,5 1.18,-3.169 3.51,-4.836 7,-5 z"
       fill="#ca435d"
       id="path175" />
    <path
       d="m 1238.5,858.5 c 2.28,0.108 4.28,0.941 6,2.5 0.75,0.671 1.09,1.504 1,2.5 -2.55,-1.434 -4.88,-3.1 -7,-5 z"
       fill="#c73c56"
       id="path176" />
    <path
       d="m 1478.5,859.5 c 2.32,0.66 4.65,1.327 7,2 1.68,0.368 2.68,1.368 3,3 -3.68,-1.175 -7.02,-2.841 -10,-5 z"
       fill="#b0b6c0"
       id="path177" />
    <path
       d="m 1245.5,863.5 c 2.28,0.108 4.28,0.941 6,2.5 -0.56,0.383 -0.89,0.883 -1,1.5 -1.89,-1.104 -3.56,-2.437 -5,-4 z"
       fill="#c93c56"
       id="path178" />
    <path
       d="m 1506.5,871.5 c 2.47,0.255 4.47,1.255 6,3 -2.47,-0.255 -4.47,-1.255 -6,-3 z"
       fill="#707887"
       id="path179" />
    <path
       d="m 1527.5,881.5 c 1.49,0.812 2.16,2.145 2,4 -0.02,1.226 -0.35,2.226 -1,3 0.05,-2.403 -0.28,-4.736 -1,-7 z"
       fill="#8e95a2"
       id="path180" />
    <path
       d="m 1290.5,885.5 c 1.04,1.43 1.7,3.097 2,5 -1.13,-0.622 -2.13,-1.455 -3,-2.5 0.38,-0.951 0.72,-1.784 1,-2.5 z"
       fill="#cf516b"
       id="path181" />
    <path
       d="m 775.5,880.5 c 1.35,8.819 2.35,17.819 3,27 -2.214,-8.727 -3.214,-17.727 -3,-27 z"
       fill="#d1b9a3"
       id="path182" />
    <path
       d="m 908.5,865.5 c 0.111,0.617 0.444,1.117 1,1.5 -2,1 -4,2 -6,3 -10.07,3.422 -19.403,7.588 -28,12.5 0.209,0.586 0.543,1.086 1,1.5 -1.786,0.196 -3.119,1.029 -4,2.5 1.863,2.697 4.196,4.864 7,6.5 -0.333,0.333 -0.667,0.667 -1,1 3.434,4.347 8.101,8.014 14,11 0.626,0.75 1.126,1.584 1.5,2.5 2.343,-0.671 4.343,-0.671 6,0 0.483,0.948 0.649,1.948 0.5,3 -9.665,-2.923 -17.831,-8.257 -24.5,-16 -1.333,-2 -2.667,-4 -4,-6 -1.643,-4.928 -0.143,-8.428 4.5,-10.5 10.556,-4.445 21.223,-8.611 32,-12.5 z"
       fill="#212a41"
       id="path183" />
    <path
       d="m 992.5,890.5 c -4.716,2.239 -9.716,3.905 -15,5 4.585,-2.64 9.585,-4.306 15,-5 z"
       fill="#a4aab6"
       id="path184" />
    <path
       d="m 1249.5,876.5 c -0.47,5.706 -1.8,11.206 -4,16.5 0.17,0.5 0.33,1 0.5,1.5 1.36,-0.88 2.86,-1.214 4.5,-1 -1.33,1.152 -2.83,2.152 -4.5,3 -1.5,-0.167 -2.33,-1 -2.5,-2.5 1.79,-6.038 3.79,-11.871 6,-17.5 z"
       fill="#c83e58"
       id="path185" />
    <path
       d="m 1292.5,891.5 c 1.1,1.101 1.26,2.434 0.5,4 -0.56,0.522 -1.23,0.855 -2,1 -4.3,-2.468 -8.13,-5.468 -11.5,-9 -0.07,-0.438 0.1,-0.772 0.5,-1 3.33,2.667 6.67,5.333 10,8 2.1,-0.62 2.94,-1.62 2.5,-3 z"
       fill="#c83b55"
       id="path186" />
    <path
       d="m 1450.5,905.5 c 4.42,0.361 8.42,1.694 12,4 -4.42,-0.361 -8.42,-1.694 -12,-4 z"
       fill="#5f6777"
       id="path187" />
    <path
       d="m 1320.5,994.5 c -0.02,1.528 -0.68,2.028 -2,1.5 1.13,-1.016 0.8,-1.683 -1,-2 0.67,-0.333 1.33,-0.667 2,-1 -1.43,-0.465 -2.6,-1.299 -3.5,-2.5 -1.49,-2.978 -2.99,-5.978 -4.5,-9 -7.17,3.423 -14.5,7.256 -22,11.5 1.15,0.914 0.99,1.747 -0.5,2.5 -0.41,-0.457 -0.91,-0.791 -1.5,-1 -2.51,1.421 -4.84,3.088 -7,5 -0.8,-0.457 -1.13,-1.124 -1,-2 10.56,-6.212 20.9,-12.879 31,-20 4.63,4.94 7.97,10.607 10,17 z"
       fill="#242c43"
       id="path188" />
    <path
       d="m 1630.5,977.5 c -25.58,68.75 -68.58,123.91 -129,165.5 -0.95,0.48 -1.95,0.65 -3,0.5 35.91,-24.91 66.58,-55.24 92,-91 0.81,-1.57 1.14,-3.24 1,-5 1.18,0.22 2.18,-0.11 3,-1 13.86,-22.05 25.86,-45.05 36,-69 z"
       fill="#ddc1ac"
       opacity="0.361"
       id="path189" />
    <path
       d="m 1077.5,1055.5 c -7.03,0.12 -14.03,-0.21 -21,-1 -6.72,-2.13 -8.56,-6.46 -5.5,-13 5.45,-8.5 10.61,-17.17 15.5,-26 2.29,-1.12 4.12,-2.79 5.5,-5 1.95,-4.27 4.28,-8.27 7,-12 1.15,-2.918 1.98,-5.918 2.5,-9 2.45,-3.782 4.45,-7.782 6,-12 15.09,9.765 30.43,19.098 46,28 -7.65,13.8 -16.65,26.63 -27,38.5 -4.24,2.85 -8.57,5.52 -13,8 -5.21,1.8 -10.54,2.97 -16,3.5 z"
       fill="#162344"
       id="path190" />
    <path
       d="m 1320.5,994.5 c 0.96,0.453 1.79,1.119 2.5,2 8.53,16.22 17.53,32.22 27,48 1.58,4.66 0.08,7.66 -4.5,9 -2.57,0.22 -4.9,0.89 -7,2 -22.55,3.49 -40.71,-3.84 -54.5,-22 -6.03,-9.2 -11.86,-18.53 -17.5,-28 3.69,-3.78 8.02,-6.444 13,-8 -0.13,0.876 0.2,1.543 1,2 2.16,-1.912 4.49,-3.579 7,-5 0.59,0.209 1.09,0.543 1.5,1 1.49,-0.753 1.65,-1.586 0.5,-2.5 7.5,-4.244 14.83,-8.077 22,-11.5 1.51,3.022 3.01,6.022 4.5,9 0.9,1.201 2.07,2.035 3.5,2.5 -0.67,0.333 -1.33,0.667 -2,1 1.8,0.317 2.13,0.984 1,2 1.32,0.528 1.98,0.028 2,-1.5 z"
       fill="#162344"
       id="path191" />
    <path
       d="m 1081.5,989.5 c -0.52,3.082 -1.35,6.082 -2.5,9 -2.72,3.73 -5.05,7.73 -7,12 -1.38,2.21 -3.21,3.88 -5.5,5 5,-8.67 10,-17.341 15,-26 z"
       fill="#2c344a"
       id="path192" />
    <path
       d="m 1163.5,1018.5 c -8,-0.72 -15,-3.05 -21,-7 -0.93,1.61 -1.76,3.28 -2.5,5 -0.67,0.75 -1.5,1.09 -2.5,1 -0.29,-4.02 1.21,-7.02 4.5,-9 6.86,4.02 14.03,7.35 21.5,10 z"
       fill="#2d354b"
       id="path193" />
    <path
       d="m 1291.5,1106.5 c 0.77,3.65 2.1,6.98 4,10 1.82,5.62 3.49,11.29 5,17 1,4.67 2,9.33 3,14 -0.42,2.25 -1.75,3.75 -4,4.5 -22.92,2.29 -41.08,-5.88 -54.5,-24.5 -10.28,-26.22 -20.28,-52.56 -30,-79 -0.67,-0.67 -1.33,-1.33 -2,-2 -2.38,-5.77 -3.88,-11.77 -4.5,-18 4.34,-1.06 8.68,-2.22 13,-3.5 13.11,-5.9 26.11,-11.73 39,-17.5 10.14,33.07 20.47,66.07 31,99 z"
       fill="#172445"
       id="path194" />
    <path
       d="m 1163.5,1018.5 c 9.51,4.25 19.17,8.25 29,12 -10.01,24.53 -19.34,49.36 -28,74.5 -3.54,7.03 -6.71,14.2 -9.5,21.5 -9.35,13.75 -22.18,22.09 -38.5,25 -17.88,2.99 -22.71,-3.34 -14.5,-19 0.5,-2.98 0.66,-5.98 0.5,-9 6.33,-19.33 12.67,-38.66 19,-58 3.2,-2.99 5.2,-6.83 6,-11.5 1.1,-3.14 2.1,-6.3 3,-9.5 -0.11,-0.94 -0.44,-1.78 -1,-2.5 2.73,-4.86 5.06,-9.86 7,-15 -0.59,-0.46 -1.26,-0.63 -2,-0.5 0.43,-3.28 1.43,-6.28 3,-9 1,0.09 1.83,-0.25 2.5,-1 0.74,-1.72 1.57,-3.39 2.5,-5 6,3.95 13,6.28 21,7 z"
       fill="#162344"
       id="path195" />
    <path
       d="m 1614.5,940.5 c -0.75,6.389 -1.92,12.722 -3.5,19 -5.21,13.908 -11.05,27.408 -17.5,40.5 -0.03,3.56 -1.86,7.06 -5.5,10.5 -4.97,12.61 -11.97,23.94 -21,34 -2.25,3.51 -4.25,7.17 -6,11 -1.01,-0.84 -2.18,-1.17 -3.5,-1 8.3,-11.82 16.47,-23.82 24.5,-36 13.68,-24.891 24.51,-50.891 32.5,-78 z"
       fill="#caa788"
       opacity="0.996"
       id="path196" />
    <path
       d="m 1134.5,1026.5 c 0.74,-0.13 1.41,0.04 2,0.5 -1.94,5.14 -4.27,10.14 -7,15 0.56,0.72 0.89,1.56 1,2.5 -0.9,3.2 -1.9,6.36 -3,9.5 -0.8,4.67 -2.8,8.51 -6,11.5 3.73,-13.2 8.07,-26.2 13,-39 z"
       fill="#2c344a"
       id="path197" />
    <path
       d="m 1345.5,1053.5 c -1.94,1.66 -4.27,2.33 -7,2 2.1,-1.11 4.43,-1.78 7,-2 z"
       fill="#626a7a"
       id="path198" />
    <path
       d="m 1056.5,1054.5 c 6.97,0.79 13.97,1.12 21,1 -2.81,0.66 -5.81,1 -9,1 -4.3,0.22 -8.3,-0.44 -12,-2 z"
       fill="#5d6575"
       id="path199" />
    <path
       d="m 1555.5,1056.5 c 0.27,1.95 -0.39,3.45 -2,4.5 l 1,1 c -1.53,0.7 -2.53,1.87 -3,3.5 -0.82,0.89 -1.82,1.22 -3,1 0.16,1.37 -0.01,2.71 -0.5,4 -7.49,7.15 -14.65,14.65 -21.5,22.5 -1.29,0.49 -2.63,0.66 -4,0.5 0.15,1.05 -0.02,2.05 -0.5,3 -2.82,1.82 -5.32,3.99 -7.5,6.5 -2.74,1.92 -5.74,3.08 -9,3.5 18.25,-14.92 34.92,-31.59 50,-50 z"
       fill="#caa586"
       opacity="0.996"
       id="path200" />
    <path
       d="m 748.5,556.5 c 0.833,107.166 1.333,214.499 1.5,322 0.542,12.752 1.875,25.418 4,38 18.421,95.53 67.254,171.2 146.5,227 -2.08,-0.54 -4.08,-1.38 -6,-2.5 -84.771,-61.45 -133.437,-144.782 -146,-250 0.076,-9.35 0.076,-18.85 0,-28.5 0,-102 0,-204 0,-306 z"
       fill="#dabda6"
       opacity="0.529"
       id="path201" />
    <path
       d="m 1505.5,1106.5 c 1,1.95 0.83,3.95 -0.5,6 -1.33,0 -2.67,0 -4,0 -0.83,1 -1.67,2 -2.5,3 -7.24,3.92 -13.74,8.25 -19.5,13 -0.33,-0.33 -0.67,-0.67 -1,-1 -3.2,3.31 -6.7,6.15 -10.5,8.5 -5.44,1.11 -9.44,4.11 -12,9 -5.72,1.64 -10.72,3.14 -15,4.5 22.21,-13.6 43.88,-27.93 65,-43 z"
       fill="#caa687"
       opacity="0.996"
       id="path202" />
    <path
       d="m 1291.5,1106.5 c 2.29,2.84 3.62,6.17 4,10 -1.9,-3.02 -3.23,-6.35 -4,-10 z"
       fill="#9ba1ae"
       id="path203" />
    <path
       d="m 1300.5,1133.5 c 2.72,4.44 3.72,9.1 3,14 -1,-4.67 -2,-9.33 -3,-14 z"
       fill="#606878"
       id="path204" />
    <path
       d="m 1102.5,1123.5 c 0.16,3.02 0,6.02 -0.5,9 -8.21,15.66 -3.38,21.99 14.5,19 -5.48,1.15 -11.15,1.32 -17,0.5 -3.17,-2.48 -4.34,-5.65 -3.5,-9.5 2.9,-6.21 5.07,-12.54 6.5,-19 z"
       fill="#32394f"
       id="path205" />
    <path
       d="m 928.5,1130.5 c 13.836,8.31 27.836,16.48 42,24.5 1.21,1.04 2.21,2.21 3,3.5 -3.847,-0.51 -7.18,-2.18 -10,-5 -1.896,-0.97 -3.896,-1.3 -6,-1 0,-1 0,-2 0,-3 -3.509,0.13 -6.342,-1.2 -8.5,-4 -2.021,0.74 -3.521,-0.1 -4.5,-2.5 0.333,-0.33 0.667,-0.67 1,-1 -4.147,0.19 -6.98,-1.65 -8.5,-5.5 -0.333,0.33 -0.667,0.67 -1,1 -1.976,-0.93 -3.809,-2.09 -5.5,-3.5 0.333,-0.33 0.667,-0.67 1,-1 -1.619,-0.24 -2.619,-1.07 -3,-2.5 z"
       fill="#cba788"
       opacity="0.996"
       id="path206" />
    <path
       d="m 1498.5,1143.5 c -1.41,1.92 -3.08,3.75 -5,5.5 -14.68,9 -29.34,18 -44,27 -3.57,1.8 -7.24,3.3 -11,4.5 20.29,-11.82 40.29,-24.15 60,-37 z"
       fill="#dec2ad"
       opacity="0.361"
       id="path207" />
    <path
       d="m 900.5,1143.5 c 9.443,5.22 18.776,10.72 28,16.5 3.58,2.28 6.914,4.78 10,7.5 -2.401,-0.55 -4.735,-1.38 -7,-2.5 -9.071,-6.4 -18.404,-12.4 -28,-18 -1.563,-0.76 -2.563,-1.93 -3,-3.5 z"
       fill="#dcc0ab"
       opacity="0.529"
       id="path208" />
    <path
       d="m 1400.5,1171.5 c -3.81,6.18 -9.48,9.18 -17,9 0.16,1.7 -0.01,3.37 -0.5,5 -0.33,-0.67 -0.67,-1.33 -1,-2 -7.69,4.29 -15.52,7.45 -23.5,9.5 -1.33,0.67 -1.33,1.33 0,2 -3.41,1.93 -7.07,2.77 -11,2.5 17.44,-8.89 35.11,-17.55 53,-26 z"
       fill="#caa889"
       opacity="0.996"
       id="path209" />
    <path
       d="m 938.5,1167.5 c 21.339,11.11 42.339,22.77 63,35 -2.731,-0.53 -5.398,-1.36 -8,-2.5 -14.511,-8.38 -29.178,-16.38 -44,-24 -3.914,-2.75 -7.581,-5.59 -11,-8.5 z"
       fill="#dcc0ab"
       opacity="0.361"
       id="path210" />
    <path
       d="m 1031.5,1188.5 c 9.17,2.59 17.84,6.25 26,11 -4.44,-0.42 -8.77,-1.42 -13,-3 -0.33,-0.67 -0.67,-1.33 -1,-2 -2.33,-0.67 -4.67,-1.33 -7,-2 -2.33,-0.64 -3.99,-1.98 -5,-4 z"
       fill="#cdaa8c"
       opacity="0.996"
       id="path211" />
    <path
       d="m 1438.5,1180.5 c -0.44,1.57 -1.44,2.74 -3,3.5 -64.21,34.16 -130.88,62.83 -200,86 -10.74,2.62 -21.57,4.78 -32.5,6.5 -12.5,-0.9 -25.33,-3.07 -38.5,-6.5 -38.36,-12.5 -75.69,-27 -112,-43.5 35.96,14.38 72.29,27.88 109,40.5 12.69,4 25.69,6.5 39,7.5 16.21,-1.15 31.88,-4.65 47,-10.5 66.2,-22.44 129.87,-50.28 191,-83.5 z"
       fill="#dcc0ab"
       opacity="0.529"
       id="path212" />
    <path
       d="m 1326.5,1206.5 c 1.48,0.97 1.98,2.31 1.5,4 -0.63,-2.49 -1.46,-2.49 -2.5,0 -4.4,0.75 -8.4,2.41 -12,5 -0.67,-0.33 -1.33,-0.67 -2,-1 -5.23,1.91 -9.73,3.91 -13.5,6 -0.41,-0.46 -0.91,-0.79 -1.5,-1 -1.08,1.17 -1.92,2.5 -2.5,4 -2.95,-0.18 -6.12,-0.18 -9.5,0 v 4 c -4.05,0.38 -8.38,0.88 -13,1.5 l 1,1 c -2.66,1.58 -5.49,2.75 -8.5,3.5 -0.87,-0.24 -1.71,-0.57 -2.5,-1 -0.78,1.24 -1.78,2.24 -3,3 -1.24,-0.75 -2.57,-1.08 -4,-1 v 3 c -1.89,-0.2 -3.39,0.46 -4.5,2 -2.37,0.31 -4.87,-0.03 -7.5,-1 28.02,-10.45 56.02,-21.12 84,-32 z"
       fill="#cba788"
       opacity="0.996"
       id="path213" />
    <path
       d="m 1072.5,1206.5 c 17.27,6.3 34.27,12.97 51,20 -1.32,-0.17 -2.49,0.16 -3.5,1 -9.45,-3.7 -18.95,-7.2 -28.5,-10.5 l 1,-1 c -3.19,-1.44 -6.36,-2.94 -9.5,-4.5 -2.28,0.61 -4.61,0.27 -7,-1 -1.75,-0.91 -2.92,-2.24 -3.5,-4 z"
       fill="#cca98a"
       opacity="0.996"
       id="path214" />
    <path
       d="m 1001.5,1202.5 c 7.7,2.79 15.37,5.79 23,9 9.47,5.02 18.81,10.02 28,15 -12.61,-4.7 -24.95,-9.87 -37,-15.5 -4.93,-2.62 -9.6,-5.45 -14,-8.5 z"
       fill="#dcc0ab"
       opacity="0.361"
       id="path215" />
    <path
       d="m 1128.5,1228.5 c 14.68,4.73 29.35,9.56 44,14.5 7.69,2.34 15.36,4.17 23,5.5 -7.17,0.26 -14.5,-0.24 -22,-1.5 -0.67,-0.67 -1.33,-1.33 -2,-2 -5.26,-0.26 -9.76,-2.09 -13.5,-5.5 -0.33,0.67 -0.67,1.33 -1,2 -1.34,-1.5 -3,-2.5 -5,-3 -0.33,0.33 -0.67,0.67 -1,1 -1.8,-1.5 -3.63,-3 -5.5,-4.5 -3.94,0.48 -7.77,-0.35 -11.5,-2.5 -0.33,0.33 -0.67,0.67 -1,1 -1.93,-1.6 -4.1,-2.77 -6.5,-3.5 0.92,-0.28 1.58,-0.78 2,-1.5 z"
       fill="#cca98b"
       opacity="0.996"
       id="path216" />
    <path
       d="m 1242.5,1238.5 v 3 c -9.48,2.09 -18.98,4.76 -28.5,8 -4.33,-1.28 -8.16,-0.95 -11.5,1 -1.1,-1.12 -2.27,-1.12 -3.5,0 -1.46,-0.31 -2.63,-0.97 -3.5,-2 5.23,0.04 10.9,-0.46 17,-1.5 10,-2.95 20,-5.78 30,-8.5 z"
       fill="#cba889"
       opacity="0.996"
       id="path217" />
  </g>
</svg>
