<svg xmlns="http://www.w3.org/2000/svg" width="305.1717073917017" height="327.6843743304338" viewBox="0 0 366.36066 393.31546"><g style="fill:#ffc525;fill-opacity:1"><path d="M0 0h-4.112v-3.545c0-.5.057-.935.192-1.422.625-2.256 2.272-3.955 3.92-5.083 1.648 1.128 3.295 2.827 3.92 5.083.135.487.193.922.193 1.422V0Z" style="fill:#ffc525;fill-opacity:1;fill-rule:nonzero;stroke:none" transform="matrix(32.95203 0 0 -32.95203 184.406 0)"/></g><g style="fill:#01963a;fill-opacity:1"><path d="M0 0v-3.4c0-.481.058-.92.187-1.382.572-2.068 2.049-3.74 3.78-4.946 1.731 1.206 3.208 2.878 3.78 4.946.128.462.187.901.187 1.382V0Z" style="fill:#01963a;fill-opacity:1;fill-rule:nonzero;stroke:none" transform="matrix(32.95203 0 0 -32.95203 53.695 4.785)"/></g><g style="fill:#ffc525;fill-opacity:1"><path d="M0 0v.779h2.107V0h1.474v-.742h1.324v2.84h-7.702v-2.84h1.323V0Z" style="fill:#ffc525;fill-opacity:1;fill-rule:nonzero;stroke:none" transform="matrix(32.95203 0 0 -32.95203 149.688 77.773)"/></g><path d="M0 0a4.267 4.267 0 0 1-.03.227L-.128.112C-.09.076-.052.039-.015 0Zm2.8.504a2.21 2.21 0 0 1-.014-.413c.03.041.069.079.108.123.08.089.175.178.281.24-.114.096-.229.191-.343.283ZM.614.798.83.653c.193-.13.39-.31.449-.534.086.183.2.351.338.5a.11.11 0 0 0 .04.037c.062.036.124.007.163-.042a.603.603 0 0 0 .036-.052c.035-.054.066-.112.097-.168.069-.133.133-.273.184-.416h.017c.015.273.243.488.467.638l.197.133c-.333.268-.664.516-.993.731-.068.045-.058.046-.068-.034l-.032-.272c-.005-.037-.012-.136-.074-.124-.05.009-.056.091-.062.13l-.044.256c-.011.066-.002.067-.062.034A5.045 5.045 0 0 1 .233.513C.357.451.465.351.556.251.595.207.634.169.663.128.671.264.668.399.649.54ZM3.48.194a4.342 4.342 0 0 1-.03-.229l.014-.001c.044.044.088.088.132.129v.001l-.116.1" style="fill:#fff;fill-opacity:1;fill-rule:nonzero;stroke:none" transform="matrix(32.95203 0 0 -32.95203 131.43 143.177)"/><path d="m0 0 .097.115a2.265 2.265 0 0 1-.013.073A6.12 6.12 0 0 1-.042.04L0 0" style="fill:#eed43f;fill-opacity:1;fill-rule:nonzero;stroke:none" transform="matrix(32.95203 0 0 -32.95203 127.228 139.493)"/><path d="m0 0 .115-.101.043.041-.004.003-.142.123L0 0" style="fill:#eed43f;fill-opacity:1;fill-rule:nonzero;stroke:none" transform="matrix(32.95203 0 0 -32.95203 246.119 136.774)"/><path d="M0 0c.015.038.029.029.041 0a.61.61 0 0 1 .358-.401c.18-.073.392-.077.582-.117.21-.046.463-.086.64-.217.263-.195.376-.569.428-1.017a4.74 4.74 0 0 1-.55.208c-.385.114-.834.108-1.172.343-.209.145-.315.372-.357.616-.032.189-.02.384.03.585" style="fill:#eed43f;fill-opacity:1;fill-rule:nonzero;stroke:none" transform="matrix(32.95203 0 0 -32.95203 110.106 209.549)"/><g style="fill:#ffc525;fill-opacity:1"><g style="fill:#ffc525;fill-opacity:1"><path d="M0 0c.359.37.765.698 1.25.957.061.033.051.033.062-.034l.044-.256c.007-.039.012-.121.062-.13.062-.012.069.087.074.125l.033.271c.01.08-.001.079.068.034.328-.215.66-.463.992-.731l.017.011-.003-.023c.114-.092.229-.187.343-.283l.057.03c-.441.371-.896.731-1.375 1.045-.033.022-.07.054-.113.034-.041-.021-.039-.071-.044-.11L1.434.669a.406.406 0 0 0-.009-.057c-.006.022-.01.054-.012.065L1.37.933c-.006.036-.006.076-.044.096-.037.02-.072-.003-.104-.02A5.153 5.153 0 0 1-.056.025C-.037.018-.019.009 0 0" style="fill:#ffc525;fill-opacity:1;fill-rule:nonzero;stroke:none" transform="matrix(32.95203 0 0 -32.95203 139.104 126.276)"/></g><g style="fill:#ffc525;fill-opacity:1"><path d="M0 0c.235-1.723.965-2.48 1.971-2.697-.632.319-1.256.657-1.307 2.2C.433-.261.206-.057 0 0" style="fill:#ffc525;fill-opacity:1;fill-rule:nonzero;stroke:none" transform="matrix(32.95203 0 0 -32.95203 109.048 126.816)"/></g><g style="fill:#ffc525;fill-opacity:1"><path d="M0 0c-.236-1.723-.965-2.481-1.972-2.696.633.318 1.256.656 1.307 2.2.232.235.458.44.665.496" style="fill:#ffc525;fill-opacity:1;fill-rule:nonzero;stroke:none" transform="matrix(32.95203 0 0 -32.95203 267.498 128.035)"/></g><g style="fill:#ffc525;fill-opacity:1"><path d="M0 0c.068-.258.08-.498.105-.759.093-.979.559-1.526 1.22-1.846C.796-2.05.489-1.387.57-.532c.011.111-.067.168-.141.25C.291-.13.149-.022 0 0" style="fill:#ffc525;fill-opacity:1;fill-rule:nonzero;stroke:none" transform="matrix(32.95203 0 0 -32.95203 132.757 128.187)"/></g><g style="fill:#ffc525;fill-opacity:1"><path d="M0 0c-.068-.258-.08-.498-.105-.759-.094-.979-.559-1.526-1.22-1.846.529.555.836 1.217.755 2.071-.01.112.067.17.141.251.138.153.28.26.429.283" style="fill:#ffc525;fill-opacity:1;fill-rule:nonzero;stroke:none" transform="matrix(32.95203 0 0 -32.95203 243.77 129.38)"/></g><g style="fill:#ffc525;fill-opacity:1"><path d="M0 0c.044-.323.006-.602-.036-.917-.086-.652.226-1.214.769-1.725-.457.719-.491 1.358-.332 1.96.077.29-.16.52-.401.682" style="fill:#ffc525;fill-opacity:1;fill-rule:nonzero;stroke:none" transform="matrix(32.95203 0 0 -32.95203 156.624 124.849)"/></g><g style="fill:#ffc525;fill-opacity:1"><path d="M0 0c-.044-.322-.007-.602.035-.916.086-.653-.226-1.216-.769-1.725.458.719.492 1.357.332 1.959-.077.29.16.52.402.682" style="fill:#ffc525;fill-opacity:1;fill-rule:nonzero;stroke:none" transform="matrix(32.95203 0 0 -32.95203 219.922 126.065)"/></g><g style="fill:#ffc525;fill-opacity:1"><path d="M0 0a1.857 1.857 0 0 1-.489-1.528c.071-.517.279-.896.548-1.214.232.416.33.85.366 1.331.011.138.017.27-.006.407C.339-.5-.005.05 0 0" style="fill:#ffc525;fill-opacity:1;fill-rule:nonzero;stroke:none" transform="matrix(32.95203 0 0 -32.95203 187.896 125.004)"/></g><g style="fill:#ffc525;fill-opacity:1"><path d="m0 0 .151-.005.027-1.511c.058-.225.123-.43.205-.593l-.246-.296s-.247.237-.259.259c-.011.023.094.613.094.623z" style="fill:#ffc525;fill-opacity:1;fill-rule:nonzero;stroke:none" transform="matrix(32.95203 0 0 -32.95203 185.335 222.627)"/></g><g style="fill:#ffc525;fill-opacity:1"><path d="M0 0c.015.038.029.029.041 0a.61.61 0 0 1 .358-.401c.18-.073.392-.077.582-.117.21-.046.463-.086.64-.217.263-.195.376-.569.428-1.017a4.74 4.74 0 0 1-.55.208c-.385.114-.834.108-1.172.343-.209.145-.315.372-.357.616-.032.189-.02.384.03.585" style="fill:#ffc525;fill-opacity:1;fill-rule:nonzero;stroke:none" transform="matrix(32.95203 0 0 -32.95203 110.106 209.549)"/></g><g style="fill:#ffc525;fill-opacity:1"><path d="M0 0c-.015.038-.029.029-.041 0a.61.61 0 0 0-.358-.401c-.18-.073-.392-.076-.582-.117-.21-.046-.463-.086-.64-.217-.263-.195-.376-.57-.428-1.017.179.081.362.151.55.207.385.115.834.109 1.173.344.208.145.314.371.356.616C.062-.396.05-.201 0 0" style="fill:#ffc525;fill-opacity:1;fill-rule:nonzero;stroke:none" transform="matrix(32.95203 0 0 -32.95203 265.725 209.565)"/></g></g><g style="fill:#ffc525;fill-opacity:1"><path d="M0 0c.187-.058.377-.108.572-.137a4.82 4.82 0 0 1 2.202.17L2.529.72l.125.046c1.181.436 2.057 1.195 2.71 2.257l.104.169.13-.149c.252-.29.264-.686.23-1.057.243.112.482.281.684.428l.229.17c-.006-.239-.01-.371-.116-.586-.251-.511-.645-.951-1.043-1.352L5.573.637l.295-.278.105-.099-.099-.107a6.101 6.101 0 0 0-1.495-1.185 6.21 6.21 0 0 0-2.343-.721c-1.18-.128-2.485.006-3.558.537A7.427 7.427 0 0 0-3.1-.128l-.11.095.096.11.359.409-.008.009c-.594.514-1.21 1.177-1.464 1.935l-.15.445.375-.282c.214-.161.48-.351.754-.429.003.285.106.547.24.807l.116.225.136-.214C-2.083 1.921-1.168 1.169.027.772L.075.757Z" style="fill:#ffc525;fill-opacity:1;fill-rule:nonzero;stroke:none" transform="matrix(32.95203 0 0 -32.95203 144.231 334.064)"/></g><g style="fill:#01963a;fill-opacity:1"><path d="M0 0c.329-.248.659-.458 1-.492-.053.333.061.63.21.919.694-1.092 1.636-1.863 2.861-2.27a6.666 6.666 0 0 0-1.879.231c.511-.479 1.074-.744 1.655-.939.263-.088.519-.165.793-.207a5.017 5.017 0 0 1 2.477.244c.63.222 1.193.602 1.681 1.057l-2.003-.39c1.27.469 2.148 1.285 2.782 2.318.258-.296.226-.733.17-1.183.299.09.617.295.94.533-.221-.58-.647-1.073-1.118-1.549l-.466.412a4.81 4.81 0 0 0-.101-.101l.855-.807a5.938 5.938 0 0 0-1.459-1.158 6.074 6.074 0 0 0-2.288-.703c-1.15-.125-2.43.004-3.477.523-.544.269-1.056.636-1.548 1.066l.829.945-.077.106-.415-.427C.709-1.254.212-.631 0 0" style="fill:#01963a;fill-opacity:1;fill-rule:nonzero;stroke:none" transform="matrix(32.95203 0 0 -32.95203 9.47 252.455)"/></g><g style="stroke:#fff;stroke-opacity:1;stroke-width:.04552072;stroke-miterlimit:4;stroke-dasharray:none;fill:#fff;fill-opacity:1"><path d="m0 0 .193.135-.17.116A2.15 2.15 0 0 0-.099.34.865.865 0 0 0-.054.21Zm0-.347-.18.72.081.057.63-.405-.086-.061L.259.09.021-.076.08-.291Zm-.271.114.092.023A.309.309 0 0 0-.19-.411.286.286 0 0 0-.324-.55a.332.332 0 0 0-.181-.045.284.284 0 0 0-.157.067.47.47 0 0 0-.172.333c0 .06.016.115.047.163a.35.35 0 0 0 .128.116.29.29 0 0 0 .18.036.288.288 0 0 0 .157-.085l-.07-.062a.21.21 0 0 1-.113.065.19.19 0 0 1-.118-.024.219.219 0 0 1-.1-.097.194.194 0 0 1-.018-.126.428.428 0 0 1 .138-.252.196.196 0 0 1 .117-.049.223.223 0 0 1 .119.026.196.196 0 0 1 .094.101.231.231 0 0 1 .002.15m-.564-.533-.271.638.085.036.27-.639zm-.742.152.188.061A.295.295 0 0 1-1.3-.51c.02.015.033.034.038.056a.11.11 0 0 1-.06.131c-.029.012-.068.011-.117-.005l-.209-.068zm.032-.396-.214.659.293.095a.425.425 0 0 0 .139.025.153.153 0 0 0 .094-.038.197.197 0 0 0 .059-.091.17.17 0 0 0-.007-.133C-1.2-.535-1.24-.571-1.301-.6a.223.223 0 0 0 .064-.015.484.484 0 0 0 .1-.065l.173-.142-.11-.035-.131.108a.86.86 0 0 1-.093.07.169.169 0 0 1-.058.03.145.145 0 0 1-.045.005.216.216 0 0 1-.05-.013l-.101-.032.095-.293zm-.652-.116-.12.682.46.081.014-.08-.37-.066.037-.211.321.057.013-.081-.319-.057.054-.31zm-.613.225.234.017-.085.186a2.423 2.423 0 0 0-.06.14.72.72 0 0 0-.028-.135zm-.18-.297.217.709.099.007.331-.671-.104-.007-.096.203-.289-.02-.06-.215zm-.97.051.06.69.091-.008-.024-.283.358-.032.025.284.091-.008-.06-.691-.092.008.029.326-.359.032-.028-.326zm-.451.065.116.6-.223.044.015.08.539-.105-.016-.08-.225.044-.116-.6zm-.248.753.087-.029-.131-.379a.488.488 0 0 0-.076-.149.2.2 0 0 0-.114-.067.306.306 0 0 0-.165.016.333.333 0 0 0-.14.084.197.197 0 0 0-.051.121.45.45 0 0 0 .031.172l.13.379.087-.03-.13-.378a.363.363 0 0 1-.027-.131c0-.03.012-.058.032-.081a.21.21 0 0 1 .087-.055c.064-.022.115-.023.152-.003.036.02.069.07.098.152zm-1.19.121a.278.278 0 0 1-.03-.206.22.22 0 0 1 .118-.142.222.222 0 0 1 .185-.012c.061.023.112.074.153.154.025.05.039.098.042.145a.229.229 0 0 1-.125.212.235.235 0 0 1-.18.016c-.061-.018-.116-.074-.163-.167m-.084.044c.052.103.12.169.205.199.085.03.17.022.257-.022a.337.337 0 0 0 .134-.119.305.305 0 0 0 .046-.167.42.42 0 0 0-.048-.184.41.41 0 0 0-.124-.15.29.29 0 0 0-.164-.057.343.343 0 0 0-.169.038.327.327 0 0 0-.135.122.301.301 0 0 0-.045.168c.001.06.015.118.043.172m-.59.275.076-.044a.18.18 0 0 1-.026-.086c0-.027.008-.055.026-.084a.267.267 0 0 1 .076-.078.248.248 0 0 1 .084-.04.123.123 0 0 1 .074.001.099.099 0 0 1 .05.037.093.093 0 0 1 .017.057.131.131 0 0 1-.028.069c-.011.017-.038.05-.081.099a.558.558 0 0 0-.085.113.181.181 0 0 0-.024.095c.002.03.012.058.03.084a.18.18 0 0 0 .08.064.197.197 0 0 0 .111.007.339.339 0 0 0 .118-.054.35.35 0 0 0 .097-.099.198.198 0 0 0-.003-.22l-.075.045a.14.14 0 0 1 .017.109.182.182 0 0 1-.079.096c-.046.033-.084.047-.117.045a.092.092 0 0 1-.073-.038.083.083 0 0 1-.014-.066.348.348 0 0 1 .086-.12.962.962 0 0 0 .1-.124.208.208 0 0 0 .032-.109.167.167 0 0 0-.033-.098.19.19 0 0 0-.085-.067.206.206 0 0 0-.119-.01.31.31 0 0 0-.124.055.38.38 0 0 0-.114.112.227.227 0 0 0 .006.249" style="fill:#fff;fill-opacity:1;fill-rule:nonzero;stroke:#fff;stroke-opacity:1;stroke-width:.04552072;stroke-miterlimit:4;stroke-dasharray:none" transform="matrix(32.95203 0 0 -32.95203 288.88 338.796)"/></g></svg>