<?xml version="1.0" encoding="UTF-8" standalone="no"?>
<!-- Created with Inkscape (http://www.inkscape.org/) -->
<svg
   xmlns:ns="http://creativecommons.org/ns#"
   xmlns:dc="http://purl.org/dc/elements/1.1/"
   xmlns:cc="http://web.resource.org/cc/"
   xmlns:rdf="http://www.w3.org/1999/02/22-rdf-syntax-ns#"
   xmlns:svg="http://www.w3.org/2000/svg"
   xmlns="http://www.w3.org/2000/svg"
   xmlns:sodipodi="http://sodipodi.sourceforge.net/DTD/sodipodi-0.dtd"
   xmlns:inkscape="http://www.inkscape.org/namespaces/inkscape"
   width="110"
   height="200"
   viewBox="0 0 69.322999 109.35846">
  <defs
     id="defs2">
    <clipPath
       id="Clip0">
      <path
         inkscape:connector-curvature="0"
         d="M 0,0 L 221.381,0 L 221.381,270 L 0,270 L 0,0 z "
         transform="translate(6,2)"
         id="path2" />
    </clipPath>
    <clipPath
       id="Clip1">
      <path
         inkscape:connector-curvature="0"
         d="M 0,0 L 221.381,0 L 221.381,221.35 L 0,221.35 L 0,0 z "
         transform="translate(6,50.6496)"
         id="path5" />
    </clipPath>
    <clipPath
       id="Clip2">
      <path
         inkscape:connector-curvature="0"
         d="M 0,0 L 168.883,0 L 168.883,168.926 L 0,168.926 L 0,0 z "
         transform="translate(32.3104,76.9269)"
         id="path8" />
    </clipPath>
    <clipPath
       id="Clip3">
      <path
         inkscape:connector-curvature="0"
         d="M 0,0 L 141.609,0 L 141.609,155.997 L 0,155.997 L 0,0 z "
         transform="translate(45.4691,83.6182)"
         id="path11" />
    </clipPath>
    <clipPath
       id="Clip4">
      <path
         inkscape:connector-curvature="0"
         d="M 0,0 L 213.372,0 L 213.372,41.8914 L 0,41.8914 L 0,0 z "
         transform="translate(10.3685,2)"
         id="path14" />
    </clipPath>
  </defs>
  <g
     transform="translate(24.982141,118.52511)">
    <g
       id="g2272"
       transform="matrix(1.5052875,0,0,1.5052875,-5.2127005,35.370464)">
      <path
         d="M -1.1052714,-94.587969 L -1.0688214,-50.126139 C 6.3029256,-50.113749 13.674447,-50.104099 21.046185,-50.127129 L 21.056265,-50.138169 L 21.066345,-50.149209 C 21.060045,-64.322304 21.019365,-80.407915 21.013155,-94.581011 C 17.309862,-93.026025 14.337333,-92.280138 9.991593,-90.58489 C 5.1539676,-92.255407 3.6251556,-92.821226 -1.1060274,-94.588017 L -1.1052714,-94.587969 z M 27.315063,-86.211339 C 26.358615,-85.325521 25.595226,-83.123487 27.102483,-82.36637 L 27.114633,-78.612501 C 26.588196,-80.023825 25.05339,-80.548114 23.573799,-80.344288 C 23.619609,-78.851446 24.551757,-77.142171 26.376849,-77.462317 C 26.684181,-77.516227 26.985798,-77.76868 27.115659,-78.14302 L 27.114759,-75.910719 L 27.113859,-73.678417 L 27.070119,-73.81355 L 27.027369,-73.948683 L 26.939889,-74.112853 L 26.852409,-74.278011 L 26.752392,-74.404137 L 26.652375,-74.53127 L 26.492877,-74.684418 L 26.33337,-74.837567 L 26.055162,-74.997727 L 25.77798,-75.157887 L 25.513299,-75.248967 L 25.249671,-75.341057 L 24.954768,-75.398127 L 24.65883,-75.456187 L 24.180552,-75.474207 L 23.702247,-75.493187 L 23.672997,-75.452137 L 23.642757,-75.411087 L 23.646357,-75.102769 L 23.649957,-74.794453 L 23.691717,-74.559207 L 23.733477,-74.323968 L 23.817987,-74.089727 L 23.903487,-73.854482 L 24.034752,-73.634253 L 24.167034,-73.41403 L 24.320286,-73.24585 L 24.472323,-73.077689 L 24.697404,-72.916521 L 24.922476,-72.75636 L 25.164234,-72.653248 L 25.405983,-72.550135 L 25.643565,-72.502095 L 25.881138,-72.453045 L 26.111439,-72.466995 L 26.340687,-72.480945 L 26.558469,-72.574045 L 26.777295,-72.667145 L 26.884566,-72.784263 L 26.991846,-72.901381 L 27.054306,-73.040523 L 27.116856,-73.178659 L 27.116856,-70.844258 L 27.117756,-68.508842 L 27.041706,-68.701043 L 26.965656,-68.894231 L 26.847891,-69.064407 L 26.729127,-69.23559 L 26.515503,-69.435798 L 26.300853,-69.637007 L 26.071596,-69.769137 L 25.842348,-69.901268 L 25.674579,-69.963328 L 25.507818,-70.025388 L 25.233759,-70.094458 L 24.959709,-70.163528 L 24.567912,-70.196558 L 24.177141,-70.229608 L 23.845779,-70.200578 L 23.514417,-70.171548 L 23.494257,-70.154498 L 23.473467,-70.137448 L 23.515227,-69.776075 L 23.556987,-69.415708 L 23.641497,-69.139419 L 23.726997,-68.863136 L 23.873994,-68.597862 L 24.019983,-68.332588 L 24.183522,-68.145385 L 24.34806,-67.958201 L 24.567939,-67.801043 L 24.787809,-67.643885 L 25.045191,-67.527774 L 25.302573,-67.412652 L 25.510968,-67.365602 L 25.719372,-67.319512 L 25.993422,-67.319512 L 26.267481,-67.319512 L 26.449767,-67.377572 L 26.631045,-67.436642 L 26.777043,-67.544752 L 26.92404,-67.65387 L 27.02103,-67.831058 L 27.11801,-68.009233 L 27.11801,-65.512663 L 27.11711,-63.016097 L 27.0389,-63.207291 L 26.96069,-63.399491 L 26.87114,-63.530634 L 26.78159,-63.661777 L 26.619068,-63.829957 L 26.457554,-63.998118 L 26.241851,-64.146269 L 26.027201,-64.294419 L 25.750019,-64.410529 L 25.472837,-64.52664 L 25.167521,-64.59272 L 24.862214,-64.6588 L 24.301604,-64.65979 L 23.742011,-64.66078 L 23.576258,-64.63674 L 23.410514,-64.61173 L 23.432474,-64.377496 L 23.455424,-64.14225 L 23.505464,-63.932038 L 23.556494,-63.720813 L 23.626244,-63.52962 L 23.695004,-63.339433 L 23.827286,-63.102189 L 23.958551,-62.864944 L 24.148307,-62.654727 L 24.338054,-62.445513 L 24.578777,-62.281342 L 24.820526,-62.11816 L 25.062257,-62.017062 L 25.305059,-61.916952 L 25.541606,-61.868932 L 25.778144,-61.820912 L 26.050115,-61.834862 L 26.321051,-61.848812 L 26.456555,-61.897862 L 26.593067,-61.946912 L 26.717078,-62.020992 L 26.842097,-62.095072 L 26.932847,-62.209187 L 27.023587,-62.322296 L 27.070387,-62.434416 L 27.116197,-62.545528 L 27.115297,-60.108017 L 27.115297,-57.670558 L 27.036097,-57.855746 L 26.956807,-58.040934 L 26.828557,-58.208107 L 26.700316,-58.37528 L 26.506528,-58.539451 L 26.312749,-58.703621 L 26.062666,-58.838754 L 25.812565,-58.973887 L 25.506232,-59.061967 L 25.200916,-59.151057 L 24.878914,-59.185097 L 24.556948,-59.219137 L 24.250588,-59.200157 L 23.945254,-59.180107 L 23.606611,-59.121037 L 23.266897,-59.061967 L 23.235667,-59.034967 L 23.204437,-59.007967 L 23.274187,-58.720674 L 23.343937,-58.434376 L 23.459686,-58.166103 L 23.576434,-57.898825 L 23.727463,-57.666588 L 23.877493,-57.435351 L 24.20053,-57.155059 L 24.522514,-56.874774 L 24.794494,-56.753646 L 25.065403,-56.633525 L 25.303003,-56.568455 L 25.540576,-56.503385 L 25.88029,-56.502395 L 26.219986,-56.501405 L 26.415781,-56.566475 L 26.611576,-56.632555 L 26.754343,-56.726645 L 26.898118,-56.820755 L 27.00862,-57.005944 L 27.119122,-57.191131 L 27.119122,-53.79568 L 27.119122,-50.400178 L 27.338974,-50.400178 L 27.559897,-50.400178 L 27.559897,-53.785668 L 27.560797,-57.17116 L 27.624337,-57.050032 L 27.687877,-56.927897 L 27.813904,-56.807776 L 27.938923,-56.688644 L 28.120201,-56.614564 L 28.301479,-56.539474 L 28.550518,-56.507434 L 28.80061,-56.475394 L 29.089249,-56.518434 L 29.377888,-56.561484 L 29.589433,-56.635564 L 29.80096,-56.709634 L 29.994739,-56.807734 L 30.188518,-56.906834 L 30.463603,-57.142075 L 30.738706,-57.377314 L 30.896998,-57.61156 L 31.05529,-57.845801 L 31.157521,-58.058019 L 31.259554,-58.27024 L 31.340824,-58.543521 L 31.422094,-58.815796 L 31.440274,-58.925921 L 31.458454,-59.036027 L 31.282423,-59.079087 L 31.106383,-59.121127 L 30.885487,-59.158177 L 30.665608,-59.194127 L 30.190453,-59.194127 L 29.715271,-59.194127 L 29.419342,-59.130067 L 29.123404,-59.066997 L 28.898332,-58.978897 L 28.673251,-58.889807 L 28.46068,-58.758664 L 28.249153,-58.628529 L 28.074121,-58.462363 L 27.89809,-58.296198 L 27.80953,-58.164067 L 27.71998,-58.031936 L 27.64069,-57.86577 L 27.5614,-57.699605 L 27.5623,-60.108088 L 27.5641,-62.51657 L 27.61306,-62.395443 L 27.6631,-62.275322 L 27.781864,-62.154194 L 27.900637,-62.034074 L 28.127788,-61.937974 L 28.354939,-61.840884 L 28.712374,-61.841874 L 29.068729,-61.841874 L 29.255245,-61.896924 L 29.44177,-61.950984 L 29.706451,-62.06911 L 29.971132,-62.186228 L 30.227479,-62.393443 L 30.482764,-62.600654 L 30.620284,-62.77484 L 30.757804,-62.950013 L 30.88807,-63.190262 L 31.018336,-63.431508 L 31.103836,-63.722814 L 31.189336,-64.014108 L 31.220566,-64.293396 L 31.252876,-64.572689 L 31.229836,-64.593699 L 31.206886,-64.613749 L 30.952636,-64.647789 L 30.697333,-64.682849 L 30.239899,-64.666769 L 29.781394,-64.650699 L 29.451058,-64.576619 L 29.121793,-64.502539 L 28.855015,-64.382419 L 28.588264,-64.263305 L 28.38823,-64.123155 L 28.188196,-63.984012 L 28.023658,-63.807832 L 27.859111,-63.632658 L 27.753856,-63.456477 L 27.649609,-63.280297 L 27.606859,-63.162172 L 27.563119,-63.045054 L 27.562219,-65.512595 L 27.561319,-67.980138 L 27.630079,-67.848007 L 27.698839,-67.714869 L 27.823858,-67.602749 L 27.949885,-67.489622 L 28.11967,-67.413552 L 28.288447,-67.337482 L 28.617739,-67.324502 L 28.947022,-67.311522 L 29.195026,-67.376592 L 29.44303,-67.440652 L 29.6629,-67.544752 L 29.883805,-67.647865 L 30.067306,-67.778001 L 30.2506,-67.908135 L 30.385096,-68.040266 L 30.519592,-68.172397 L 30.680098,-68.40364 L 30.840613,-68.633877 L 30.945868,-68.911162 L 31.05214,-69.187445 L 31.10416,-69.446712 L 31.15618,-69.705982 L 31.15618,-69.93428 L 31.15618,-70.163518 L 31.06342,-70.178628 L 30.96966,-70.193738 L 30.71541,-70.211758 L 30.461151,-70.229778 L 30.099558,-70.197738 L 29.737974,-70.166708 L 29.47539,-70.106638 L 29.213832,-70.047568 L 28.999182,-69.963478 L 28.783488,-69.878398 L 28.593732,-69.76928 L 28.403985,-69.660163 L 28.207992,-69.490995 L 28.012188,-69.321826 L 27.868422,-69.130613 L 27.723639,-68.938413 L 27.641379,-68.738204 L 27.560109,-68.538006 L 27.559209,-70.84338 L 27.559209,-73.148782 L 27.654999,-72.972602 L 27.751989,-72.796421 L 27.881238,-72.698321 L 28.010496,-72.600221 L 28.164756,-72.542161 L 28.320015,-72.485091 L 28.531569,-72.468041 L 28.743069,-72.450991 C 30.336717,-72.714647 31.132146,-73.964018 31.004283,-75.469093 L 30.732348,-75.478193 C 29.486685,-75.469793 28.189416,-75.123185 27.655221,-73.941607 L 27.560451,-73.707368 L 27.562251,-75.909638 L 27.564051,-78.11291 L 27.614091,-77.989788 L 27.664131,-77.867652 C 29.223228,-76.334072 31.346004,-78.755215 31.098666,-80.354218 C 29.926245,-80.388898 28.236279,-79.994585 27.566193,-78.671484 C 27.564393,-79.897541 27.559893,-81.123213 27.558093,-82.349273 C 29.324793,-83.214541 27.931809,-85.70923 27.313221,-86.211256 L 27.315063,-86.211339 z M -7.1552874,-86.081204 C -8.1117351,-85.195384 -8.875125,-82.993358 -7.3678674,-82.23624 L -7.3558074,-78.48237 C -7.8822264,-79.893694 -9.417024,-80.418985 -10.896642,-80.215156 C -10.850832,-78.722317 -9.918657,-77.01204 -8.0935641,-77.332185 C -7.7862414,-77.386095 -7.4846154,-77.638549 -7.3547544,-78.012885 L -7.3556544,-75.780583 L -7.3565544,-73.548287 L -7.4002944,-73.68342 L -7.4430444,-73.818553 L -7.5305244,-73.983731 L -7.6180044,-74.147902 L -7.7180214,-74.274027 L -7.8180384,-74.40116 L -7.9775364,-74.554328 L -8.1370431,-74.707476 L -8.4142251,-74.867637 L -8.692452,-75.027797 L -8.95608,-75.118897 L -9.220761,-75.210987 L -9.515646,-75.268037 L -9.810558,-75.326117 L -10.289889,-75.345097 L -10.768167,-75.363117 L -10.797417,-75.322067 L -10.826667,-75.281017 L -10.823067,-74.972702 L -10.818567,-74.664385 L -10.776807,-74.429144 L -10.735047,-74.193899 L -10.650537,-73.95966 L -10.565037,-73.724419 L -10.433763,-73.504189 L -10.30149,-73.283963 L -10.148238,-73.115783 L -9.996201,-72.947602 L -9.771102,-72.787441 L -9.546021,-72.626274 L -9.304272,-72.523161 L -9.061488,-72.420049 L -8.823915,-72.371989 L -8.586315,-72.322939 L -8.3570841,-72.336889 L -8.1278361,-72.350839 L -7.9100364,-72.443939 L -7.6912104,-72.537039 L -7.5839394,-72.654157 L -7.4766594,-72.771275 L -7.4141094,-72.910419 L -7.3516494,-73.048573 L -7.3507494,-70.713167 L -7.3507494,-68.378761 L -7.4267994,-68.570961 L -7.5017694,-68.76415 L -7.6205424,-68.934326 L -7.7393064,-69.104501 L -7.9529304,-69.305709 L -8.1676071,-69.506917 L -8.3968371,-69.639048 L -8.626086,-69.771179 L -8.793855,-69.833239 L -8.960616,-69.895299 L -9.234666,-69.964369 L -9.508725,-70.033429 L -9.899496,-70.066459 L -10.291293,-70.099489 L -10.622655,-70.070459 L -10.954017,-70.041429 L -10.974177,-70.024379 L -10.994967,-70.006359 L -10.953207,-69.64599 L -10.911447,-69.284621 L -10.825947,-69.009338 L -10.741437,-68.733049 L -10.59444,-68.467778 L -10.448451,-68.202504 L -10.284912,-68.015302 L -10.120374,-67.827111 L -9.900495,-67.670941 L -9.680643,-67.513783 L -9.423261,-67.397672 L -9.165879,-67.281542 L -8.957466,-67.235512 L -8.749062,-67.188462 L -8.4750021,-67.188462 L -8.2009521,-67.188462 L -8.0186664,-67.247532 L -7.8363714,-67.306602 L -7.6905894,-67.414713 L -7.5445914,-67.522824 L -7.4476074,-67.700999 L -7.3506144,-67.879195 L -7.3506144,-65.382617 L -7.3515144,-62.886041 L -7.4297244,-63.077234 L -7.5079344,-63.268427 L -7.5974844,-63.400558 L -7.6870344,-63.531681 L -7.8495564,-63.699861 L -8.0110794,-63.868042 L -8.2257291,-64.016192 L -8.4403971,-64.164343 L -8.718606,-64.280454 L -8.995788,-64.396584 L -9.301122,-64.461654 L -9.606429,-64.527734 L -10.167048,-64.529934 L -10.726614,-64.530924 L -10.892367,-64.505914 L -11.05812,-64.481874 L -11.03616,-64.246633 L -11.01321,-64.012392 L -10.96317,-63.801173 L -10.91214,-63.590956 L -10.84239,-63.399762 L -10.77264,-63.208569 L -10.641366,-62.971327 L -10.510092,-62.734083 L -10.320345,-62.524869 L -10.130598,-62.314649 L -9.888849,-62.151486 L -9.648144,-61.988323 L -9.405342,-61.887225 L -9.163584,-61.787114 L -8.927055,-61.738064 L -8.690508,-61.690044 L -8.4185451,-61.703994 L -8.1476181,-61.719104 L -8.0111064,-61.768154 L -7.8756024,-61.817204 L -7.7515914,-61.891284 L -7.6265634,-61.965364 L -7.5358254,-62.07948 L -7.4440794,-62.192607 L -7.3982694,-62.304727 L -7.3524594,-62.415841 L -7.3524594,-59.978328 L -7.3533594,-57.540815 L -7.4326494,-57.725015 L -7.5119394,-57.910204 L -7.6401894,-58.078384 L -7.7684304,-58.245557 L -7.9622094,-58.409727 L -8.1559971,-58.573898 L -8.4060711,-58.709031 L -8.656173,-58.844164 L -8.961489,-58.932264 L -9.266796,-59.020344 L -9.589833,-59.055404 L -9.911817,-59.089444 L -10.217133,-59.069394 L -10.523493,-59.050414 L -10.862154,-58.991344 L -11.201841,-58.932274 L -11.233071,-58.905274 L -11.264301,-58.878274 L -11.194551,-58.590975 L -11.124801,-58.304683 L -11.008053,-58.036405 L -10.892304,-57.769131 L -10.741275,-57.53689 L -10.591254,-57.305653 L -10.268217,-57.02536 L -9.946224,-56.745075 L -9.674271,-56.623947 L -9.403335,-56.503827 L -9.165762,-56.438757 L -8.928162,-56.373687 L -8.588475,-56.372697 L -8.2487601,-56.371707 L -8.0529651,-56.436777 L -7.8571614,-56.502857 L -7.7144034,-56.596957 L -7.5706284,-56.691047 L -7.4601264,-56.876234 L -7.3496244,-57.060416 L -7.3496244,-53.66593 L -7.3496244,-50.270432 L -7.1297724,-50.270432 L -6.9088494,-50.270432 L -6.9088494,-53.655818 L -6.9079494,-57.041303 L -6.8444094,-56.919167 L -6.7798794,-56.798039 L -6.6548604,-56.677919 L -6.5298414,-56.558786 L -6.3485544,-56.483696 L -6.1672764,-56.409616 L -5.9182284,-56.377576 L -5.6681454,-56.345536 L -5.3794884,-56.388576 L -5.0898054,-56.431636 L -4.8793314,-56.505716 L -4.6677864,-56.579796 L -4.4740074,-56.677896 L -4.2802194,-56.776996 L -4.0051164,-57.012237 L -3.7300314,-57.247482 L -3.5715414,-57.481728 L -3.4132494,-57.715964 L -3.3112164,-57.92818 L -3.2091834,-58.140403 L -3.1279134,-58.413683 L -3.0466434,-58.685964 L -3.0284634,-58.79607 L -3.0102834,-58.906195 L -3.1863234,-58.948235 L -3.3623544,-58.991275 L -3.5832594,-59.028325 L -3.8031384,-59.064355 L -4.2783294,-59.064355 L -4.7535114,-59.064355 L -5.0494404,-59.000295 L -5.3453784,-58.937225 L -5.5704504,-58.848135 L -5.7955314,-58.760055 L -6.0070764,-58.628912 L -6.2196474,-58.498777 L -6.3946794,-58.332612 L -6.5707104,-58.166445 L -6.6592704,-58.034296 L -6.7488204,-57.902165 L -6.8281104,-57.736 L -6.9074004,-57.569834 L -6.9065004,-59.978313 L -6.9047004,-62.386801 L -6.8557404,-62.265674 L -6.8057004,-62.144546 L -6.6869364,-62.024425 L -6.5681634,-61.904305 L -6.3409944,-61.808205 L -6.1138434,-61.711095 L -5.7564264,-61.712085 L -5.4000354,-61.712085 L -5.2135104,-61.767135 L -5.0259864,-61.821195 L -4.7623494,-61.93932 L -4.4976954,-62.056439 L -4.2413394,-62.263654 L -3.9860364,-62.469866 L -3.8485164,-62.645039 L -3.7109964,-62.820212 L -3.5807304,-63.060465 L -3.4504734,-63.301711 L -3.3649734,-63.593013 L -3.2794734,-63.884314 L -3.2482434,-64.163599 L -3.2160234,-64.442886 L -3.2389734,-64.462936 L -3.2619234,-64.483946 L -3.5161734,-64.517986 L -3.7704324,-64.553046 L -4.2289284,-64.536976 L -4.6874064,-64.520896 L -5.0177424,-64.446816 L -5.3470344,-64.372736 L -5.6137854,-64.252615 L -5.8805454,-64.132495 L -6.0805794,-63.993352 L -6.2806044,-63.853201 L -6.4451514,-63.678029 L -6.6096894,-63.502856 L -6.7149534,-63.326674 L -6.8192004,-63.150494 L -6.8619504,-63.032369 L -6.9056904,-62.915251 L -6.9065904,-65.382794 L -6.9074904,-67.849335 L -6.8387304,-67.717206 L -6.7699704,-67.585075 L -6.6439434,-67.472955 L -6.5189244,-67.359846 L -6.3491394,-67.283776 L -6.1803624,-67.206696 L -5.8510794,-67.194686 L -5.5217874,-67.181706 L -5.2737834,-67.246776 L -5.0257794,-67.310836 L -4.8048834,-67.413948 L -4.5850044,-67.518049 L -4.4015124,-67.648184 L -4.2182094,-67.77832 L -4.0837134,-67.91047 L -3.9492174,-68.0426 L -3.7887114,-68.273838 L -3.6281964,-68.504075 L -3.5229414,-68.781358 L -3.4166784,-69.057646 L -3.3646584,-69.316914 L -3.3114684,-69.576183 L -3.3114684,-69.804414 L -3.3114684,-70.033647 L -3.4052304,-70.048757 L -3.4989924,-70.063667 L -3.7532514,-70.081687 L -4.0075194,-70.099707 L -4.3690944,-70.068677 L -4.7306874,-70.036637 L -4.9932624,-69.976587 L -5.2548204,-69.917527 L -5.4694884,-69.833437 L -5.6851914,-69.749347 L -5.8749384,-69.640229 L -6.0646854,-69.531112 L -6.2604804,-69.361943 L -6.4562844,-69.192775 L -6.6000504,-69.000575 L -6.7448334,-68.808374 L -6.8261034,-68.608166 L -6.9083634,-68.407962 L -6.9083634,-70.713365 L -6.9092634,-73.01874 L -6.8124774,-72.842558 L -6.7164924,-72.666378 L -6.5872344,-72.568278 L -6.4579854,-72.470178 L -6.3027174,-72.412118 L -6.1484574,-72.355048 L -5.9369124,-72.337998 L -5.7253854,-72.320948 C -4.1317824,-72.584612 -3.3363354,-73.833988 -3.4641804,-75.339063 L -3.7361604,-75.349133 C -4.9817964,-75.340733 -6.2790474,-74.994124 -6.8132604,-73.812549 L -6.9080394,-73.577307 L -6.9062394,-75.779574 L -6.9044394,-77.982846 L -6.8543994,-77.860711 L -6.8043594,-77.737588 C -5.2452534,-76.204007 -3.1224954,-78.625148 -3.3698154,-80.224156 C -4.5422634,-80.258836 -6.2322294,-79.864524 -6.9023154,-78.541417 C -6.9041154,-79.767477 -6.9086154,-80.993147 -6.9104154,-82.219207 C -5.1437244,-83.084477 -6.5377524,-85.579166 -7.1563404,-86.081192 L -7.1552874,-86.081204 z M 7.8957906,-85.967088 L 12.036834,-85.967088 C 13.861575,-82.918265 14.852124,-81.295436 16.837461,-78.112995 C 15.864201,-78.107795 14.71617,-78.106395 13.580064,-78.094015 C 13.378374,-78.505134 13.160961,-78.954222 12.934008,-79.427389 L 6.9954846,-79.427389 L 6.3619296,-78.098019 C 5.3852676,-78.097403 4.2271926,-78.096619 3.0857856,-78.096019 C 4.7369346,-80.803459 6.1061226,-83.037631 7.8957906,-85.967136 L 7.8957906,-85.967088 z M 9.9684,-84.49257 C 9.3326676,-83.526688 8.5784136,-82.423178 7.8655776,-81.340319 L 12.062862,-81.340319 C 11.467224,-82.28663 10.650402,-83.373986 9.9684,-84.49257 z M 3.0805836,-75.192983 L 6.3087756,-75.192983 L 6.3087756,-69.18279 L 13.617585,-69.18279 L 13.617585,-75.192983 L 16.845786,-75.192983 C 16.845642,-73.149594 16.845705,-71.106052 16.845786,-69.062664 C 16.07625,-68.357029 14.994378,-67.511651 13.741578,-67.254801 C 11.595897,-67.251701 9.0485286,-67.247601 6.5401026,-67.243761 C 5.1428616,-67.39011 4.0091586,-68.130519 3.0805836,-69.081657 L 3.0805836,-75.192983 z M 3.4765476,-63.763203 L 16.780149,-63.763203 L 16.780149,-62.158548 L 6.5630346,-62.158548 L 6.5630346,-60.587932 L 16.637382,-60.587932 L 16.637382,-59.085383 L 6.5630346,-59.085383 L 6.5448546,-55.823016 L 3.4760796,-55.823016 C 3.4759356,-58.469749 3.4761786,-61.116475 3.4760796,-63.763203 L 3.4765476,-63.763203 z M -1.1052714,-35.407978 L -1.1052714,-25.530792 L -1.0708014,-25.542802 L -1.0663014,-25.542802 C 2.8307166,-26.584582 5.3228436,-27.457967 9.9677612,-28.89626 C 14.68053,-27.484413 15.452046,-27.202256 20.995578,-25.536795 L 21.013758,-25.536795 L 21.031938,-25.536795 L 21.031938,-35.407969 C 13.779621,-35.419979 6.2519676,-35.401369 -1.1049564,-35.407969 L -1.1052714,-35.407978 z "
         style="fill:#ffc905;fill-opacity:1;stroke-width:0.03480742" />
      <g
         transform="matrix(0.1464313,0,0,0.1324744,-2.7476724,-55.636405)"
         id="g4656">
        <path
           d="M -0.27649465,142.82633 L -54.015526,142.82633 L -54.015526,136.60862 L -54.015526,130.39091 L -5.8965198,130.39091 L 42.222489,130.39091 L 42.961785,131.51539 L 43.701081,132.63987 L 45.209003,134.49195 L 46.716924,136.34403 L 48.672052,138.35026 L 50.627182,140.35652 L 52.04486,141.59141 L 53.462539,142.82633 L -0.27649465,142.82633 z M 178.02059,142.82633 L 124.3067,142.82633 L 126.59283,140.79232 L 128.87896,138.75833 L 130.86059,136.49284 L 132.84222,134.22737 L 134.20033,132.32258 L 135.55843,130.41779 L 183.64645,130.40429 L 231.73447,130.39079 L 231.73447,136.6085 L 231.73447,142.82621 L 178.02059,142.82621 L 178.02059,142.82633 z M 35.8609,117.89011 L 35.81052,117.82471 L -9.1025012,117.75701 L -54.015522,117.68931 L -54.015522,111.47237 L -54.015522,105.25543 L -10.522001,105.25543 L 32.971519,105.25543 L 33.282593,107.43824 L 33.593666,109.62106 L 34.142824,111.9958 L 34.691983,114.37054 L 35.301636,116.16299 L 35.911286,117.95543 L 35.8609,117.89011 z M 186.79644,117.75555 L 141.8584,117.82325 L 142.22032,116.95708 L 142.58223,116.09092 L 143.35593,112.98833 L 144.12962,109.88575 L 144.46109,107.57065 L 144.79257,105.25554 L 188.26352,105.25554 L 231.73447,105.25554 L 231.73447,111.47174 L 231.73447,117.68794 L 186.79644,117.75555 z M -10.528273,92.820075 L -54.015526,92.820075 L -54.015526,86.602366 L -54.015526,80.384658 L -9.168651,80.384658 L 35.678224,80.384658 L 35.678224,80.495783 L 35.678224,80.606934 L 34.773571,83.74992 L 33.868919,86.892932 L 33.413949,89.856503 L 32.958979,92.820075 L -10.528273,92.820075 z M 188.241,92.820075 L 144.74753,92.820075 L 144.56532,91.298721 L 144.3831,89.777366 L 143.98968,87.833578 L 143.59625,85.88979 L 142.94014,83.600245 L 142.28402,81.310699 L 142.14454,80.847679 L 142.00506,80.384658 L 186.86977,80.384658 L 231.73447,80.384658 L 231.73447,86.602366 L 231.73447,92.820075 L 188.241,92.820075 z M -6.0373046,67.949241 L -54.015526,67.949241 L -54.015526,61.731532 L -54.015526,55.513824 L -0.46931504,55.513824 L 53.076893,55.513824 L 49.31418,59.284136 L 45.551463,63.054449 L 43.74619,65.501845 L 41.940917,67.949241 L -6.0373046,67.949241 z M 183.77236,67.949241 L 135.81024,67.949241 L 134.19002,65.755527 L 132.5698,63.561787 L 130.1668,60.884548 L 127.7638,58.207282 L 127.53177,58.117322 L 127.29973,58.027362 L 125.91036,56.770591 L 124.52099,55.513821 L 178.12773,55.513821 L 231.73447,55.513821 L 231.73447,61.731529 L 231.73447,67.949238 L 183.77236,67.949241 z "
           style="fill:#55b5e5;fill-opacity:1;stroke-width:0.26458335" />
      </g>
      <path
         id="path4561"
         d="M 10.563129,-51.985595 C 10.044999,-52.007635 8.8656396,-51.925295 8.4819696,-51.840389 C 8.3506956,-51.811329 8.3454576,-51.803119 8.4119496,-51.719241 C 8.4673896,-51.649391 9.2027616,-50.96487 9.3893676,-50.809308 C 9.4675776,-50.744018 9.5416022,-50.681536 9.5543102,-50.67096 C 9.5762702,-50.65333 9.6012902,-50.64929 9.8622812,-50.6254 C 10.329552,-50.5827 10.87533,-50.54121 12.113127,-50.453559 C 12.849651,-50.401399 13.345524,-50.363149 13.487058,-50.347018 C 13.546548,-50.340118 13.64454,-50.335978 13.712112,-50.337518 C 13.849434,-50.341218 13.889961,-50.350698 14.052366,-50.422578 C 14.245137,-50.507788 14.805531,-50.78987 14.836158,-50.816967 C 14.846238,-50.825867 14.837958,-50.834017 14.795388,-50.859967 C 14.630238,-50.957137 13.946382,-51.256228 13.521978,-51.417608 C 12.739797,-51.715054 11.54916,-51.943594 10.562994,-51.985566 L 10.563129,-51.985595 z M 9.5811122,-50.257673 L 9.5193722,-50.211243 C 9.4478222,-50.156593 9.2956686,-50.024621 8.7503406,-49.546196 C 8.1327246,-49.004407 7.8836946,-48.792856 7.8190206,-48.754846 C 7.7970606,-48.742456 7.7764506,-48.720096 7.7694306,-48.704146 C 7.7613306,-48.688646 7.7065206,-48.630686 7.6448166,-48.574398 C 7.5833466,-48.518108 7.5302826,-48.46315 7.5276636,-48.453251 C 7.5213636,-48.432791 7.5831036,-48.294757 7.8162756,-47.795077 C 8.1980736,-46.977282 8.4545646,-46.447431 8.4792696,-46.428037 C 8.5262496,-46.391237 8.8047456,-46.364127 10.441476,-46.232984 C 12.043791,-46.104612 12.654306,-46.053685 12.86289,-46.032786 C 12.96089,-46.022886 12.991941,-46.034286 13.123917,-46.119566 C 13.427397,-46.316745 14.476599,-47.115127 14.713587,-47.329364 L 14.804937,-47.411844 L 14.765427,-47.514104 C 14.637987,-47.839534 14.213268,-48.862826 13.936464,-49.510103 C 13.789269,-49.854534 13.74813,-49.942128 13.732803,-49.947455 C 13.704003,-49.957355 12.290031,-50.063043 9.7723982,-50.24389 L 9.5811122,-50.257673 z M 7.8180756,-48.732537 C 7.8426456,-48.732532 7.8457056,-48.729437 7.8457056,-48.706757 C 7.8457056,-48.683687 7.8439056,-48.680977 7.8180756,-48.680977 C 7.7932356,-48.680977 7.7902656,-48.684077 7.7902656,-48.706757 C 7.7902656,-48.729767 7.7920656,-48.732537 7.8180756,-48.732537 z M 2.6875176,-48.457581 C 2.6356776,-48.432571 2.4596916,-48.204659 2.1776136,-47.797689 C 1.8070746,-47.263211 1.4344296,-46.552036 1.1734387,-45.87816 C 1.0955887,-45.676654 1.0314817,-45.488939 0.95688967,-45.246622 C 0.91962967,-45.125087 0.88029967,-45.000307 0.87021967,-44.96995 C 0.86013967,-44.93961 0.85005967,-44.91004 0.85005967,-44.9038 C 0.85005967,-44.87428 0.93429967,-44.82393 1.1857237,-44.701885 C 1.4195886,-44.588331 1.6367046,-44.493814 1.7620206,-44.451848 C 1.7964906,-44.440228 1.8324006,-44.430518 1.8412206,-44.430368 C 1.8904506,-44.429378 1.9521276,-44.520148 2.1436746,-44.869434 C 2.4156726,-45.364946 3.1461666,-46.757922 3.3045846,-47.083684 L 3.3460746,-47.168744 L 3.3259146,-47.215174 C 3.2694846,-47.352631 2.8879566,-48.132213 2.7615876,-48.368265 C 2.7097476,-48.465155 2.7069576,-48.468185 2.6849976,-48.457625 L 2.6875176,-48.457581 z M 7.1504466,-48.218718 L 6.9484416,-48.155138 C 6.5917086,-48.043676 6.0578916,-47.857076 4.3988586,-47.261533 C 4.0184736,-47.124986 3.7063446,-47.011958 3.7054356,-47.01063 C 3.6991356,-47.00293 2.8142466,-45.312912 2.6773116,-45.049005 C 2.4962316,-44.69985 2.2700886,-44.253188 2.2337736,-44.174309 L 2.2118136,-44.125319 L 2.2864236,-43.999871 C 2.4785916,-43.679849 3.0125256,-42.820037 3.2878086,-42.38795 L 3.4444896,-42.142211 L 3.4785996,-42.148211 C 3.4987596,-42.151311 3.6756096,-42.194861 3.8750946,-42.245301 C 4.5553056,-42.417258 4.5288726,-42.410285 4.5325626,-42.433472 C 4.5343626,-42.457202 4.5821526,-42.463612 4.5878226,-42.441172 C 4.5896226,-42.426642 4.5860226,-42.424902 5.2369566,-42.59583 C 5.7610896,-42.733502 5.8756866,-42.769571 5.9137566,-42.808059 C 5.9339166,-42.825489 5.9960166,-42.918087 6.0583326,-43.013419 C 6.5245236,-43.723681 7.1585916,-44.702778 7.5806736,-45.364278 C 7.9922526,-46.00929 8.0318166,-46.072049 8.0832606,-46.167667 L 8.1274506,-46.249297 L 8.0415906,-46.425438 C 7.9312866,-46.65311 7.8625266,-46.816344 7.8607086,-46.85506 C 7.8599616,-46.87192 7.8526086,-46.89401 7.8405486,-46.90401 C 7.8159786,-46.92845 7.6429356,-47.26569 7.5058026,-47.551876 C 7.3698936,-47.835407 7.1980296,-48.164117 7.1701656,-48.195443 L 7.1504466,-48.218718 z M 15.064794,-47.051869 C 15.040224,-47.051869 14.683707,-46.798065 14.005314,-46.295746 C 13.741821,-46.10072 13.478976,-45.906045 13.420701,-45.863553 L 13.314834,-45.786223 L 13.313934,-45.665075 C 13.313556,-45.598375 13.322034,-45.440752 13.334094,-45.315366 C 13.362354,-45.005389 13.677381,-42.186935 13.702905,-42.01505 C 13.723065,-41.889602 13.730355,-41.880672 13.932639,-41.748687 C 14.157432,-41.602686 15.286968,-40.9425 15.857064,-40.623949 L 15.857964,-40.623949 C 15.965838,-40.563789 16.05699,-40.51396 16.060797,-40.51396 C 16.085637,-40.51396 16.611228,-40.963084 17.660628,-41.88358 C 18.067626,-42.240582 18.088137,-42.259905 18.08388,-42.288278 C 18.08208,-42.315028 18.08208,-42.318368 18.10584,-42.318368 C 18.11997,-42.318368 18.13347,-42.312768 18.13347,-42.306348 C 18.13347,-42.299948 18.17667,-42.334188 18.22946,-42.381978 C 18.28247,-42.429748 18.39299,-42.528791 18.474836,-42.601939 L 18.623246,-42.735116 L 18.543956,-43.271273 C 18.439106,-43.982728 18.38345,-44.334917 18.350375,-44.489669 C 18.340295,-44.540769 18.336245,-44.541199 18.165875,-44.678712 C 17.465603,-45.236738 15.093788,-47.051918 15.064853,-47.051918 L 15.064794,-47.051869 z M 7.8180756,-46.897211 C 7.8400356,-46.897211 7.8426456,-46.892511 7.8426456,-46.873141 C 7.8426456,-46.853711 7.8363456,-46.848291 7.8180756,-46.848291 C 7.7961156,-46.848291 7.7932356,-46.853691 7.7932356,-46.873141 C 7.7932356,-46.892571 7.7995356,-46.897211 7.8180756,-46.897211 z M 19.383849,-45.392694 C 19.361889,-45.391704 18.884718,-44.772478 18.835218,-44.680388 C 18.761418,-44.542872 18.762858,-44.450617 18.845298,-43.88989 C 18.869868,-43.716499 18.921348,-43.380944 18.955998,-43.14408 L 19.018548,-42.712741 L 19.276839,-42.353586 C 19.418994,-42.155607 19.583496,-41.930806 19.641978,-41.854368 C 19.700478,-41.777908 19.751472,-41.718499 19.756512,-41.722915 C 19.764612,-41.732015 19.792422,-41.952441 19.809972,-42.172295 C 19.826082,-42.367337 19.816272,-43.037412 19.793862,-43.317653 C 19.750752,-43.860372 19.702512,-44.21637 19.620648,-44.586744 C 19.532718,-44.984215 19.412046,-45.394021 19.383777,-45.3927 L 19.383849,-45.392694 z M 5.9388396,-42.366471 C 5.9186796,-42.366471 5.6509116,-42.304441 5.3505366,-42.229847 C 5.0779986,-42.162167 3.5600316,-41.772378 3.5561166,-41.769298 C 3.5498166,-41.765298 3.5359566,-41.602474 3.5182266,-41.281253 L 3.5021166,-41.025199 L 3.5297466,-40.958179 L 3.5583666,-40.892029 L 3.5289366,-40.863689 L 3.5003166,-40.836169 L 3.4922166,-40.488172 C 3.4761066,-39.8811 3.4400166,-38.864444 3.4266966,-38.615042 L 3.4125666,-38.374472 L 3.5279106,-38.258497 C 3.7126176,-38.072069 3.8957136,-37.88166 4.3771416,-37.3752 C 5.1273006,-36.586127 5.3832696,-36.328643 5.4606156,-36.284832 C 5.4924756,-36.266622 5.4942756,-36.267202 5.5674906,-36.287032 C 5.7300216,-36.329822 6.3126276,-36.508171 7.0078056,-36.727817 C 7.7037396,-36.947681 7.7388666,-36.959827 7.7417916,-36.983014 C 7.7435916,-37.011604 7.7913816,-37.025184 7.7913816,-36.997544 C 7.7913816,-36.987274 7.7994816,-36.982434 7.8115416,-36.984564 C 7.8216216,-36.986764 8.1140676,-37.077154 8.4597666,-37.186485 L 9.0886596,-37.385844 L 9.2160996,-38.103306 C 9.3993936,-39.138049 9.4507746,-39.474682 9.4326666,-39.518457 C 9.4263666,-39.529497 8.3294466,-40.445902 7.3072266,-41.291055 C 6.7492536,-41.752371 6.1749726,-42.212957 6.0282906,-42.316984 C 5.9894106,-42.344664 5.9490006,-42.366804 5.9379576,-42.366804 L 5.9388396,-42.366471 z M 13.518423,-41.506377 L 13.455153,-41.473737 C 13.278303,-41.383677 12.61701,-41.017366 11.657988,-40.477878 C 11.084607,-40.155352 10.733688,-39.961422 10.658412,-39.925401 C 10.621152,-39.907581 10.599372,-39.892801 10.609632,-39.892801 C 10.623762,-39.89276 10.629792,-39.884901 10.629792,-39.863591 C 10.629792,-39.839301 10.623492,-39.835251 10.605222,-39.835251 C 10.589112,-39.835251 10.577772,-39.841151 10.576602,-39.854231 C 10.574802,-39.871091 10.562472,-39.866821 10.479802,-39.816461 C 10.428142,-39.785191 10.27147,-39.692912 10.131241,-39.611962 C 9.990895,-39.531012 9.8704932,-39.460208 9.8639052,-39.453874 C 9.8497752,-39.442644 9.7431162,-38.85148 9.6056142,-38.045595 C 9.4961202,-37.404602 9.4930962,-37.38097 9.5098362,-37.357346 C 9.5707662,-37.270736 9.7944972,-37.107792 11.260876,-36.080526 C 11.736094,-35.747592 12.169147,-35.442731 12.223552,-35.40345 C 12.298162,-35.34958 12.323162,-35.33654 12.32599,-35.34846 C 12.32779,-35.35873 12.33607,-35.36299 12.35056,-35.36144 C 12.37072,-35.35924 12.37252,-35.35154 12.37252,-35.32884 C 12.372925,-35.31237 12.37432,-35.29378 12.38062,-35.28764 C 12.3907,-35.27118 12.540118,-35.17583 12.601039,-35.145863 C 12.629659,-35.131723 12.663589,-35.121053 12.676819,-35.121053 C 12.706699,-35.121053 12.869995,-35.212463 13.26973,-35.45272 C 13.788607,-35.764711 15.156625,-36.618111 15.351817,-36.751883 C 15.398797,-36.784073 15.406447,-36.794113 15.411757,-36.830063 C 15.413557,-36.852823 15.504507,-37.476185 15.609973,-38.215148 C 15.870721,-40.039426 15.879775,-40.123216 15.83311,-40.178496 C 15.76318,-40.261616 14.129941,-41.206963 13.648675,-41.443286 L 13.518423,-41.506377 z M 3.1596486,-38.101233 C 3.1578486,-38.105233 3.0170796,-38.099033 2.8516506,-38.088253 C 2.1412536,-38.041253 1.9918356,-38.027833 1.9323546,-38.004903 C 1.9003146,-37.992703 1.8978846,-37.988433 1.9037346,-37.960213 C 1.9311846,-37.834573 2.5239966,-37.00858 2.8664106,-36.619807 C 3.2883126,-36.140773 3.9150006,-35.570273 4.4551896,-35.173714 C 4.5898836,-35.074714 4.8949386,-34.86408 5.0010396,-34.796514 C 5.0316396,-34.777084 5.0605296,-34.761264 5.0655696,-34.761264 C 5.0796996,-34.761264 5.1135396,-34.876754 5.1264996,-34.955456 C 5.1426096,-35.063566 5.1682596,-35.355212 5.1848196,-35.662607 C 5.1989496,-35.909933 5.1989496,-35.959992 5.1857196,-35.972793 C 5.0415486,-36.130126 3.4695006,-37.785058 3.2861886,-37.972227 C 3.2208486,-38.038897 3.1637886,-38.097151 3.1599546,-38.101103 L 3.1596486,-38.101233 z M 15.616197,-36.468691 L 14.237667,-35.60602 L 12.860064,-34.743351 L 12.598209,-34.250152 C 12.356946,-33.795171 12.261645,-33.609026 12.261645,-33.592834 C 12.261645,-33.589334 12.271725,-33.583134 12.286215,-33.578304 C 12.399543,-33.534894 13.197069,-33.759734 13.834404,-34.014794 C 14.181543,-34.153704 14.206869,-34.165618 14.21064,-34.190936 C 14.21244,-34.215226 14.24898,-34.226716 14.26149,-34.207986 C 14.27562,-34.186776 14.779719,-34.435343 15.125472,-34.633312 C 15.540444,-34.870901 15.967143,-35.158909 16.249527,-35.392014 C 16.593633,-35.676092 17.343108,-36.354905 17.343108,-36.38271 C 17.343108,-36.44235 16.982811,-36.46849 16.149006,-36.46864 L 15.616197,-36.468691 z "
         style="opacity:1;fill:#ffffff;fill-opacity:1;fill-rule:nonzero;stroke:none;stroke-width:0.00434283;stroke-miterlimit:4;stroke-dasharray:none;stroke-opacity:1"
         inkscape:connector-curvature="0" />
      <path
         inkscape:connector-curvature="0"
         id="path4764"
         d="M 9.5506652,-32.946699 C 8.2083336,-33.034919 6.9950796,-33.346164 5.8126866,-33.905629 C 4.8391116,-34.36631 4.1352486,-34.844027 3.3436446,-35.581417 C 2.6370456,-36.239641 2.2705926,-36.664276 1.7137266,-37.470144 C 1.5029286,-37.775273 1.1471047,-38.411895 1.1412007,-38.494551 C 1.1394007,-38.532171 1.1192407,-38.576301 1.0970107,-38.592611 C 1.0407607,-38.635141 0.87633067,-39.030817 0.71498767,-39.511833 C 0.29472367,-40.764462 0.10481467,-42.111531 0.19129567,-43.22611 C 0.22837567,-43.704852 0.34777867,-44.509537 0.43173967,-44.846775 C 0.84289567,-46.498731 1.6919196,-48.038833 2.8473666,-49.228564 C 4.5007746,-50.93103 6.4937796,-51.932059 8.8980756,-52.267591 C 9.4936502,-52.350711 10.994985,-52.342671 11.61,-52.252871 C 13.34403,-52.000201 14.947164,-51.342966 16.328412,-50.318462 C 16.765524,-49.994247 17.548326,-49.262905 17.89794,-48.85215 C 19.113984,-47.423323 19.852713,-45.803513 20.135961,-43.944687 C 20.180151,-43.655625 20.192841,-43.371685 20.193651,-42.65481 C 20.194551,-41.843125 20.185551,-41.68009 20.120481,-41.261143 C 19.986786,-40.407984 19.704645,-39.446344 19.37655,-38.725879 C 18.591786,-37.002502 17.208342,-35.446662 15.564753,-34.439046 C 15.109875,-34.160185 14.654583,-33.92029 14.627745,-33.945328 C 14.617665,-33.954628 14.591835,-33.940128 14.569875,-33.913138 C 14.512005,-33.841118 13.741956,-33.535984 13.20984,-33.374296 C 12.388212,-33.124643 11.692962,-33.00242 10.76499,-32.944459 C 10.227447,-32.910889 10.088874,-32.911139 9.5503412,-32.946659 L 9.5506652,-32.946699 z M 12.834927,-33.672178 C 14.034654,-34.006422 15.224256,-34.594128 16.153623,-35.311713 C 16.426728,-35.522558 17.346951,-36.349774 17.346951,-36.384384 C 17.346951,-36.441824 16.995087,-36.472464 16.336152,-36.472424 L 15.612642,-36.472384 L 14.23521,-35.61006 L 12.857751,-34.747732 L 12.556629,-34.187092 C 12.391083,-33.87875 12.255471,-33.612983 12.255471,-33.596516 C 12.255471,-33.540336 12.455307,-33.566476 12.834927,-33.672196 L 12.834927,-33.672178 z M 5.1221616,-34.923135 C 5.1423216,-35.016935 5.1665316,-35.288921 5.1784116,-35.527628 L 5.2003716,-35.96162 L 4.3475856,-36.861984 C 3.8785596,-37.357178 3.4172376,-37.840928 3.3224496,-37.93697 L 3.1500366,-38.111601 L 2.5243116,-38.070401 C 2.0109066,-38.036611 1.8969126,-38.021041 1.8893166,-37.983751 C 1.8751866,-37.910041 2.4343836,-37.112782 2.8052646,-36.680022 C 3.2609616,-36.148336 3.9762006,-35.501084 4.5671406,-35.085568 C 4.8276276,-34.902452 5.0512686,-34.75263 5.0641926,-34.75263 C 5.0783226,-34.75263 5.1035226,-34.82936 5.1226926,-34.923115 L 5.1221616,-34.923135 z M 14.069592,-35.9389 C 14.804514,-36.395635 15.405795,-36.777765 15.405795,-36.788067 C 15.405795,-36.798337 15.513678,-37.553954 15.645699,-38.467145 C 15.876252,-40.063636 15.883398,-40.129725 15.828993,-40.185683 C 15.719094,-40.298791 13.580505,-41.518225 13.51332,-41.506061 C 13.47786,-41.499461 12.831093,-41.1452 12.076029,-40.718394 C 11.320947,-40.291593 10.676574,-39.933217 10.644066,-39.922013 C 10.611576,-39.910783 10.577736,-39.892593 10.568826,-39.881463 C 10.560726,-39.870233 10.395414,-39.771105 10.202904,-39.660881 C 10.010133,-39.55066 9.8506532,-39.458683 9.8479442,-39.456484 C 9.8338142,-39.446214 9.4869006,-37.440945 9.4869006,-37.379598 C 9.4869006,-37.322548 9.7363982,-37.135848 10.879101,-36.338318 C 11.644803,-35.803843 12.292776,-35.348136 12.319011,-35.325624 C 12.43233,-35.228454 12.625713,-35.112355 12.67731,-35.110465 C 12.70818,-35.108965 13.334571,-35.482129 14.069511,-35.93887 L 14.069592,-35.9389 z M 6.8316486,-36.668116 C 7.5307686,-36.889902 8.3247216,-37.141096 8.5960176,-37.226352 L 9.0892446,-37.381378 L 9.2535846,-38.298347 C 9.3441246,-38.802686 9.4225596,-39.284814 9.4286166,-39.369751 L 9.4386966,-39.524178 L 7.7233416,-40.948734 C 6.6820596,-41.813507 5.9831556,-42.373281 5.9448066,-42.373281 C 5.9098866,-42.373281 5.3557836,-42.23805 4.7131206,-42.07277 L 3.5446056,-41.772244 L 3.5171556,-41.398179 C 3.5030256,-41.192441 3.4923156,-40.970736 3.4923156,-40.905492 C 3.4941156,-40.70003 3.4422756,-39.052448 3.4237356,-38.704763 L 3.4035756,-38.372118 L 3.6195756,-38.154764 C 3.7383486,-38.035205 4.1919486,-37.561087 4.6274586,-37.101155 C 5.2069686,-36.489105 5.4377916,-36.264909 5.4883806,-36.264909 C 5.5264506,-36.264909 6.1294776,-36.446377 6.8285976,-36.668129 L 6.8316486,-36.668116 z M 17.076465,-41.36835 C 17.619012,-41.842517 18.189306,-42.343394 18.343728,-42.481414 L 18.624537,-42.732354 L 18.492867,-43.62771 C 18.420507,-44.120157 18.351306,-44.531666 18.339408,-44.542173 C 18.118467,-44.734664 15.094017,-47.058344 15.064353,-47.058344 C 15.042393,-47.058344 14.636322,-46.771486 14.164128,-46.420879 L 13.3056,-45.783417 L 13.3056,-45.612855 C 13.3056,-45.519045 13.34106,-45.135387 13.38408,-44.760288 C 13.42719,-44.385186 13.513338,-43.617935 13.575042,-43.055283 C 13.637142,-42.492628 13.695831,-41.991576 13.705911,-41.941825 C 13.722021,-41.859845 13.831533,-41.788599 14.875209,-41.180467 C 15.50835,-40.811468 16.0407,-40.508805 16.058196,-40.507887 C 16.074306,-40.506897 16.533963,-40.894179 17.076492,-41.36835 L 17.076465,-41.36835 z M 19.810233,-42.147465 C 19.858203,-42.70584 19.782783,-43.806618 19.654767,-44.434111 C 19.558177,-44.906061 19.418715,-45.397812 19.381653,-45.397812 C 19.367523,-45.397812 19.220544,-45.215917 19.053882,-44.993617 C 18.699813,-44.521113 18.719973,-44.713582 18.897408,-43.500063 L 19.012338,-42.714276 L 19.378107,-42.202631 C 19.579347,-41.92122 19.750464,-41.697164 19.758591,-41.704718 C 19.766691,-41.712318 19.789821,-41.911509 19.810251,-42.147465 L 19.810233,-42.147465 z M 4.0968906,-42.298037 C 5.6005206,-42.682965 5.8710066,-42.75694 5.9098416,-42.793836 C 5.9623116,-42.843696 7.9786266,-45.964802 8.0634156,-46.127432 L 8.1271356,-46.249335 L 7.9829556,-46.548226 C 7.9037556,-46.712629 7.8476496,-46.855332 7.8585396,-46.865378 C 7.8686196,-46.875448 7.8603396,-46.893218 7.8383796,-46.904998 C 7.8182196,-46.916618 7.6661736,-47.211474 7.5009876,-47.560004 C 7.3358466,-47.908527 7.1806146,-48.204123 7.1561346,-48.216885 C 7.1281446,-48.231605 6.4776606,-48.012653 5.4056706,-47.628087 L 3.6996756,-47.016093 L 2.9463936,-45.582485 C 2.5320696,-44.794002 2.1975576,-44.138139 2.2030296,-44.125004 C 2.2365096,-44.044904 3.4248156,-42.13608 3.4412316,-42.13608 C 3.4513116,-42.13608 3.7460976,-42.20897 4.0941366,-42.298081 L 4.0968906,-42.298037 z M 2.6334726,-45.783281 C 3.0244596,-46.525329 3.3446166,-47.149142 3.3449136,-47.169536 C 3.3453996,-47.209246 2.7496626,-48.420914 2.7096936,-48.461316 C 2.6770236,-48.494416 2.5477746,-48.336082 2.1884856,-47.822117 C 1.6894266,-47.108387 1.2170347,-46.1306 0.96374767,-45.286994 C 0.91109767,-45.111452 0.85828567,-44.945163 0.84679267,-44.91744 C 0.83068267,-44.87627 0.91231267,-44.8261 1.2979807,-44.644032 C 1.5645156,-44.518159 1.8033036,-44.423866 1.8462876,-44.427561 C 1.9132476,-44.433461 2.0065956,-44.593998 2.6333556,-45.783281 L 2.6334726,-45.783281 z M 13.911804,-46.69203 C 14.485041,-47.124864 14.801229,-47.382702 14.801229,-47.417384 C 14.801229,-47.460014 13.771602,-49.925374 13.742469,-49.952538 C 13.740669,-49.956638 12.799071,-50.027488 11.655441,-50.110374 L 9.5761172,-50.261062 L 9.4758936,-50.183252 C 9.4206336,-50.140462 9.0336696,-49.803464 8.6157366,-49.434391 C 8.1978126,-49.06532 7.8362196,-48.759039 7.8122256,-48.753771 C 7.7873856,-48.748571 7.7686656,-48.729731 7.7686656,-48.712161 C 7.7686656,-48.694531 7.7114256,-48.634431 7.6412256,-48.578597 C 7.5712056,-48.522767 7.5141906,-48.463145 7.5141906,-48.446137 C 7.5141906,-48.407957 8.4335046,-46.459793 8.4672006,-46.426652 C 8.5073406,-46.387132 8.8213506,-46.356102 10.616778,-46.214286 C 11.561895,-46.139636 12.449718,-46.067278 12.589713,-46.053506 C 12.729663,-46.039756 12.8844,-46.026696 12.933405,-46.024486 C 13.004955,-46.021386 13.196628,-46.151928 13.911903,-46.692075 L 13.911804,-46.69203 z M 14.342922,-50.558834 C 14.611635,-50.690151 14.837967,-50.807615 14.846094,-50.819876 C 14.873544,-50.860926 13.740615,-51.356958 13.273785,-51.508399 C 12.621159,-51.720114 11.842668,-51.877743 11.096604,-51.949225 C 10.549674,-52.001625 10.406952,-52.004765 9.8169572,-51.977315 C 9.1154346,-51.944615 8.4256116,-51.863394 8.3642496,-51.806209 C 8.3364396,-51.780389 8.4287796,-51.677159 8.7402156,-51.385015 C 8.9672046,-51.172158 9.2473746,-50.919302 9.3628716,-50.823095 L 9.5728502,-50.648173 L 10.062945,-50.603323 C 10.332486,-50.578663 11.140155,-50.517763 11.857734,-50.468016 C 12.575322,-50.418256 13.269834,-50.366376 13.401099,-50.352719 C 13.838769,-50.307199 13.819473,-50.302959 14.342949,-50.558882 L 14.342922,-50.558834 z "
         style="opacity:1;fill:#000000;fill-opacity:1;fill-rule:nonzero;stroke:none;stroke-width:0.02303836;stroke-miterlimit:4;stroke-dasharray:none;stroke-opacity:1" />
      <path
         inkscape:connector-curvature="0"
         id="path4741"
         d="M 3.1563996,-78.201932 C 3.1910496,-78.258502 3.8174136,-79.283597 4.5481956,-80.479946 C 5.2789596,-81.676294 6.3321306,-83.399778 6.8885916,-84.309915 L 7.9002996,-85.964706 L 9.968157,-85.961606 L 12.035988,-85.958506 L 12.282597,-85.547155 C 13.804047,-83.009345 14.75946,-81.444136 16.262001,-79.02795 C 16.723089,-78.286531 16.816221,-78.1292 16.797897,-78.122819 C 16.785747,-78.118719 16.056828,-78.112359 15.178221,-78.108679 L 13.58073,-78.102279 L 13.320279,-78.639803 C 13.177116,-78.935439 13.032315,-79.234823 12.998655,-79.305095 L 12.937545,-79.432868 L 9.9647732,-79.432868 L 6.9920016,-79.432868 L 6.6746976,-78.765977 L 6.3573666,-78.099091 L 4.7253696,-78.099091 L 3.0933726,-78.099091 L 3.1563996,-78.201932 z M 12.059037,-81.347763 C 12.059037,-81.370303 11.692062,-81.922097 11.189781,-82.654787 C 10.589922,-83.529791 10.283526,-83.991082 10.065834,-84.346941 C 10.016604,-84.427311 9.973476,-84.493213 9.970047,-84.493368 C 9.965547,-84.493524 9.873261,-84.357634 9.7627952,-84.191419 C 9.6522932,-84.025195 9.3289416,-83.541402 9.0440556,-83.116341 C 8.3912496,-82.142323 7.8679806,-81.35488 7.8679806,-81.3465 C 7.8679806,-81.3428 8.8109916,-81.3401 9.9635582,-81.3401 C 11.116116,-81.3401 12.059136,-81.3438 12.059136,-81.3478 L 12.059037,-81.347763 z "
         style="opacity:1;fill:#d8000f;fill-opacity:1;fill-rule:nonzero;stroke:none;stroke-width:0.00953843;stroke-miterlimit:4;stroke-dasharray:none;stroke-opacity:1" />
      <path
         inkscape:connector-curvature="0"
         id="path4743"
         d="M 6.2708046,-67.285667 C 5.2051776,-67.463455 4.2339516,-67.983197 3.2974296,-68.876805 L 3.0798366,-69.084435 L 3.0798366,-72.133341 L 3.0798366,-75.182238 L 4.6888026,-75.182238 L 6.2977506,-75.182238 L 6.3022506,-72.181242 L 6.3058506,-69.180243 L 9.9649982,-69.180243 L 13.624155,-69.180243 L 13.628655,-72.181242 L 13.633155,-75.182238 L 15.235632,-75.182238 L 16.838127,-75.182238 L 16.838127,-72.11741 L 16.838127,-69.052587 L 16.787277,-69.010457 C 16.759287,-68.987287 16.658622,-68.900468 16.563429,-68.81754 C 15.636402,-68.009192 14.743764,-67.50067 13.886181,-67.29238 L 13.730517,-67.25455 L 10.090818,-67.25554 L 6.4511286,-67.25653 L 6.2748906,-67.28595 L 6.2708046,-67.285667 z "
         style="opacity:1;fill:#d8000f;fill-opacity:1;fill-rule:nonzero;stroke:none;stroke-width:0.00953843;stroke-miterlimit:4;stroke-dasharray:none;stroke-opacity:1" />
      <path
         inkscape:connector-curvature="0"
         id="path4745"
         d="M 3.4820736,-59.793953 L 3.4820736,-63.764114 L 10.125639,-63.764114 L 16.769223,-63.764114 L 16.769223,-62.966344 L 16.769223,-62.168574 L 11.663262,-62.168574 L 6.5573286,-62.168574 L 6.5573286,-61.377029 L 6.5573286,-60.585492 L 11.591901,-60.585492 L 16.626474,-60.585492 L 16.626474,-59.837579 L 16.626474,-59.089666 L 11.594043,-59.089666 L 6.5616036,-59.089666 L 6.5535036,-58.145431 C 6.5490036,-57.626096 6.5454036,-56.891275 6.5454036,-56.51249 L 6.5454036,-55.823786 L 5.0142516,-55.823786 L 3.4831176,-55.823786 L 3.4820736,-59.793953 z "
         style="opacity:1;fill:#d8000f;fill-opacity:1;fill-rule:nonzero;stroke:none;stroke-width:0.00953843;stroke-miterlimit:4;stroke-dasharray:none;stroke-opacity:1" />
      <g
         transform="matrix(0.1966069,0,0,0.1966069,-12.916643,-106.55488)">
        <g
           clip-path="url(#Clip0)"
           id="svg2">
          <g
             clip-path="url(#Clip4)">
            <path
               transform="translate(180.19,2.39827)"
               d="M 43.1522,15.7164 L 43.1522,15.7164 L 29.7218,25.4074 L 34.8618,41.095 L 21.5109,31.3107 L 8.15026,40.9371 L 13.3563,25.313 L 0,15.6646 L 16.5001,15.7641 L 21.5758,0 L 26.6466,15.7522 L 43.1522,15.7164 z "
               style="fill:#ffc905;fill-rule:nonzero;stroke:#ffc905;stroke-width:0.79654098;stroke-linecap:butt;stroke-linejoin:round;stroke-dasharray:none"
               inkscape:connector-curvature="0" />
            <path
               transform="translate(124.709,2.43374)"
               d="M 34.8237,40.9962 L 34.8237,40.9962 L 21.5301,31.2978 L 8.22917,40.9905 L 13.2933,25.3491 L 0,15.651 L 16.512,15.6408 L 21.5755,0 L 26.5939,15.657 L 43.1149,15.7416 L 29.7095,25.3481 L 34.8237,40.9962 z "
               style="fill:#ffc905;fill-rule:nonzero;stroke:#ffc905;stroke-width:0.79654098;stroke-linecap:butt;stroke-linejoin:round;stroke-dasharray:none"
               inkscape:connector-curvature="0" />
            <path
               transform="translate(66.1339,2.43441)"
               d="M 21.5573,31.2978 L 8.24774,40.9736 L 8.24774,40.9736 L 13.3881,25.3345 L 0,15.7051 L 16.5206,15.6484 L 21.5659,0 L 26.6022,15.6497 L 43.1141,15.6882 L 29.8047,25.3637 L 34.9368,41.0223 L 21.5573,31.2978 z "
               style="fill:#ffc905;fill-rule:nonzero;stroke:#ffc905;stroke-width:0.79654098;stroke-linecap:butt;stroke-linejoin:round;stroke-dasharray:none"
               inkscape:connector-curvature="0" />
            <path
               transform="translate(10.7667,2.41286)"
               d="M 8.15026,40.8914 L 13.3337,25.2967 L 0,15.4939 L 16.5163,15.5943 L 21.6995,0 L 26.6168,15.725 L 43.0875,15.7419 L 29.7201,25.3594 L 34.7213,41.0383 L 21.5172,31.2736 L 8.15026,40.8914 z "
               style="fill:#ffc905;fill-rule:nonzero;stroke:#ffc905;stroke-width:0.79654098;stroke-linecap:butt;stroke-linejoin:round;stroke-dasharray:none"
               inkscape:connector-curvature="0" />
          </g>
        </g>
      </g>
    </g>
  </g>
</svg>
